<svg width="20" height="20" viewBox="0 0 20 20" fill="none" xmlns="http://www.w3.org/2000/svg">
<path d="M4.6875 2.92969C4.6875 3.9005 3.9005 4.6875 2.92969 4.6875C1.95888 4.6875 1.17188 3.9005 1.17188 2.92969C1.17188 1.95888 1.95888 1.17187 2.92969 1.17187C3.9005 1.17187 4.6875 1.95888 4.6875 2.92969ZM5.85938 2.92969C5.85938 1.31167 4.54771 -1.43051e-06 2.92969 -1.43051e-06C1.31167 -1.43051e-06 0 1.31167 0 2.92969C3.77547e-08 4.54771 1.31167 5.85937 2.92969 5.85938C4.54771 5.85938 5.85938 4.54771 5.85938 2.92969Z" fill="#8A184F"/>
<path d="M11.7578 2.92969C11.7578 3.9005 10.9708 4.6875 10 4.6875C9.02919 4.6875 8.24219 3.9005 8.24219 2.92969C8.24219 1.95888 9.02919 1.17187 10 1.17187C10.9708 1.17187 11.7578 1.95888 11.7578 2.92969ZM12.9297 2.92969C12.9297 1.31167 11.618 -1.43051e-06 10 -1.43051e-06C8.38198 -1.43051e-06 7.07031 1.31167 7.07031 2.92969C7.07031 4.54771 8.38198 5.85937 10 5.85938C11.618 5.85938 12.9297 4.54771 12.9297 2.92969Z" fill="#8A184F"/>
<path d="M18.8281 2.92969C18.8281 3.9005 18.0411 4.6875 17.0703 4.6875C16.0995 4.6875 15.3125 3.9005 15.3125 2.92969C15.3125 1.95888 16.0995 1.17187 17.0703 1.17187C18.0411 1.17187 18.8281 1.95888 18.8281 2.92969ZM20 2.92969C20 1.31167 18.6883 -1.43051e-06 17.0703 -1.43051e-06C15.4523 -1.43051e-06 14.1406 1.31167 14.1406 2.92969C14.1406 4.54771 15.4523 5.85937 17.0703 5.85938C18.6883 5.85938 20 4.54771 20 2.92969Z" fill="#8A184F"/>
<path d="M11.7578 17.0703C11.7578 18.0411 10.9708 18.8281 10 18.8281C9.02919 18.8281 8.24219 18.0411 8.24219 17.0703C8.24219 16.0995 9.02919 15.3125 10 15.3125C10.9708 15.3125 11.7578 16.0995 11.7578 17.0703ZM12.9297 17.0703C12.9297 15.4523 11.618 14.1406 10 14.1406C8.38198 14.1406 7.07031 15.4523 7.07031 17.0703C7.07031 18.6883 8.38198 20 10 20C11.618 20 12.9297 18.6883 12.9297 17.0703Z" fill="#8A184F"/>
<path d="M18.8281 17.0703C18.8281 18.0411 18.0411 18.8281 17.0703 18.8281C16.0995 18.8281 15.3125 18.0411 15.3125 17.0703C15.3125 16.0995 16.0995 15.3125 17.0703 15.3125C18.0411 15.3125 18.8281 16.0995 18.8281 17.0703ZM20 17.0703C20 15.4523 18.6883 14.1406 17.0703 14.1406C15.4523 14.1406 14.1406 15.4523 14.1406 17.0703C14.1406 18.6883 15.4523 20 17.0703 20C18.6883 20 20 18.6883 20 17.0703Z" fill="#8A184F"/>
<path d="M17.0703 10.5859V9.41406H3.51563V5.27345H2.34375V10.5859H17.0703Z" fill="#8A184F"/>
<path d="M10.5859 14.7266V5.27343H9.41406V14.7266H10.5859Z" fill="#8A184F"/>
<path d="M17.6563 14.7266V5.27343H16.4844V14.7266H17.6563Z" fill="#8A184F"/>
</svg>
