<svg width="26" height="26" viewBox="0 0 26 26" fill="none" xmlns="http://www.w3.org/2000/svg">
<path d="M9.75033 19.5C9.75033 20.6967 8.78028 21.6667 7.58366 21.6667C6.38704 21.6667 5.41699 20.6967 5.41699 19.5C5.41699 18.3034 6.38704 17.3334 7.58366 17.3334C8.78028 17.3334 9.75033 18.3034 9.75033 19.5Z" stroke="#8A184F"/>
<path d="M20.5833 19.5C20.5833 20.6967 19.6133 21.6667 18.4167 21.6667C17.22 21.6667 16.25 20.6967 16.25 19.5C16.25 18.3034 17.22 17.3334 18.4167 17.3334C19.6133 17.3334 20.5833 18.3034 20.5833 19.5Z" stroke="#8A184F"/>
<path d="M2.16699 11.9166H19.5003" stroke="#8A184F" stroke-linecap="round"/>
<path d="M20.5837 19C20.3075 19 20.0837 19.2239 20.0837 19.5C20.0837 19.7761 20.3075 20 20.5837 20V19ZM2.16699 6C1.89085 6 1.66699 6.22386 1.66699 6.5C1.66699 6.77614 1.89085 7 2.16699 7V6ZM15.5174 6.86732L15.2865 7.31081L15.5174 6.86732ZM23.654 14.4486L23.1872 14.6276L23.654 14.4486ZM23.5164 19.1827L23.8699 19.5363V19.5363L23.5164 19.1827ZM19.3031 11.5416L18.9521 11.8977L18.9521 11.8977L19.3031 11.5416ZM4.68721 6.85355C4.88247 6.65829 4.88247 6.34171 4.68721 6.14645C4.49195 5.95118 4.17537 5.95118 3.98011 6.14645L4.68721 6.85355ZM2.32879 18.3167L2.75411 18.0538H2.75411L2.32879 18.3167ZM5.30212 19.9866C5.57087 20.0501 5.84017 19.8836 5.90362 19.6149C5.96706 19.3461 5.80062 19.0768 5.53187 19.0134L5.30212 19.9866ZM9.75033 19C9.47418 19 9.25033 19.2239 9.25033 19.5C9.25033 19.7761 9.47418 20 9.75033 20V19ZM16.2503 20C16.5265 20 16.7503 19.7761 16.7503 19.5C16.7503 19.2239 16.5265 19 16.2503 19V20ZM20.5837 19.5V20H21.667V19.5V19H20.5837V19.5ZM23.8337 17.3333H24.3337V16.553H23.8337H23.3337V17.3333H23.8337ZM12.3244 6.5V6H2.16699V6.5V7H12.3244V6.5ZM12.3244 6.5V7C13.1625 7 13.7579 7.00048 14.2328 7.04384C14.6975 7.08629 15.0113 7.1675 15.2865 7.31081L15.5174 6.86732L15.7483 6.42383C15.3181 6.19982 14.8645 6.09737 14.3237 6.04799C13.793 5.99952 13.1446 6 12.3244 6V6.5ZM23.8337 16.553H24.3337C24.3337 15.5035 24.3417 14.8452 24.1208 14.2695L23.654 14.4486L23.1872 14.6276C23.3257 14.9887 23.3337 15.421 23.3337 16.553H23.8337ZM21.667 19.5V20C22.1635 20 22.5863 20.0011 22.9223 19.9559C23.2728 19.9088 23.6029 19.8033 23.8699 19.5363L23.5164 19.1827L23.1628 18.8291C23.1125 18.8794 23.0286 18.9326 22.7891 18.9648C22.5351 18.9989 22.1918 19 21.667 19V19.5ZM23.8337 17.3333H23.3337C23.3337 17.8582 23.3326 18.2015 23.2985 18.4554C23.2662 18.695 23.2131 18.7789 23.1628 18.8291L23.5164 19.1827L23.8699 19.5363C24.1369 19.2692 24.2424 18.9391 24.2895 18.5887C24.3347 18.2526 24.3337 17.8299 24.3337 17.3333H23.8337ZM19.3031 11.5416L19.6542 11.1856C19.0189 10.5592 18.5628 9.7035 17.9833 8.77618C17.429 7.88922 16.7674 6.95442 15.7483 6.42383L15.5174 6.86732L15.2865 7.31081C16.0453 7.70587 16.5863 8.42763 17.1353 9.30613C17.659 10.1442 18.2069 11.1629 18.9521 11.8977L19.3031 11.5416ZM23.654 14.4486L24.1208 14.2695C23.6785 13.1162 22.7315 12.6369 21.8709 12.2946C21.4145 12.1131 21.0269 11.9856 20.6246 11.8055C20.2403 11.6336 19.914 11.4418 19.6542 11.1856L19.3031 11.5416L18.9521 11.8977C19.3314 12.2717 19.778 12.5223 20.2161 12.7183C20.6362 12.9063 21.1205 13.0724 21.5014 13.2238C22.3155 13.5476 22.9048 13.8914 23.1872 14.6276L23.654 14.4486ZM4.33366 6.5L3.98011 6.14645C3.35646 6.77009 2.78446 7.94332 2.37591 9.03277C2.16681 9.59038 1.99166 10.1502 1.86812 10.6444C1.7471 11.1284 1.66699 11.5829 1.66699 11.9167H2.16699H2.66699C2.66699 11.7088 2.7223 11.3507 2.83826 10.8869C2.9517 10.4331 3.11509 9.90962 3.31224 9.3839C3.7162 8.30668 4.22752 7.31324 4.68721 6.85355L4.33366 6.5ZM2.16699 11.9167H1.66699V17.0776H2.16699H2.66699V11.9167H2.16699ZM2.16699 17.0776H1.66699C1.66699 17.3931 1.66638 17.6675 1.68987 17.8947C1.71455 18.1334 1.76895 18.3619 1.90346 18.5795L2.32879 18.3167L2.75411 18.0538C2.72683 18.0097 2.70033 17.9443 2.68457 17.7919C2.66761 17.6279 2.66699 17.4136 2.66699 17.0776H2.16699ZM5.41699 19.5L5.53187 19.0134C5.2891 18.9561 4.99727 18.9076 4.71941 18.8581C4.43215 18.8068 4.14365 18.7519 3.87028 18.6787C3.29563 18.5248 2.92007 18.3223 2.75411 18.0538L2.32879 18.3167L1.90346 18.5795C2.28645 19.1992 3.00459 19.4821 3.6116 19.6447C3.92906 19.7297 4.25339 19.7907 4.54385 19.8425C4.8437 19.896 5.09448 19.9376 5.30212 19.9866L5.41699 19.5ZM9.75033 19.5V20L16.2503 20V19.5V19L9.75033 19V19.5Z" fill="#8A184F"/>
<path d="M9.75 11.9167V6.5" stroke="#8A184F" stroke-linecap="round"/>
</svg>
