<svg width="14" height="14" viewBox="0 0 14 14" fill="none" xmlns="http://www.w3.org/2000/svg">
<path fill-rule="evenodd" clip-rule="evenodd" d="M1.3125 2.39149C1.3125 1.79086 1.8025 1.30444 2.40625 1.30444H5.46875C6.07308 1.30444 6.5625 1.79144 6.5625 2.39149V10.0008C6.5625 10.6928 6.28594 11.3563 5.79365 11.8456C5.30137 12.3349 4.63369 12.6097 3.9375 12.6097C3.24131 12.6097 2.57363 12.3349 2.08134 11.8456C1.58906 11.3563 1.3125 10.6928 1.3125 10.0008V2.39149ZM3.9375 10.6531C4.11155 10.6531 4.27847 10.5843 4.40154 10.462C4.52461 10.3397 4.59375 10.1738 4.59375 10.0008C4.59375 9.82785 4.52461 9.66195 4.40154 9.53963C4.27847 9.41732 4.11155 9.3486 3.9375 9.3486C3.76345 9.3486 3.59653 9.41732 3.47346 9.53963C3.35039 9.66195 3.28125 9.82785 3.28125 10.0008C3.28125 10.1738 3.35039 10.3397 3.47346 10.462C3.59653 10.5843 3.76345 10.6531 3.9375 10.6531Z" fill="#1677F1"/>
<path d="M6.5625 12.6097H11.9035C12.5078 12.6097 12.9973 12.1227 12.9973 11.5226V8.4789C12.9973 7.87827 12.5072 7.39185 11.9035 7.39185H11.8218L6.72233 12.4607C6.66983 12.5123 6.61733 12.5621 6.5625 12.6097ZM7.74025 10.2182L11.5167 6.46482C11.7218 6.26097 11.8369 5.98456 11.8369 5.69635C11.8369 5.40814 11.7218 5.13172 11.5167 4.92788L9.35142 2.77523C9.14631 2.57149 8.8682 2.45703 8.57821 2.45703C8.28822 2.45703 8.0101 2.57149 7.805 2.77523L7.74667 2.83263V10.0008C7.74667 10.0738 7.74492 10.1463 7.74083 10.2182H7.74025Z" fill="#1677F1"/>
</svg>
