<svg width="24" height="22" viewBox="0 0 24 22" fill="none" xmlns="http://www.w3.org/2000/svg">
<path d="M18.8187 3.6925C18.2742 3.6925 17.8311 4.13562 17.8311 4.68018C17.8311 5.22473 18.2742 5.66759 18.8187 5.66759C19.3633 5.66759 19.8064 5.22473 19.8064 4.68018C19.8064 4.13562 19.3633 3.6925 18.8187 3.6925ZM18.8187 5.15557C18.5567 5.15557 18.3433 4.94246 18.3433 4.68043C18.3433 4.4184 18.5567 4.20504 18.8187 4.20504C19.0808 4.20504 19.2941 4.4184 19.2941 4.68043C19.2941 4.94246 19.0808 5.15557 18.8187 5.15557Z" fill="#8A184F"/>
<path d="M23.5489 1.06144C23.5489 0.476162 23.073 0 22.4877 0H15.1429C14.5576 0 14.0815 0.475906 14.0815 1.06144V7.91545C14.0815 8.0571 14.1962 8.17159 14.3376 8.17159H15.5366C15.628 8.17159 15.7128 8.12292 15.7584 8.04352L16.1278 7.40369C16.2925 7.1186 16.5991 6.94136 16.9285 6.94136H17.3726L12.1448 15.6995C12.0231 15.6852 11.8999 15.6759 11.7744 15.6759C11.6489 15.6759 11.5257 15.6852 11.4041 15.6995L6.17627 6.94136H6.62041C6.94981 6.94136 7.25641 7.11835 7.4211 7.40369L7.79045 8.04352C7.8363 8.12292 7.92083 8.17159 8.01227 8.17159H9.21126C9.35264 8.17159 9.46739 8.0571 9.46739 7.91545V1.06144C9.46739 0.476162 8.99123 0 8.40596 0H1.06118C0.475905 0 0 0.475906 0 1.06144V7.91545C0 8.0571 0.11475 8.17159 0.256139 8.17159H1.45512C1.54656 8.17159 1.63135 8.12292 1.67694 8.04352L2.04604 7.40369C2.21099 7.1186 2.51759 6.94136 2.84698 6.94136H2.99631L8.94487 17.4346C8.73381 17.8582 8.61215 18.3336 8.61215 18.838C8.61215 20.5815 10.0306 22 11.7742 22C13.5177 22 14.9362 20.5815 14.9362 18.838C14.9362 18.3336 14.8145 17.858 14.6035 17.4346L20.552 6.94136H20.7014C21.0308 6.94136 21.3374 7.11835 21.5021 7.40369L21.8714 8.04352C21.9173 8.12292 22.0018 8.17159 22.0932 8.17159H23.2922C23.4336 8.17159 23.5484 8.0571 23.5484 7.91545V1.06144H23.5489ZM14.5938 1.73508H23.0366V2.41103H14.5938V1.73508ZM15.1427 0.512533H22.4874C22.7902 0.512533 23.0363 0.758939 23.0363 1.06169V1.22306H14.5935V1.06169C14.5935 0.758939 14.8396 0.512533 15.1427 0.512533ZM0.512277 1.73508H8.95512V2.41103H0.512277V1.73508ZM1.06118 0.512533H8.40596C8.70871 0.512533 8.95512 0.758939 8.95512 1.06169V1.22306H0.512277V1.06169C0.512277 0.758939 0.758426 0.512533 1.06118 0.512533ZM1.60266 7.14755L1.30733 7.65931H0.512533V2.92331H8.95537V7.65931H8.16032L7.86499 7.14755C7.60911 6.70443 7.13218 6.42908 6.62067 6.42908H2.84749C2.33573 6.42908 1.8588 6.70417 1.60266 7.14755ZM3.58543 6.94136H5.57947L10.8726 15.8086C10.2184 16.0038 9.65463 16.4059 9.25275 16.9382L3.58543 6.94136ZM11.7744 21.4877C10.3132 21.4877 9.12468 20.299 9.12468 18.838C9.12468 17.377 10.3134 16.188 11.7744 16.188C13.2354 16.188 14.4242 17.3767 14.4242 18.838C14.4242 20.2992 13.2354 21.4877 11.7744 21.4877ZM14.2961 16.9382C13.8942 16.4059 13.3305 16.0038 12.6763 15.8086L17.9694 6.94136H19.9634L14.2961 16.9382ZM22.2418 7.65931L21.9462 7.14755C21.6903 6.70443 21.2134 6.42908 20.7019 6.42908H16.9287C16.4169 6.42908 15.9403 6.70417 15.6844 7.14755L15.3891 7.65931H14.594V2.92331H23.0368V7.65931H22.2418Z" fill="#8A184F"/>
<path d="M4.72986 3.6925C4.18531 3.6925 3.74219 4.13562 3.74219 4.68018C3.74219 5.22473 4.18531 5.66759 4.72986 5.66759C5.27441 5.66759 5.71753 5.22473 5.71753 4.68018C5.71753 4.13562 5.27441 3.6925 4.72986 3.6925ZM4.72986 5.15557C4.46783 5.15557 4.25446 4.94246 4.25446 4.68043C4.25446 4.4184 4.46783 4.20504 4.72986 4.20504C4.99189 4.20504 5.20525 4.4184 5.20525 4.68043C5.20525 4.94246 4.99189 5.15557 4.72986 5.15557Z" fill="#8A184F"/>
<path d="M11.7743 17.2765C10.9134 17.2765 10.2129 17.977 10.2129 18.8382C10.2129 19.6993 10.9134 20.3996 11.7743 20.3996C12.6352 20.3996 13.3357 19.6993 13.3357 18.8382C13.3357 17.977 12.6352 17.2765 11.7743 17.2765ZM11.7743 19.8871C11.1957 19.8871 10.7252 19.4165 10.7252 18.8379C10.7252 18.2593 11.1957 17.7885 11.7743 17.7885C12.3529 17.7885 12.8235 18.2593 12.8235 18.8379C12.8235 19.4165 12.3529 19.8871 11.7743 19.8871Z" fill="#8A184F"/>
<path d="M17.6305 8.6533L14.574 14.0868C14.5046 14.21 14.5484 14.3662 14.6716 14.4354C14.7113 14.4579 14.7543 14.4684 14.7968 14.4684C14.8865 14.4684 14.9733 14.4213 15.0204 14.3378L18.0769 8.90431C18.1463 8.78111 18.1025 8.62487 17.9793 8.55571C17.8561 8.48578 17.6996 8.52984 17.6305 8.6533Z" fill="#8A184F"/>
<path d="M5.91887 8.65325C5.84946 8.53005 5.69321 8.48599 5.57001 8.55566C5.44681 8.62508 5.40301 8.78107 5.47242 8.90427L8.52892 14.3377C8.57605 14.4212 8.66288 14.4684 8.75253 14.4684C8.79505 14.4684 8.83808 14.4579 8.87778 14.4353C9.00098 14.3659 9.04478 14.2099 8.97537 14.0867L5.91887 8.65325Z" fill="#8A184F"/>
</svg>
