<svg width="18" height="22" viewBox="0 0 18 22" fill="none" xmlns="http://www.w3.org/2000/svg">
<path d="M15.9677 0H8.51613C8.4221 0 8.33161 0.0372581 8.26526 0.103968L6.74194 1.62729L5.92829 0.813645C5.78955 0.674903 5.56529 0.674903 5.42655 0.813645L4.6129 1.62729L3.08958 0.103968C3.02323 0.0372581 2.93274 0 2.83871 0H0.354839C0.158968 0 0 0.158968 0 0.354839V1.77419C0 1.97006 0.158968 2.12903 0.354839 2.12903H1.98213L3.04665 3.19355L2.233 4.00719C2.09426 4.14594 2.09426 4.37019 2.233 4.50894L3.04665 5.32258L1.52332 6.8459C1.45661 6.91226 1.41935 7.00274 1.41935 7.09677V20.9355C1.41935 21.5224 1.89697 22 2.48387 22H15.9677C16.5546 22 17.0323 21.5224 17.0323 20.9355V1.06452C17.0323 0.477613 16.5546 0 15.9677 0ZM2.3799 1.52332C2.31355 1.45661 2.22306 1.41935 2.12903 1.41935H0.709677V0.709677H2.69181L4.11116 2.12903L3.54839 2.69181L2.3799 1.52332ZM2.98561 4.25806L5.67742 1.56626L6.24019 2.12903L3.54839 4.82084L2.98561 4.25806ZM8.66303 0.709677H15.9677C16.1633 0.709677 16.3226 0.869 16.3226 1.06452V7.80645H2.12903V7.24368L8.66303 0.709677ZM16.3226 8.51613V19.1613H2.12903V8.51613H16.3226ZM15.9677 21.2903H2.48387C2.28835 21.2903 2.12903 21.131 2.12903 20.9355V19.871H16.3226V20.9355C16.3226 21.131 16.1633 21.2903 15.9677 21.2903Z" fill="#8A184F"/>
<path d="M10.2901 4.9677H14.5482C15.1351 4.9677 15.6127 4.49009 15.6127 3.90318V2.48383C15.6127 1.89692 15.1351 1.41931 14.5482 1.41931H10.2901C9.7032 1.41931 9.22559 1.89692 9.22559 2.48383V3.90318C9.22559 4.49009 9.7032 4.9677 10.2901 4.9677ZM9.93526 2.48383C9.93526 2.28831 10.0946 2.12899 10.2901 2.12899H14.5482C14.7437 2.12899 14.903 2.28831 14.903 2.48383V3.90318C14.903 4.0987 14.7437 4.25802 14.5482 4.25802H10.2901C10.0946 4.25802 9.93526 4.0987 9.93526 3.90318V2.48383Z" fill="#8A184F"/>
<path d="M6.7089 17.2927C7.29794 18.0294 8.17687 18.4516 9.12003 18.4516H9.33187C10.275 18.4516 11.1536 18.0294 11.743 17.2927C12.1791 16.7473 12.4193 16.0625 12.4193 15.3638C12.4193 14.5324 12.189 13.7188 11.7533 13.0109L9.5281 9.39473C9.39894 9.18467 9.05297 9.18467 8.92381 9.39473L6.69861 13.0109C6.26252 13.7192 6.03223 14.5328 6.03223 15.3638C6.03223 16.0625 6.27245 16.7473 6.7089 17.2927ZM7.30255 13.3828L9.22578 10.2577L11.149 13.3828C11.5159 13.9789 11.7096 14.6641 11.7096 15.3638C11.7096 15.9018 11.5248 16.4294 11.1887 16.8495C10.7345 17.4166 10.0579 17.742 9.33152 17.742H9.11968C8.39332 17.742 7.71665 17.4166 7.26281 16.8495C6.92678 16.4294 6.7419 15.9018 6.7419 15.3638C6.7419 14.6641 6.93565 13.9789 7.30255 13.3828Z" fill="#8A184F"/>
<path d="M10.9998 15.2581H10.2901C10.2901 15.845 9.81249 16.3226 9.22559 16.3226V17.0323C10.2039 17.0323 10.9998 16.2363 10.9998 15.2581Z" fill="#8A184F"/>
</svg>
