<svg width="23" height="22" viewBox="0 0 23 22" fill="none" xmlns="http://www.w3.org/2000/svg">
<path d="M20.6678 16.3977L20.6571 17.2218C20.5581 18.2714 19.6065 18.9867 18.575 18.866C17.8089 18.7762 17.1304 18.0909 17.0078 17.332C16.985 17.1909 16.9884 17.041 16.988 16.8983L16.9838 14.3234C16.9808 14.228 16.9618 14.1347 16.9599 14.0393L16.9515 12.9521L16.8478 11.4124C16.7842 10.6616 16.6207 8.86515 16.1336 8.25731C15.9335 8.00748 15.7162 7.95264 15.41 7.91891L15.406 19.9416C15.4283 19.9701 15.4716 19.9808 15.5034 19.9967C16.0456 20.2663 16.257 20.8094 16.2765 21.3769C16.2969 21.9707 16.2104 22.0001 15.6641 21.9994L0.576631 22C0.288848 21.9997 0.0241619 21.9844 0.00450493 21.6217C-0.0299872 20.9851 0.125978 20.3395 0.737083 20.0314C0.780835 20.0093 0.940063 19.9765 0.956913 19.9517C0.969988 19.9325 0.958132 7.07414 0.957417 5.48541L0.956789 2.49085C0.956899 2.33506 0.951482 2.17324 0.968923 2.01833C1.10124 0.843026 2.01798 0.0866307 3.17647 0.00330064L11.1782 0.000330777C12.4331 0.000436331 13.4715 -0.0540631 14.2715 1.18901C14.8555 2.09649 15.3569 4.63925 15.3976 5.65171L15.4042 7.04737C15.4042 7.08705 15.3972 7.14256 15.412 7.17888L15.4268 7.17931C16.9136 7.22398 17.1735 8.54274 17.3863 9.76975C17.5203 10.543 17.6144 11.3262 17.661 12.1098L17.696 12.9373C17.7004 13.0364 17.7254 13.1334 17.7285 13.2316L17.7324 16.3319C17.7324 16.6333 17.7127 16.9462 17.7615 17.2438C17.9673 18.4988 19.7554 18.3021 19.9163 17.2199C19.9335 17.1042 19.9282 16.9861 19.9282 16.8696L19.9309 7.99285C19.9037 7.95106 19.8158 7.93043 19.7711 7.9072C19.1221 7.57015 18.9952 6.83545 18.9614 6.1671C18.9361 5.66486 19.0325 5.39051 19.2856 4.95803L20.4613 3.0071C20.704 2.58885 20.6477 2.42958 21.0989 2.16312L21.6511 1.86557C21.8892 1.74323 22.5549 1.35098 22.6056 1.90286C22.6368 2.24287 22.2876 2.37501 22.0371 2.48923C21.7231 2.63241 21.4583 2.80869 21.231 3.0735C21.5372 3.45009 21.9434 3.7252 22.2753 4.07281C22.3574 4.15874 22.3647 4.18192 22.3681 4.29635L22.3802 4.55707C22.4378 5.47231 22.5275 5.22177 22.0946 6.06879L21.7412 6.77691C21.5192 7.22868 21.2869 7.63646 20.8569 7.91886C20.8083 7.95082 20.7191 7.98181 20.6821 8.02149C20.6542 8.05129 20.6678 8.80542 20.6677 8.91592L20.6678 16.3977ZM5.82058 0.732909L3.54891 0.733888C2.66505 0.735572 1.99137 0.986819 1.73019 1.94535C1.68301 2.11852 1.69748 2.32225 1.69749 2.50103L1.6989 19.4524C1.69922 19.5855 1.68425 19.7439 1.70544 19.8742L10.5171 19.8781L14.6555 19.8763L14.6622 6.43703C14.6623 5.1724 14.4815 4.17587 14.1534 2.97219C13.8376 1.81386 13.4869 0.797978 12.1001 0.737121L5.82058 0.732909ZM20.8601 3.80437L19.973 5.25871C19.8605 5.44497 19.7506 5.62743 19.7067 5.84281C19.6107 6.3143 19.7783 7.4741 20.4963 7.2544L20.5348 7.24198C20.7274 7.13162 20.8172 6.91135 20.9165 6.72361L21.5166 5.58593C21.8518 4.95025 21.8044 4.67063 21.3067 4.21517L20.8601 3.80437ZM1.97747 20.6081L1.57 20.6101C1.05189 20.6136 0.830527 20.7246 0.750388 21.2632L14.2835 21.266L15.5254 21.2662C15.4793 21.0239 15.3924 20.684 15.1051 20.6285L15.0839 20.6242C14.9432 20.5985 14.79 20.6084 14.6473 20.6083L1.97747 20.6081Z" fill="#8A184F"/>
<path d="M12.5529 7.04265L3.7942 7.05253C3.70023 7.05138 3.57394 7.05934 3.48681 7.02346L3.33668 6.96363C2.90446 6.76034 2.79931 6.45327 2.79815 6.02041L2.79688 3.09334C2.79798 2.24452 2.88665 1.80311 3.81224 1.78213L11.1503 1.78141C12.4465 1.78109 12.6869 1.68323 13.0366 3.1993L13.2721 4.41992C13.3709 4.9902 13.4808 5.57286 13.505 6.15129C13.5286 6.71428 13.0813 7.02178 12.5529 7.04265ZM3.6233 2.51338C3.60654 2.51622 3.56786 2.51467 3.55885 2.52916C3.52442 2.58453 3.53214 5.73411 3.54307 6.02803C3.55076 6.23434 3.57938 6.31581 3.79434 6.31908L12.2883 6.31864C12.4127 6.3185 12.5439 6.32354 12.6662 6.29849C12.7012 6.27796 12.7219 6.27561 12.7358 6.23679C12.8386 5.94873 12.4066 3.75862 12.3092 3.36036L12.0835 2.63041C12.0724 2.59496 12.0509 2.56303 12.0319 2.53138C11.7419 2.48708 11.4178 2.51308 11.1241 2.51296L3.6233 2.51338Z" fill="#8A184F"/>
<path d="M8.69054 17.8983C7.37821 18.1553 5.83717 17.5599 5.10386 16.4355C4.24206 15.114 4.1058 13.0641 5.0543 11.7469C5.62396 10.9557 7.21676 9.82573 7.34804 8.92406C7.38738 8.6538 7.38004 8.446 7.67343 8.33929C7.9245 8.31756 8.10198 8.44868 8.30642 8.573L8.70992 8.82614C10.1784 9.79531 11.5667 11.2703 11.9243 13.0474C12.3971 15.3968 11.0352 17.4281 8.69054 17.8983ZM8.05213 9.24734L8.04733 9.2638C7.80576 10.0763 6.92721 10.8664 6.34714 11.4406C5.46678 12.3122 5.12675 12.8456 5.15837 14.0709C5.20169 15.7488 6.17308 17.1858 7.99801 17.188C8.11316 17.1882 8.26779 17.1649 8.378 17.1877C10.1938 16.9685 11.4566 15.3505 11.2451 13.54C11.069 12.0322 9.99773 10.7284 8.82881 9.8323L8.05213 9.24734Z" fill="#8A184F"/>
<path d="M8.32905 16.9116C7.33991 17.018 6.45849 16.496 6.06636 15.5756C5.76174 14.8605 5.80799 13.7192 6.47221 13.2335C6.60391 13.1372 6.74895 13.0602 6.8797 12.9627C7.62875 12.4044 7.1003 11.7552 7.19631 11.159L7.19996 11.1383C7.23196 10.9484 7.35373 10.8575 7.53893 10.8231C7.84144 10.8035 7.92929 11.0485 8.07188 11.2694L9.37475 13.1677C9.98298 14.0749 10.4062 15.009 9.69381 16.0307C9.36664 16.5 8.89295 16.814 8.32905 16.9116ZM8.02179 12.471C7.92636 12.9066 7.65182 13.3732 7.2666 13.6192C6.95368 13.819 6.76891 13.777 6.67612 14.2116L6.66864 14.2509C6.49519 15.1638 6.97042 16.1216 7.96705 16.1869C8.63861 16.2073 9.29458 15.6245 9.31248 14.9422C9.33138 14.2225 8.75952 13.6322 8.38279 13.0708L8.1403 12.6825C8.10086 12.6141 8.06627 12.5355 8.02179 12.471Z" fill="#8A184F"/>
</svg>
