<svg width="19" height="26" viewBox="0 0 19 26" fill="none" xmlns="http://www.w3.org/2000/svg">
<path d="M9.20768 2.16663C6.21614 2.16663 3.79102 4.59175 3.79102 7.58329C3.79102 9.58822 4.8803 11.3387 6.49935 12.2753V19.33C6.49935 20.2157 6.49935 20.6585 6.66428 21.0566C6.8292 21.4548 7.14232 21.7679 7.76855 22.3942L9.20768 23.8333L11.4916 21.5494C11.5969 21.4441 11.6496 21.3914 11.6933 21.3342C11.808 21.1842 11.8815 21.0067 11.9065 20.8195C11.916 20.7482 11.916 20.6737 11.916 20.5247C11.916 20.4041 11.916 20.3438 11.9096 20.2853C11.8929 20.1317 11.8435 19.9835 11.7647 19.8506C11.7347 19.7999 11.6985 19.7516 11.6262 19.6552L10.291 17.875L11.0493 16.8638C11.4789 16.2911 11.6936 16.0048 11.8048 15.6712C11.916 15.3377 11.916 14.9797 11.916 14.2638V12.2753C13.5351 11.3387 14.6243 9.58822 14.6243 7.58329C14.6243 4.59175 12.1992 2.16663 9.20768 2.16663Z" stroke="#8A184F" stroke-linejoin="round"/>
<path d="M9.20801 7.58337H9.21774" stroke="#8A184F" stroke-linecap="round" stroke-linejoin="round"/>
</svg>
