<svg width="30" height="22" viewBox="0 0 30 22" fill="none" xmlns="http://www.w3.org/2000/svg">
<path d="M24.7456 22H10.0835C9.99323 22 9.90432 21.9729 9.82916 21.923L4.32893 18.2531C4.20153 18.1679 4.125 18.0249 4.125 17.8718V8.25169C4.125 7.99826 4.32985 7.79341 4.58328 7.79341H6.21291L9.28381 4.28027C9.37043 4.18082 9.49691 4.12354 9.6289 4.12354H20.1628C20.2701 4.12354 20.3741 4.16111 20.4566 4.22985L23.0784 6.41721H24.7456C24.999 6.41721 25.2039 6.62206 25.2039 6.87548V21.5417C25.2039 21.7951 24.999 22 24.7456 22ZM10.2224 21.0834H24.2873V7.33376H22.9125C22.8053 7.33376 22.7012 7.29618 22.6187 7.22744L19.9965 5.04055H9.83649L6.76559 8.55369C6.67897 8.65314 6.55249 8.71042 6.4205 8.71042H5.04109V17.6266L10.2224 21.0834Z" fill="#8A184F"/>
<path d="M11.9159 14.208C10.1475 14.208 8.70801 12.7685 8.70801 11C8.70801 9.23156 10.1475 7.79211 11.9159 7.79211C13.6844 7.79211 15.1239 9.23156 15.1239 11C15.1239 12.7685 13.6844 14.208 11.9159 14.208ZM11.9159 8.70867C10.6525 8.70867 9.62456 9.73658 9.62456 11C9.62456 12.2635 10.6525 13.2914 11.9159 13.2914C13.1794 13.2914 14.2073 12.2635 14.2073 11C14.2073 9.73658 13.1794 8.70867 11.9159 8.70867Z" fill="#8A184F"/>
<path d="M11.9161 12.8331C10.9052 12.8331 10.083 12.0109 10.083 11C10.083 9.98902 10.9052 9.16687 11.9161 9.16687C12.9271 9.16687 13.7492 9.98902 13.7492 11C13.7492 12.0109 12.9271 12.8331 11.9161 12.8331ZM11.9161 10.0834C11.4106 10.0834 10.9996 10.4945 10.9996 11C10.9996 11.5055 11.4106 11.9165 11.9161 11.9165C12.4216 11.9165 12.8327 11.5055 12.8327 11C12.8327 10.4945 12.4211 10.0834 11.9161 10.0834Z" fill="#8A184F"/>
<path d="M19.2481 18.7907C18.2372 18.7907 17.415 17.9686 17.415 16.9576C17.415 15.9467 18.2372 15.1245 19.2481 15.1245C20.2591 15.1245 21.0812 15.9467 21.0812 16.9576C21.0812 17.9686 20.2591 18.7907 19.2481 18.7907ZM19.2481 16.0411C18.7427 16.0411 18.3316 16.4521 18.3316 16.9576C18.3316 17.4631 18.7427 17.8742 19.2481 17.8742C19.7536 17.8742 20.1647 17.4631 20.1647 16.9576C20.1647 16.4521 19.7532 16.0411 19.2481 16.0411Z" fill="#8A184F"/>
<path d="M20.2719 16.4994C20.1478 16.4994 20.0245 16.4494 19.9347 16.3509L13.6531 9.50563C13.4817 9.31957 13.494 9.02948 13.681 8.85855C13.8666 8.68715 14.1576 8.69907 14.3281 8.8865L20.6097 15.7318C20.7811 15.9178 20.7687 16.2079 20.5817 16.3789C20.4942 16.4595 20.3833 16.4994 20.2719 16.4994Z" fill="#8A184F"/>
<path d="M18.5414 18.5955C18.4617 18.5955 18.381 18.5748 18.3077 18.5309L10.1609 13.685C9.94278 13.5558 9.87175 13.2744 10.001 13.0572C10.1302 12.8391 10.4116 12.7671 10.6288 12.8973L18.7756 17.7431C18.9937 17.8723 19.0648 18.1537 18.9355 18.3709C18.8503 18.5153 18.6977 18.5955 18.5414 18.5955Z" fill="#8A184F"/>
<path d="M1.83523 9.16553C1.5818 9.16553 1.37695 8.96068 1.37695 8.70725C1.37695 7.69629 2.1991 6.87415 3.21006 6.87415C3.46348 6.87415 3.66833 7.07899 3.66833 7.33242C3.66833 7.58585 3.46348 7.7907 3.21006 7.7907C2.70458 7.7907 2.29351 8.20177 2.29351 8.70725C2.29351 8.96068 2.08866 9.16553 1.83523 9.16553Z" fill="#8A184F"/>
<path d="M3.21006 19.2472C2.1991 19.2472 1.37695 18.425 1.37695 17.4141C1.37695 17.1607 1.5818 16.9558 1.83523 16.9558C2.08866 16.9558 2.29351 17.1607 2.29351 17.4141C2.29351 17.9196 2.70458 18.3306 3.21006 18.3306C3.46348 18.3306 3.66833 18.5355 3.66833 18.7889C3.66833 19.0423 3.46348 19.2472 3.21006 19.2472Z" fill="#8A184F"/>
<path d="M1.83523 17.8723C1.5818 17.8723 1.37695 17.6675 1.37695 17.414V8.70266C1.37695 8.44923 1.5818 8.24438 1.83523 8.24438C2.08866 8.24438 2.29351 8.44923 2.29351 8.70266V17.414C2.29351 17.6675 2.08866 17.8723 1.83523 17.8723Z" fill="#8A184F"/>
<path d="M3.21023 19.2471C2.9568 19.2471 2.75195 19.0423 2.75195 18.7888V7.32644C2.75195 7.07301 2.9568 6.86816 3.21023 6.86816C3.46366 6.86816 3.66851 7.07301 3.66851 7.32644V18.7888C3.66851 19.0423 3.46366 19.2471 3.21023 19.2471Z" fill="#8A184F"/>
<path d="M4.58414 12.834H3.21023C2.9568 12.834 2.75195 12.6292 2.75195 12.3758C2.75195 12.1223 2.9568 11.9175 3.21023 11.9175H4.58414C4.83757 11.9175 5.04242 12.1223 5.04242 12.3758C5.04242 12.6292 4.83757 12.834 4.58414 12.834Z" fill="#8A184F"/>
<path d="M4.58414 14.2088H3.21023C2.9568 14.2088 2.75195 14.0039 2.75195 13.7505C2.75195 13.4971 2.9568 13.2922 3.21023 13.2922H4.58414C4.83757 13.2922 5.04242 13.4971 5.04242 13.7505C5.04242 14.0039 4.83757 14.2088 4.58414 14.2088Z" fill="#8A184F"/>
<path d="M1.83402 14.2079H0.458276C0.204849 14.2079 0 14.0031 0 13.7497V12.3758C0 12.1223 0.204849 11.9175 0.458276 11.9175H1.83402C2.08745 11.9175 2.2923 12.1223 2.2923 12.3758V13.7497C2.2923 14.0031 2.08745 14.2079 1.83402 14.2079ZM0.916552 13.2914H1.37574V12.834H0.916552V13.2914Z" fill="#8A184F"/>
<path d="M20.1651 3.66758H9.62288C8.86489 3.66758 8.24805 3.05074 8.24805 2.29276V1.37483C8.24805 0.616839 8.86489 0 9.62288 0H20.1651C20.923 0 21.5399 0.616839 21.5399 1.37483V2.29276C21.5399 3.05074 20.923 3.66758 20.1651 3.66758ZM9.62288 0.916552C9.36991 0.916552 9.1646 1.12186 9.1646 1.37483V2.29276C9.1646 2.54572 9.36991 2.75103 9.62288 2.75103H20.1651C20.418 2.75103 20.6233 2.54572 20.6233 2.29276V1.37483C20.6233 1.12186 20.418 0.916552 20.1651 0.916552H9.62288Z" fill="#8A184F"/>
<path d="M11.4583 5.04007C11.2048 5.04007 11 4.83522 11 4.58179V3.20925C11 2.95583 11.2048 2.75098 11.4583 2.75098C11.7117 2.75098 11.9166 2.95583 11.9166 3.20925V4.58179C11.9166 4.83522 11.7117 5.04007 11.4583 5.04007Z" fill="#8A184F"/>
<path d="M18.3303 5.04007C18.0769 5.04007 17.8721 4.83522 17.8721 4.58179V3.20925C17.8721 2.95583 18.0769 2.75098 18.3303 2.75098C18.5838 2.75098 18.7886 2.95583 18.7886 3.20925V4.58179C18.7886 4.83522 18.5838 5.04007 18.3303 5.04007Z" fill="#8A184F"/>
<path d="M28.871 20.1655H26.1214C25.8679 20.1655 25.6631 19.9607 25.6631 19.7073V8.70864C25.6631 8.45522 25.8679 8.25037 26.1214 8.25037H28.871C29.1244 8.25037 29.3293 8.45522 29.3293 8.70864V19.7073C29.3293 19.9607 29.1244 20.1655 28.871 20.1655ZM26.5796 19.249H28.4127V9.16692H26.5796V19.249Z" fill="#8A184F"/>
<path d="M26.1221 18.7907H24.7464C24.4929 18.7907 24.2881 18.5858 24.2881 18.3324C24.2881 18.079 24.4929 17.8741 24.7464 17.8741H26.1221C26.3755 17.8741 26.5804 18.079 26.5804 18.3324C26.5804 18.5858 26.3755 18.7907 26.1221 18.7907Z" fill="#8A184F"/>
<path d="M26.1221 10.5418H24.7464C24.4929 10.5418 24.2881 10.3369 24.2881 10.0835C24.2881 9.83009 24.4929 9.62524 24.7464 9.62524H26.1221C26.3755 9.62524 26.5804 9.83009 26.5804 10.0835C26.5804 10.3369 26.3755 10.5418 26.1221 10.5418Z" fill="#8A184F"/>
</svg>
