<svg width="26" height="26" viewBox="0 0 26 26" fill="none" xmlns="http://www.w3.org/2000/svg">
<path d="M14.7526 23.1475C14.2827 23.5874 13.6548 23.8333 13.0012 23.8333C12.3477 23.8333 11.7197 23.5874 11.2499 23.1475C6.94744 19.0948 1.18166 14.5675 3.99346 7.9946C5.51377 4.44071 9.16321 2.16663 13.0012 2.16663C16.8392 2.16663 20.4886 4.44071 22.009 7.9946C24.8172 14.5592 19.0656 19.1087 14.7526 23.1475Z" stroke="#8A184F"/>
<path d="M16.7913 11.9167C16.7913 14.0107 15.0938 15.7083 12.9997 15.7083C10.9056 15.7083 9.20801 14.0107 9.20801 11.9167C9.20801 9.82259 10.9056 8.125 12.9997 8.125C15.0938 8.125 16.7913 9.82259 16.7913 11.9167Z" stroke="#8A184F"/>
</svg>
