<svg width="14" height="14" viewBox="0 0 14 14" fill="none" xmlns="http://www.w3.org/2000/svg">
<path d="M7 4.375C6.6519 4.375 6.31806 4.51328 6.07192 4.75942C5.82578 5.00556 5.6875 5.3394 5.6875 5.6875C5.6875 6.0356 5.82578 6.36944 6.07192 6.61558C6.31806 6.86172 6.6519 7 7 7C7.3481 7 7.68194 6.86172 7.92808 6.61558C8.17422 6.36944 8.3125 6.0356 8.3125 5.6875C8.3125 5.3394 8.17422 5.00556 7.92808 4.75942C7.68194 4.51328 7.3481 4.375 7 4.375Z" fill="#8A184F"/>
<path fill-rule="evenodd" clip-rule="evenodd" d="M1 2.84375C1 2.23942 1.49 1.75 2.09375 1.75H12.1562C12.76 1.75 13.25 2.24 13.25 2.84375V8.53125C13.25 9.13558 12.76 9.625 12.1562 9.625H2.09375C1.95012 9.625 1.80789 9.59671 1.67519 9.54174C1.54249 9.48678 1.42192 9.40621 1.32035 9.30465C1.21879 9.20308 1.13822 9.08251 1.08326 8.94981C1.02829 8.81711 1 8.67488 1 8.53125V2.84375ZM4.9375 5.6875C4.9375 5.10734 5.16797 4.55094 5.5782 4.1407C5.98844 3.73047 6.54484 3.5 7.125 3.5C7.70516 3.5 8.26156 3.73047 8.6718 4.1407C9.08203 4.55094 9.3125 5.10734 9.3125 5.6875C9.3125 6.26766 9.08203 6.82406 8.6718 7.2343C8.26156 7.64453 7.70516 7.875 7.125 7.875C6.54484 7.875 5.98844 7.64453 5.5782 7.2343C5.16797 6.82406 4.9375 6.26766 4.9375 5.6875ZM11.0625 5.25C10.9465 5.25 10.8352 5.29609 10.7531 5.37814C10.6711 5.46019 10.625 5.57147 10.625 5.6875V5.69217C10.625 5.93367 10.821 6.12967 11.0625 6.12967H11.0672C11.1832 6.12967 11.2945 6.08357 11.3765 6.00153C11.4586 5.91948 11.5047 5.8082 11.5047 5.69217V5.6875C11.5047 5.57147 11.4586 5.46019 11.3765 5.37814C11.2945 5.29609 11.1832 5.25 11.0672 5.25H11.0625ZM2.75 5.6875C2.75 5.57147 2.79609 5.46019 2.87814 5.37814C2.96019 5.29609 3.07147 5.25 3.1875 5.25H3.19217C3.3082 5.25 3.41948 5.29609 3.50153 5.37814C3.58357 5.46019 3.62967 5.57147 3.62967 5.6875V5.69217C3.62967 5.8082 3.58357 5.91948 3.50153 6.00153C3.41948 6.08357 3.3082 6.12967 3.19217 6.12967H3.1875C3.07147 6.12967 2.96019 6.08357 2.87814 6.00153C2.79609 5.91948 2.75 5.8082 2.75 5.69217V5.6875Z" fill="#8A184F"/>
<path d="M1.3125 10.5C1.19647 10.5 1.08519 10.5461 1.00314 10.6281C0.921094 10.7102 0.875 10.8215 0.875 10.9375C0.875 11.0535 0.921094 11.1648 1.00314 11.2469C1.08519 11.3289 1.19647 11.375 1.3125 11.375C4.4625 11.375 7.51333 11.7962 10.4125 12.5854C11.1067 12.7744 11.8125 12.2599 11.8125 11.5237V10.9375C11.8125 10.8215 11.7664 10.7102 11.6844 10.6281C11.6023 10.5461 11.491 10.5 11.375 10.5H1.3125Z" fill="#8A184F"/>
</svg>
