<svg width="22" height="22" viewBox="0 0 22 22" fill="none" xmlns="http://www.w3.org/2000/svg">
<path d="M14.7812 2.75H6.53125C5.39378 2.75 4.46875 3.67503 4.46875 4.8125C4.46875 5.31197 4.6475 5.77019 4.94381 6.12734C4.94519 6.12906 4.94553 6.13147 4.94691 6.13319L7.54634 9.25203C7.56869 9.27884 7.59172 9.31563 7.61406 9.35034C7.37 9.59853 7.21875 9.93781 7.21875 10.3125C7.21875 10.8195 7.49753 11.2578 7.90625 11.496V16.1562C7.90625 17.6725 9.13997 18.9062 10.6562 18.9062C12.1725 18.9062 13.4062 17.6725 13.4062 16.1562V11.496C13.815 11.2578 14.0938 10.8192 14.0938 10.3125C14.0938 9.93781 13.9425 9.59853 13.6988 9.35034C13.7215 9.31528 13.7445 9.27884 13.7668 9.25203L16.3659 6.13319C16.3673 6.13147 16.3677 6.12906 16.369 6.12734C16.665 5.77019 16.8438 5.31197 16.8438 4.8125C16.8438 3.67503 15.9187 2.75 14.7812 2.75ZM5.15625 4.8125C5.15625 4.05419 5.77294 3.4375 6.53125 3.4375C7.28956 3.4375 7.90625 4.05419 7.90625 4.8125C7.90625 5.57081 7.28956 6.1875 6.53125 6.1875C5.77294 6.1875 5.15625 5.57081 5.15625 4.8125ZM7.90625 10.3125C7.90625 9.93334 8.21459 9.625 8.59375 9.625C8.97291 9.625 9.28125 9.93334 9.28125 10.3125C9.28125 10.6917 8.97291 11 8.59375 11C8.21459 11 7.90625 10.6917 7.90625 10.3125ZM10.6562 18.2188C9.51878 18.2188 8.59375 17.2937 8.59375 16.1562C8.59375 15.0188 9.51878 14.0938 10.6562 14.0938C11.7937 14.0938 12.7188 15.0188 12.7188 16.1562C12.7188 17.2937 11.7937 18.2188 10.6562 18.2188ZM12.7188 11C12.3396 11 12.0312 10.6917 12.0312 10.3125C12.0312 9.93334 12.3396 9.625 12.7188 9.625C13.0979 9.625 13.4062 9.93334 13.4062 10.3125C13.4062 10.6917 13.0979 11 12.7188 11ZM13.2388 8.81169C13.1931 8.86634 13.1491 8.93166 13.1062 9.00006C12.9827 8.96328 12.8545 8.9375 12.7188 8.9375C11.9604 8.9375 11.3438 9.55419 11.3438 10.3125C11.3438 11.0708 11.9604 11.6875 12.7188 11.6875V14.3437C12.2145 13.7706 11.4778 13.4062 10.6562 13.4062C9.83469 13.4062 9.09803 13.7706 8.59375 14.3437V11.6875C9.35206 11.6875 9.96875 11.0708 9.96875 10.3125C9.96875 9.55419 9.35206 8.9375 8.59375 8.9375C8.45797 8.9375 8.32975 8.96328 8.20634 9.00006C8.16337 8.93166 8.11938 8.86634 8.074 8.81169L6.45734 6.87122C6.48175 6.87191 6.5065 6.875 6.53125 6.875C7.66872 6.875 8.59375 5.94997 8.59375 4.8125C8.59375 4.28416 8.39231 3.80256 8.06437 3.4375H13.2481C12.9202 3.80291 12.7188 4.28416 12.7188 4.8125C12.7188 5.94997 13.6438 6.875 14.7812 6.875C14.8063 6.875 14.8307 6.87191 14.8555 6.87122L13.2388 8.81169ZM14.7812 6.1875C14.0229 6.1875 13.4062 5.57081 13.4062 4.8125C13.4062 4.05419 14.0229 3.4375 14.7812 3.4375C15.5396 3.4375 16.1562 4.05419 16.1562 4.8125C16.1562 5.57081 15.5396 6.1875 14.7812 6.1875Z" fill="#8A184F"/>
<path d="M10.6562 14.7812C9.89794 14.7812 9.28125 15.3979 9.28125 16.1562C9.28125 16.9146 9.89794 17.5312 10.6562 17.5312C11.4146 17.5312 12.0312 16.9146 12.0312 16.1562C12.0312 15.3979 11.4146 14.7812 10.6562 14.7812ZM10.6562 16.8438C10.2771 16.8438 9.96875 16.5354 9.96875 16.1562C9.96875 15.7771 10.2771 15.4688 10.6562 15.4688C11.0354 15.4688 11.3438 15.7771 11.3438 16.1562C11.3438 16.5354 11.0354 16.8438 10.6562 16.8438Z" fill="#8A184F"/>
<path d="M20.145 3.26969L18.7704 0.863787C18.5545 0.484975 18.1183 0.274943 17.6724 0.363975L17.0317 0.492193C16.8203 0.151537 16.4146 -0.0423378 16.0283 0.00819346L10.6561 0.679537L5.28573 0.00784971C4.88285 -0.0423378 4.49064 0.151537 4.28026 0.49185L3.63985 0.363631C3.19401 0.273912 2.75745 0.484631 2.54226 0.863443L1.16726 3.26969C0.963074 3.62685 0.990574 4.07063 1.23773 4.39994L1.78807 5.13385C1.65573 5.4831 1.72173 5.88597 1.96923 6.17369L5.84364 10.6648V12.6352L5.45829 13.0205C5.26373 13.2154 5.15614 13.4746 5.15614 13.7499V14.0937H4.46864C3.90007 14.0937 3.43739 14.5564 3.43739 15.1249V17.8749C3.43739 18.4435 3.90007 18.9062 4.46864 18.9062H5.15614V19.2499C5.15614 19.8185 5.61882 20.2812 6.18739 20.2812H7.56239V20.9687C7.56239 21.5373 8.02507 21.9999 8.59364 21.9999H12.7186C13.2872 21.9999 13.7499 21.5373 13.7499 20.9687V20.2812H15.1249C15.6934 20.2812 16.1561 19.8185 16.1561 19.2499V18.9062H16.8436C17.4122 18.9062 17.8749 18.4435 17.8749 17.8749V15.1249C17.8749 14.5564 17.4122 14.0937 16.8436 14.0937H16.1561V13.7499C16.1561 13.4746 16.0485 13.2154 15.854 13.0209L15.4686 12.6355V10.6651L19.3434 6.17369C19.5909 5.88632 19.6565 5.48276 19.5242 5.13419L20.0745 4.40029C20.3217 4.07063 20.3492 3.62685 20.145 3.26969ZM5.15614 18.2187H4.46864C4.27889 18.2187 4.12489 18.0647 4.12489 17.8749V15.1249C4.12489 14.9352 4.27889 14.7812 4.46864 14.7812H5.15614V18.2187ZM16.1561 14.7812H16.8436C17.0334 14.7812 17.1874 14.9352 17.1874 15.1249V17.8749C17.1874 18.0647 17.0334 18.2187 16.8436 18.2187H16.1561V14.7812ZM1.78773 3.98779C1.70523 3.87813 1.69595 3.72997 1.76401 3.61069L3.13936 1.2041C3.2112 1.07794 3.35901 1.00988 3.50476 1.03807L3.93479 1.12401L2.13973 4.45769L1.78773 3.98779ZM13.0624 20.9687C13.0624 21.1584 12.9084 21.3124 12.7186 21.3124H8.59364C8.40389 21.3124 8.24989 21.1584 8.24989 20.9687V20.2812H13.0624V20.9687ZM18.8229 5.72441L14.8647 10.3124C14.8107 10.375 14.7811 10.4544 14.7811 10.5369V12.7778C14.7811 12.8693 14.8172 12.9566 14.8819 13.0209L15.3679 13.5069C15.4322 13.5708 15.4686 13.6595 15.4686 13.7499V19.2499C15.4686 19.4397 15.3146 19.5937 15.1249 19.5937H6.18739C5.99764 19.5937 5.84364 19.4397 5.84364 19.2499V13.7499C5.84364 13.6595 5.88007 13.5708 5.94435 13.5069L6.43042 13.0209C6.49504 12.9562 6.53114 12.8693 6.53114 12.7778V10.5369C6.53114 10.4544 6.50157 10.3747 6.44761 10.3124L2.48967 5.72476C2.39685 5.61716 2.38036 5.46144 2.44739 5.33666L4.85364 0.867912C4.91345 0.756537 5.02929 0.687443 5.15579 0.687443C5.16954 0.687443 5.18329 0.688131 5.19876 0.690193L10.6135 1.36704C10.6417 1.37047 10.6706 1.37047 10.6988 1.36704L16.1152 0.690193C16.2558 0.6706 16.3923 0.744506 16.4586 0.868256L18.8652 5.33735C18.9319 5.46179 18.9151 5.61751 18.8229 5.72441ZM19.5249 3.98779L19.1725 4.45769L17.3775 1.12401L17.8075 1.03807C17.9529 1.00954 18.1011 1.0776 18.1733 1.20444L19.5483 3.61069C19.616 3.72997 19.607 3.87779 19.5249 3.98779Z" fill="#8A184F"/>
<path d="M14.7812 5.15625C14.9711 5.15625 15.125 5.00235 15.125 4.8125C15.125 4.62265 14.9711 4.46875 14.7812 4.46875C14.5914 4.46875 14.4375 4.62265 14.4375 4.8125C14.4375 5.00235 14.5914 5.15625 14.7812 5.15625Z" fill="#8A184F"/>
<path d="M6.53125 5.15625C6.7211 5.15625 6.875 5.00235 6.875 4.8125C6.875 4.62265 6.7211 4.46875 6.53125 4.46875C6.3414 4.46875 6.1875 4.62265 6.1875 4.8125C6.1875 5.00235 6.3414 5.15625 6.53125 5.15625Z" fill="#8A184F"/>
</svg>
