<svg width="210" height="234" viewBox="0 0 210 234" fill="none" xmlns="http://www.w3.org/2000/svg">
<path opacity="0.15" d="M0 105C0 47.0101 47.0101 0 105 0C162.99 0 210 47.0101 210 105C210 162.99 162.99 210 105 210C47.0101 210 0 162.99 0 105Z" fill="#4C0B2E"/>
<circle opacity="0.4" cx="48.5" cy="59.5" r="3.5" fill="#B1B1B1"/>
<circle opacity="0.8" cx="181" cy="111" r="4" fill="#4C0B2E"/>
<path d="M162.47 93.0575H104.941C101.335 93.0575 98.4121 90.1355 98.4121 86.5295C98.4121 82.9235 101.335 80.0005 104.941 80.0005H162.47C166.076 80.0005 168.999 82.9235 168.999 86.5295C168.999 90.1355 166.076 93.0575 162.47 93.0575Z" fill="white"/>
<path d="M110.048 86.5293C110.048 89.3133 107.791 91.5713 105.007 91.5713C102.222 91.5713 99.9648 89.3133 99.9648 86.5293C99.9648 83.7443 102.222 81.4873 105.007 81.4873C107.791 81.4873 110.048 83.7443 110.048 86.5293Z" fill="#4C0B2E"/>
<path d="M105.868 86.9055C106.014 86.8675 106.121 86.8424 106.227 86.8105C106.415 86.7535 106.596 86.7745 106.76 86.8744C107.45 87.2935 108.137 87.7165 108.823 88.1425C108.856 88.1634 108.866 88.2205 108.909 88.3045C108.748 88.7774 108.489 89.2185 108.106 89.5735C107.644 89.3955 106.112 88.4134 105.628 87.9885C105.608 87.8625 105.584 87.7145 105.55 87.5055C105.355 87.7145 105.21 87.8915 105.044 88.0445C104.344 88.6934 103.54 88.9324 102.621 88.5924C101.898 88.3245 101.438 87.7794 101.23 87.0585C100.967 86.1455 101.104 85.2724 101.678 84.4944C102.283 83.6735 103.283 83.3075 104.178 83.5675C105.098 83.8355 105.772 84.6465 105.863 85.6415C105.898 86.0275 105.868 86.4205 105.868 86.9055ZM101.698 86.2155C101.697 86.7385 101.855 87.2044 102.153 87.5585C102.614 88.1055 103.371 88.2924 104.035 88.0234C105.358 87.4855 105.749 85.5275 104.719 84.5425C104.274 84.1165 103.748 83.9645 103.13 84.1474C102.241 84.4095 101.65 85.4105 101.698 86.2155ZM107.948 88.8365C108.029 88.6625 108.081 88.5514 108.129 88.4495C107.342 87.8525 106.595 87.4205 106.406 87.4905C106.377 87.5505 106.331 87.6415 106.27 87.7635C106.81 88.1345 107.327 88.4694 107.948 88.8365Z" fill="#24232B"/>
<path d="M101.698 86.2156C101.65 85.4106 102.241 84.4096 103.13 84.1476C103.748 83.9646 104.274 84.1166 104.719 84.5426C105.749 85.5276 105.358 87.4856 104.035 88.0236C103.371 88.2926 102.614 88.1056 102.153 87.5586C101.855 87.2046 101.697 86.7386 101.698 86.2156Z" fill="white"/>
<path d="M107.948 88.8363C107.327 88.4693 106.81 88.1343 106.27 87.7633C106.331 87.6414 106.377 87.5503 106.406 87.4904C106.595 87.4203 107.342 87.8524 108.129 88.4494C108.081 88.5513 108.029 88.6623 107.948 88.8363Z" fill="white"/>
<path d="M98.4121 105.418C98.4121 100.769 102.181 97.001 106.829 97.001H160.581C165.23 97.001 168.998 100.769 168.998 105.418V121.163C168.998 125.811 165.23 129.58 160.581 129.58H106.829C102.181 129.58 98.4121 125.811 98.4121 121.163V105.418Z" fill="#4C0B2E"/>
<path d="M98.4121 141.874C98.4121 137.226 102.18 133.458 106.829 133.458H160.581C165.23 133.458 168.998 137.226 168.998 141.875V157.62C168.998 162.268 165.23 166.036 160.582 166.036H106.829C102.181 166.036 98.4121 162.268 98.4121 157.619V141.874Z" fill="white"/>
<path d="M98.4121 179.874C98.4121 175.226 102.18 171.458 106.828 171.458H160.582C165.231 171.458 168.999 175.226 168.999 179.875V195.62C168.999 200.268 165.231 204.036 160.583 204.036H106.829C102.181 204.036 98.4121 200.268 98.4121 195.619V179.874Z" fill="white"/>
<path d="M114.906 120.24C114.489 120.24 114.069 120.203 113.658 120.13C111.312 119.717 109.708 118.346 108.89 116.061C108.081 113.799 108.505 111.582 110.118 109.65C111.418 108.093 113.122 107.293 115.182 107.278L115.268 107.276C117.488 107.276 119.511 108.399 120.681 110.281C121.87 112.193 121.955 114.503 120.915 116.614C119.812 118.852 117.509 120.24 114.906 120.24Z" fill="#4DC985"/>
<path d="M112.067 113.131C112.964 113.32 113.403 114.115 114.23 114.443C114.375 114.322 114.573 114.193 114.726 114.025C115.615 113.036 116.491 112.036 117.375 111.044C117.587 110.804 117.813 110.576 117.984 110.392C118.378 110.267 118.609 110.36 118.726 110.66C118.726 110.758 118.75 110.849 118.722 110.914C118.658 111.061 118.587 111.211 118.483 111.328C117.313 112.658 116.138 113.987 114.953 115.305C114.798 115.475 114.574 115.583 114.404 115.703C114.234 115.671 114.091 115.685 114.004 115.621C113.297 115.092 112.592 114.56 111.907 114.004C111.666 113.808 111.716 113.604 112.067 113.131Z" fill="white"/>
<path opacity="0.1" d="M102.902 228.656C102.902 231.608 89.175 234 72.243 234C55.31 234 41.584 231.608 41.584 228.656C41.584 225.706 55.31 223.314 72.243 223.314C89.175 223.314 102.902 225.706 102.902 228.656Z" fill="black"/>
<path d="M58.9994 227.062C57.8954 227.106 56.8524 227.082 55.8104 227.057C52.7414 226.981 49.6674 227.039 46.6494 226.84C46.5814 226.775 46.5534 226.758 46.5414 226.735C46.5304 226.71 46.5294 226.677 46.5334 226.649C46.8234 224.903 47.1144 223.157 47.4084 221.412C47.4174 221.36 47.4674 221.314 47.5354 221.207C47.8064 221.178 48.1204 221.121 48.4354 221.113C50.0614 221.071 51.6874 221.028 53.3134 221.014C53.6824 221.011 54.0634 221.089 54.4214 221.19C55.4644 221.486 56.4244 221.958 57.2794 222.631C57.8334 223.068 58.3074 223.577 58.6464 224.196C59.1214 225.066 59.3074 225.978 58.9994 227.062Z" fill="#858585"/>
<path d="M82.3835 226.859C82.2435 225.3 82.2925 223.85 82.1855 222.371C82.3035 222.334 82.4075 222.27 82.5105 222.272C84.5125 222.328 86.4465 221.996 88.3455 221.248C90.4735 221.609 92.4605 222.358 94.1845 223.737C94.7815 224.215 95.2645 224.795 95.6865 225.425C95.9445 225.81 96.1675 226.221 96.1455 226.773C95.9155 226.794 95.6925 226.833 95.4695 226.833C93.6665 226.838 91.8635 226.834 90.0595 226.838C87.8205 226.842 85.5805 226.852 83.3415 226.859C83.0525 226.86 82.7645 226.859 82.3835 226.859Z" fill="#858585"/>
<path d="M98.9054 115.819C98.8084 116.011 98.8514 116.175 99.0094 116.287C99.1494 116.388 99.3184 116.446 99.4644 116.539C100.051 116.913 100.642 117.282 101.216 117.676C101.502 117.873 101.766 118.109 101.841 118.532C101.755 118.932 101.516 119.3 101.226 119.621C100.74 120.159 100.226 120.672 99.7124 121.184C99.5074 121.387 99.2834 121.577 99.0474 121.744C98.4554 122.162 98.1824 122.707 98.1814 123.446C98.1794 123.989 98.1994 124.551 98.0084 125.076C97.4314 125.18 94.9574 125.171 94.2344 125.055C94.2704 124.751 94.3014 124.442 94.3424 124.133C94.5014 122.954 94.6594 121.775 94.8254 120.596C94.9514 119.705 95.0984 118.817 95.2214 117.926C95.3054 117.323 95.5884 116.83 96.0114 116.411C96.2374 116.185 96.4764 115.972 96.7234 115.77C98.2854 114.496 100.028 113.51 101.807 112.581C102.087 112.434 102.398 112.343 102.702 112.249C102.796 112.22 102.913 112.265 103.028 112.278C102.954 112.629 102.707 112.804 102.494 112.992C101.579 113.799 100.662 114.604 99.7254 115.384C99.4904 115.579 99.1764 115.679 98.9054 115.819Z" fill="#FFC9B5"/>
<path d="M99.2709 126.874C99.2679 126.696 99.2549 126.518 99.2419 126.334L99.2239 126.077C99.2159 125.938 99.1279 125.815 98.9979 125.762C98.5669 125.588 98.1469 125.585 97.7759 125.583C97.6219 125.583 97.4679 125.583 97.3169 125.568C96.8509 125.524 96.3819 125.519 95.9279 125.516L95.6319 125.513C95.6319 125.513 95.2779 125.508 95.1829 125.508C94.8069 125.508 94.3639 125.534 93.9309 125.732C93.8259 125.779 93.7499 125.873 93.7259 125.986L93.6929 126.129C93.6659 126.241 93.6419 126.346 93.6269 126.453C93.5649 126.908 93.5049 127.364 93.4449 127.818L93.2939 128.959C93.2449 129.328 93.1929 129.698 93.1419 130.067C93.0659 130.619 92.9899 131.171 92.9179 131.723C92.7609 132.934 92.6099 134.145 92.4609 135.357C92.4379 135.542 92.4129 135.725 92.3869 135.911C92.2809 136.682 92.1719 137.481 92.2419 138.321C92.2449 138.361 92.2549 138.4 92.2719 138.437C91.4159 137.093 90.5629 135.746 89.7119 134.4C89.4689 134.016 89.2309 133.629 88.9799 133.222L88.6199 132.64C88.5519 132.529 88.4329 132.468 88.3109 132.468C88.2459 132.468 88.1799 132.485 88.1209 132.521C88.0689 132.554 88.0249 132.578 87.9889 132.598C87.9019 132.645 87.8209 132.69 87.7459 132.771C86.5609 134.043 85.1779 135.288 83.5179 136.579C83.4139 136.661 83.3349 136.757 83.2649 136.841C83.2379 136.873 83.2109 136.907 83.1819 136.94C83.0799 137.053 83.0589 137.217 83.1289 137.352L83.2169 137.523C83.2789 137.647 83.3359 137.759 83.4009 137.865L83.8679 138.626C84.6239 139.86 85.3799 141.094 86.1439 142.322C86.8649 143.481 87.7779 144.589 88.8579 145.616C89.7899 146.501 90.7879 147.088 91.9089 147.409C92.2409 147.503 92.5669 147.551 92.8769 147.551C93.2849 147.551 93.6759 147.469 94.0359 147.305C95.2049 146.776 95.9959 145.981 96.3859 144.942C96.5579 144.485 96.6979 144.022 96.8229 143.591C97.2949 141.967 97.6759 140.223 98.0229 138.102C98.3989 135.805 98.7299 133.508 99.0069 131.275C99.2169 129.587 99.3009 128.189 99.2709 126.874Z" fill="#B1B1B1"/>
<path d="M53.1273 140.209C51.5633 137.465 49.9463 134.631 48.1853 131.858L48.6573 131.555C49.2043 131.205 49.7213 130.873 50.2343 130.535C50.4783 130.374 50.7253 130.216 50.9723 130.06C51.4803 129.736 52.0063 129.401 52.5203 129.026C52.6763 128.912 52.7163 128.696 52.6103 128.534C52.4253 128.249 52.2393 127.97 52.0563 127.693C51.6433 127.073 51.2543 126.486 50.8893 125.875C50.5123 125.246 50.1693 124.61 49.8063 123.935C49.6473 123.64 49.4863 123.342 49.3223 123.043C49.2553 122.923 49.1313 122.854 49.0023 122.854C48.9493 122.854 48.8943 122.866 48.8433 122.891C48.7973 122.914 48.7523 122.934 48.7093 122.953C48.6083 122.998 48.5043 123.045 48.4033 123.11L47.2683 123.841C46.0303 124.637 44.7493 125.461 43.5033 126.293C43.0153 126.62 42.5173 127.031 41.9793 127.552C40.9793 128.521 40.7393 129.679 41.2863 130.9L41.3623 131.071C41.6203 131.648 41.8863 132.245 42.2043 132.812L42.7003 133.7C43.4873 135.108 44.3003 136.564 45.1713 137.957C46.3493 139.842 47.5873 141.731 48.7843 143.558C49.2243 144.228 49.6633 144.898 50.1013 145.57C50.1913 145.707 50.2973 145.823 50.3913 145.925C50.4273 145.964 50.4633 146.003 50.4963 146.041C50.5663 146.123 50.6673 146.168 50.7723 146.168C50.8053 146.168 50.8393 146.164 50.8713 146.154C51.9633 145.844 53.9413 144.562 54.7913 143.612C54.8953 143.495 54.9133 143.324 54.8343 143.187C54.2623 142.198 53.6953 141.205 53.1273 140.209Z" fill="#B1B1B1"/>
<path d="M55.9228 214.797C53.1218 214.831 50.3948 214.621 47.6638 214.595C47.5848 214.594 47.5068 214.535 47.4378 214.507C47.4188 214.436 47.3838 214.378 47.3918 214.326C50.6528 194.564 53.9158 174.803 57.1668 155.111C57.4108 154.841 57.6518 154.915 57.8768 154.932C59.8188 155.078 61.7608 155.232 63.7028 155.375C65.3558 155.498 67.0088 155.63 68.6628 155.72C70.7248 155.832 72.7888 155.903 74.8508 155.994C75.0808 156.004 75.3088 156.036 75.5758 156.061C75.6788 156.314 75.7818 156.549 75.8698 156.79C76.8878 159.579 77.6868 162.435 78.4108 165.311C79.5738 169.935 80.7188 174.562 81.8388 179.196C82.9188 183.662 83.8508 188.16 84.5998 192.693C85.1268 195.877 85.6508 199.062 86.0908 202.258C86.4718 205.022 86.7328 207.803 87.0438 210.576C87.1348 211.386 87.2298 212.194 87.3018 213.005C87.3298 213.318 87.4118 213.636 87.3158 213.943C87.1178 214.151 86.8718 214.083 86.6478 214.087C85.2818 214.115 83.9138 214.125 82.5468 214.163C81.6178 214.189 80.6888 214.255 79.7588 214.298C79.5588 214.308 79.3578 214.3 79.1158 214.3C79.0728 214.116 79.0088 213.957 79.0028 213.796C78.9168 211.554 78.5768 209.341 78.3088 207.118C77.7568 202.553 76.9508 198.034 76.0308 193.532C75.2848 189.885 74.4668 186.255 73.3828 182.693C72.7828 180.72 72.1298 178.758 71.4088 176.825C70.1178 173.366 68.7638 169.932 67.4248 166.491C67.1398 165.76 66.8128 165.045 66.4898 164.33C66.3828 164.093 66.2448 163.866 66.0918 163.656C65.9398 163.447 65.7188 163.395 65.4058 163.526C65.3518 163.662 65.2488 163.838 65.2138 164.027C64.8528 165.971 64.5028 167.917 64.1498 169.862C63.5438 173.209 62.9378 176.556 62.3288 179.903C61.7778 182.934 61.2228 185.966 60.6708 188.997C60.0448 192.429 59.4198 195.861 58.7968 199.294C58.1908 202.641 57.5878 205.989 56.9828 209.337C56.6828 210.995 56.3828 212.655 56.0788 214.313C56.0528 214.454 55.9918 214.588 55.9228 214.797Z" fill="black"/>
<path d="M88.4927 130.31C87.9427 129.387 87.3987 128.458 86.8307 127.544C85.0507 124.68 83.3117 121.789 81.2297 119.124C79.9007 117.423 78.4447 115.849 76.8367 114.407C75.7157 113.402 74.3827 112.883 72.9577 112.535C72.3277 112.382 71.6907 112.365 71.0507 112.443C69.8627 112.588 68.7117 112.882 67.5907 113.302C64.9457 114.292 62.4067 115.518 59.9037 116.812C58.2787 117.653 56.7007 118.585 55.1137 119.499C53.4767 120.441 51.8527 121.407 50.2287 122.373C50.0137 122.501 49.7427 122.583 49.6387 122.926C51.0417 125.911 52.8277 128.667 55.2867 130.995C56.5607 130.157 57.7937 129.344 59.0487 128.517L59.0667 128.455C59.1557 128.478 59.2467 128.49 59.3377 128.5C59.3967 128.713 59.4897 128.914 59.6177 129.091L59.5877 129.225C59.0387 131.752 58.5297 134.288 58.0387 136.826C57.6197 138.994 57.2447 141.171 56.8627 143.346C56.7477 144.002 56.6737 144.665 56.5857 145.286C56.7667 145.621 56.9077 145.908 57.0717 146.181C57.9897 147.707 57.4307 149.484 56.2797 150.322C56.1397 150.424 56.0097 150.539 55.8417 150.676C55.7137 151.578 55.5707 152.495 55.5207 153.422C55.5117 153.585 55.5357 153.749 55.5457 153.935C55.8547 153.97 56.1117 154.007 56.3707 154.025C58.7767 154.2 61.1827 154.372 63.5887 154.543C65.1837 154.656 66.7777 154.773 68.3727 154.877C69.6197 154.958 70.8677 155.039 72.1167 155.087C73.8267 155.154 75.5387 155.193 77.2497 155.234C77.4097 155.239 77.5717 155.171 77.7217 155.139C77.7467 155.003 77.7747 154.92 77.7767 154.835C77.8307 152.597 77.8867 150.36 77.9347 148.121C77.9817 145.97 78.0197 143.82 78.0627 141.67C78.0837 140.652 78.1017 139.635 78.1347 138.617C78.1357 138.577 78.1337 138.537 78.1317 138.497C78.2147 138.346 78.2747 138.185 78.3147 138.016L78.3187 137.994C78.3817 137.714 78.3857 137.42 78.3297 137.138C78.3187 137.017 78.3087 136.896 78.2967 136.775C78.5607 137.351 78.8197 137.928 79.0667 138.512C79.1287 138.658 79.2517 138.778 79.3447 138.908C79.5027 138.84 79.6147 138.805 79.7147 138.747C82.6737 137.022 85.3597 134.955 87.6697 132.417C88.0797 131.966 88.4697 131.495 88.7957 130.885C88.6807 130.666 88.5957 130.483 88.4927 130.31Z" fill="#4C0B2E"/>
<path d="M74.0847 105.248C73.6337 106.36 73.1437 107.405 72.4607 108.341C72.1157 108.21 72.1457 107.896 72.0307 107.674C71.9117 107.443 71.8487 107.182 71.6187 107.029C71.3877 106.931 71.2057 107.016 71.0817 107.196C70.8347 107.556 70.6137 107.932 70.3717 108.294C70.2147 108.53 70.1427 108.832 69.8807 108.981C69.6987 108.983 69.7127 108.837 69.6807 108.743C69.3067 107.629 68.7357 106.622 68.0357 105.683C67.1227 104.455 66.4787 103.096 66.0967 101.615C65.5727 99.5817 66.5357 97.4137 68.4487 96.5057C69.0547 96.2187 69.3407 95.9297 69.3027 95.2097C69.2487 94.1877 69.8737 93.3827 70.8767 93.0487C71.4517 92.8567 72.0577 92.7337 72.6597 92.6497C74.2837 92.4257 75.8367 91.9507 77.3587 91.3677C78.2597 91.0237 79.0837 90.5337 79.8377 89.9267C80.2007 89.6357 80.5707 89.3467 80.9727 89.1177C81.2947 88.9347 81.6627 88.8207 82.0227 88.7197C82.2187 88.6647 82.4347 88.7287 82.5627 88.9187C82.6947 89.1137 82.6427 89.3087 82.5237 89.4887C82.4167 89.6517 82.2997 89.8087 82.2057 89.9417C82.2867 90.2107 82.4607 90.2267 82.6407 90.2177C83.0757 90.1947 83.5107 90.1447 83.9457 90.1497C84.2617 90.1537 84.5887 90.1897 84.8907 90.2807C85.7017 90.5237 85.9397 91.1087 85.5057 91.8247C85.2977 92.1687 84.9917 92.4527 84.7487 92.7777C84.6547 92.9047 84.6147 93.0707 84.5617 93.1907C84.7827 93.4977 85.0597 93.4467 85.3147 93.4577C85.6687 93.4717 86.0157 93.4977 86.3017 93.8507C86.2757 93.9757 86.2767 94.1547 86.2037 94.2947C85.9687 94.7517 85.5667 95.0427 85.1297 95.2867C84.4407 95.6697 83.7117 95.9587 82.9517 96.1657C81.2147 96.6387 79.4737 97.0997 77.7337 97.5647C77.4807 97.6327 77.2207 97.6767 76.9747 97.7617C76.8467 97.8057 76.7427 97.9147 76.6447 97.9837C76.8067 99.3747 76.8207 100.128 76.6867 100.636C76.3407 102.914 75.8297 104.674 74.0847 105.248Z" fill="black"/>
<path d="M75.6998 109.279C75.2078 110.218 75.2978 111.342 74.9118 112.371C74.2128 112.186 73.5588 111.956 72.8858 111.851C72.2068 111.744 71.5098 111.759 70.8138 111.721C70.7918 111.681 70.7358 111.629 70.7428 111.586C70.8898 110.551 71.2248 109.562 71.4888 108.504C71.8718 108.688 71.7968 109.251 72.2498 109.288C72.5838 109.3 72.7778 109.078 72.9268 108.825C73.3418 108.127 73.7458 107.423 74.1388 106.712C74.3208 106.383 74.4658 106.034 74.6358 105.675H75.3608C75.4078 105.549 75.4528 105.426 75.4878 105.331C75.4198 105.241 75.3948 105.179 75.3488 105.152C75.2508 105.094 75.1438 105.046 75.0368 105.005C74.4188 104.77 74.1548 104.279 74.0798 103.664C73.9818 102.863 74.1358 102.1 74.4828 101.378C74.5678 101.2 74.7028 101.034 74.8438 100.893C75.1848 100.551 75.5588 100.551 75.9218 100.885C76.3608 101.29 76.4688 101.829 76.4808 102.392C76.4858 102.62 76.4408 102.848 76.4218 103.03C76.5618 103.315 76.7418 103.328 77.0158 103.202C77.0688 103.062 77.1668 102.883 77.2048 102.693C77.3878 101.778 77.4468 100.853 77.4198 99.9205C77.4058 99.4045 77.3088 98.8855 77.4318 98.3185C78.3898 98.0765 79.3378 97.8365 80.3368 97.5845C80.3968 97.6765 80.4508 97.7455 80.4908 97.8225C81.7448 100.238 82.1298 102.763 81.4258 105.417C81.1928 106.295 80.8058 107.106 80.2228 107.814C79.5308 108.654 78.6668 109.204 77.5678 109.323C77.2848 109.354 76.9918 109.327 76.7048 109.304C76.3908 109.278 76.0818 109.164 75.6998 109.279Z" fill="#FFC9B5"/>
<path d="M87.785 220.486C87.472 220.826 87.182 220.879 86.907 220.966C85.68 221.354 84.41 221.466 83.136 221.555C82.815 221.577 82.506 221.503 82.18 221.374C81.969 219.27 81.757 217.171 81.541 215.021C82.493 214.802 83.481 214.938 84.451 214.832C85.401 214.727 86.358 214.791 87.341 214.796C87.657 215.764 87.52 216.731 87.632 217.669C87.746 218.613 87.741 219.571 87.785 220.486Z" fill="#FFC9B5"/>
<path d="M52.6399 145.817C53.3499 145.299 54.0269 144.803 54.7079 144.313C54.7749 144.265 54.8659 144.252 54.9949 144.205C55.6299 145.173 56.2669 146.14 56.6939 147.225C57.0219 148.058 56.6699 148.756 56.1879 149.403C56.0529 149.585 55.8579 149.735 55.6649 149.858C54.6839 150.483 53.6769 151.064 52.5809 151.462C52.2049 151.599 51.7959 151.657 51.3979 151.723C51.0989 151.773 50.8149 151.666 50.5759 151.495C49.9979 151.08 49.7159 150.49 49.6509 149.795C49.6309 149.576 49.7329 149.401 49.9389 149.295C50.2019 149.232 50.3729 149.385 50.5419 149.553C50.7249 149.736 50.8969 149.939 51.1099 150.079C51.3219 150.22 51.5529 150.197 51.7199 149.882C51.6679 149.756 51.6109 149.599 51.5379 149.45C51.1469 148.643 51.5189 147.773 52.3789 147.511C52.5979 147.443 52.8259 147.407 53.0679 147.353C53.1449 147.187 53.2159 147.034 53.2979 146.858C53.1989 146.676 53.1109 146.497 53.0049 146.329C52.9009 146.163 52.7779 146.007 52.6399 145.817Z" fill="#FFC9B5"/>
<path d="M53.4401 215.535C53.3931 216.351 53.3091 217.094 53.2131 217.837C53.1161 218.585 53.0381 219.335 52.9481 220.117C52.8121 220.166 52.6831 220.248 52.5511 220.253C51.0121 220.302 49.4731 220.341 47.9331 220.378C47.8521 220.38 47.7691 220.345 47.6901 220.328C47.6691 219.615 48.1961 216.345 48.4811 215.43C49.0111 215.276 49.5601 215.449 50.1041 215.427C50.6551 215.403 51.2091 215.433 51.7601 215.461C52.3021 215.488 52.8531 215.439 53.4401 215.535Z" fill="#FFC9B5"/>
<path opacity="0.1" d="M66.0918 163.656C66.0918 163.656 74.2178 176.543 77.6448 193.931C81.0698 211.319 80.8118 214.772 80.8118 214.772H78.7428C78.7428 214.772 77.5518 188.455 66.0918 163.656Z" fill="black"/>
<path opacity="0.1" d="M80.8125 214.772L87.785 214.421V215.714L81.5402 218.165L80.8125 214.772Z" fill="black"/>
<path opacity="0.1" d="M75.705 155.761L60.147 154.682L61.196 121.808L57.712 126.34C56.555 127.845 54.44 128.215 52.841 127.192L50.889 125.943L49.171 123.118L50.011 130.681L52.79 128.709L55.408 131.489L59.448 128.709L56.475 144.513L56.055 144.933C56.055 144.933 57.412 146.236 55.99 148.026C53.986 150.988 50.308 151.324 50.308 151.324C51.554 153.493 55.344 150.428 55.344 150.428V154.452L56.779 154.709L53.744 173.505L46.957 214.801H48.169L47.689 217.525L53.89 216.215L53.938 215.1L48.848 214.801L58.533 162.384C59.05 159.583 61.427 157.507 64.272 157.372L75.705 156.828L76.143 156.731L75.705 155.761Z" fill="black"/>
<path opacity="0.1" d="M89.348 133.823C89.348 133.823 87.74 137.632 84.583 139.101L82.832 137.177C82.832 137.177 86.565 134.705 88.359 132.232L89.348 133.823Z" fill="black"/>
<path d="M56.3558 99.8557C55.3998 98.4117 54.1328 97.4348 52.5508 96.7377C52.9598 96.3927 53.3138 96.1397 53.6098 95.8327C53.8898 95.5427 54.1378 95.2117 54.3478 94.8667C54.5718 94.4987 54.7348 94.0927 54.9268 93.6978C55.5998 94.1877 56.2418 94.6807 56.9098 95.1328C57.5798 95.5878 58.3718 95.7937 59.1948 96.1237C58.8888 96.4507 58.6308 96.7117 58.3898 96.9897C58.1238 97.2968 57.8628 97.6107 57.6208 97.9357C57.3948 98.2388 57.1978 98.5627 56.9858 98.8747C56.7788 99.1787 56.6668 99.5497 56.3558 99.8557Z" fill="#4C0B2E"/>
<path d="M60.7441 88.5487C61.0121 88.1697 61.2821 87.8297 61.5061 87.4617C61.7291 87.0957 61.9061 86.7017 62.1111 86.3047C62.5861 86.6187 63.0231 86.9537 63.5021 87.2127C63.9581 87.4597 64.4571 87.6257 64.9811 87.8467C64.7851 88.3097 64.3921 88.6307 64.1641 89.0567C63.9361 89.4827 63.7011 89.9047 63.4401 90.3817C63.1551 90.0837 62.9391 89.8117 62.6771 89.5957C62.3881 89.3567 62.0701 89.1467 61.7401 88.9677C61.4381 88.8027 61.1041 88.6967 60.7441 88.5487Z" fill="#4C0B2E"/>
<path d="M60.5359 108.159C60.2589 107.883 60.0209 107.647 59.7559 107.383C59.9749 107.11 60.2049 106.821 60.4709 106.489C60.7459 106.767 61.0009 107.025 61.2629 107.29C61.0549 107.654 60.7709 107.89 60.5359 108.159Z" fill="#4C0B2E"/>
<path d="M60.7071 95.8985C60.5971 96.0195 60.5021 96.1685 60.3681 96.2625C58.5931 97.5065 57.4171 99.1845 56.7421 101.23C56.7071 101.34 56.6791 101.459 56.6151 101.552C56.5531 101.64 56.4531 101.752 56.3631 101.759C56.2401 101.767 56.1111 101.684 55.9601 101.632C56.0421 100.472 55.4131 99.6875 54.6601 98.9725C53.7581 98.1185 52.7051 97.5285 51.5051 97.2025C51.3421 97.1575 51.1831 97.0915 51.0281 97.0215C50.9821 97.0005 50.9581 96.9315 50.9221 96.8825C50.8731 96.6465 51.0111 96.4945 51.1811 96.3785C51.2981 96.2985 51.4421 96.2535 51.5801 96.2085C53.2321 95.6665 54.0221 94.4435 54.2731 92.7975C54.3121 92.5415 54.3201 92.2825 54.3451 91.9865C54.5211 91.9525 54.6761 91.9225 54.8181 91.8945C54.8871 91.9745 54.9431 92.0105 54.9611 92.0605C55.2741 92.9125 55.8711 93.5325 56.5931 94.0455C57.6501 94.7955 58.8001 95.3155 60.1061 95.4545C60.2681 95.4715 60.4311 95.5565 60.5771 95.6395C60.6371 95.6745 60.6531 95.7855 60.7071 95.8985ZM56.3561 99.8555C56.6671 99.5495 56.7791 99.1785 56.9861 98.8745C57.1981 98.5625 57.3951 98.2385 57.6211 97.9355C57.8631 97.6105 58.1241 97.2965 58.3901 96.9895C58.6311 96.7115 58.8891 96.4505 59.1951 96.1235C58.3721 95.7935 57.5801 95.5875 56.9101 95.1325C56.2421 94.6805 55.6001 94.1875 54.9271 93.6975C54.7351 94.0925 54.5721 94.4985 54.3481 94.8665C54.1381 95.2115 53.8901 95.5425 53.6101 95.8325C53.3141 96.1395 52.9601 96.3925 52.5511 96.7375C54.1331 97.4345 55.4001 98.4115 56.3561 99.8555Z" fill="black"/>
<path d="M63.8305 92.0427C63.7275 92.1047 63.6305 92.1637 63.5535 92.2107C63.2905 92.1777 63.1715 92.0337 63.1115 91.8197C63.0485 91.5977 63.0055 91.3647 62.9095 91.1577C62.4045 90.0667 61.5215 89.4837 60.3515 89.3117C60.1225 89.2777 59.8865 89.2937 59.6585 89.2557C59.4455 89.2197 59.2905 89.0937 59.2715 88.8517C59.2955 88.5827 59.5125 88.4727 59.7015 88.3437C60.3175 87.9237 60.7615 87.3587 61.0875 86.6997C61.3345 86.2027 61.5095 85.6847 61.4225 85.1087C61.4035 84.9797 61.4715 84.8367 61.4935 84.7307C61.7355 84.5747 61.9175 84.6147 62.0825 84.7717C62.1245 84.8107 62.1625 84.8577 62.1875 84.9087C62.8255 86.2457 64.0205 86.7727 65.3575 87.0957C65.6375 87.1627 65.9165 87.2317 66.2255 87.3067C66.2675 87.4757 66.3085 87.6347 66.3545 87.8177C64.8715 88.8557 64.1425 90.3257 63.8305 92.0427ZM60.7445 88.5487C61.1045 88.6967 61.4385 88.8027 61.7405 88.9677C62.0705 89.1467 62.3885 89.3567 62.6775 89.5957C62.9395 89.8117 63.1555 90.0837 63.4405 90.3817C63.7015 89.9046 63.9365 89.4827 64.1645 89.0567C64.3925 88.6307 64.7855 88.3097 64.9815 87.8467C64.4575 87.6257 63.9585 87.4597 63.5025 87.2127C63.0235 86.9537 62.5865 86.6187 62.1115 86.3047C61.9065 86.7017 61.7295 87.0957 61.5065 87.4617C61.2825 87.8297 61.0125 88.1697 60.7445 88.5487Z" fill="black"/>
<path d="M58.3716 107.12C58.5476 107.056 58.6806 107.004 58.8156 106.958C59.3146 106.786 59.6366 106.437 59.8346 105.958C59.9116 105.772 59.9836 105.578 60.0946 105.414C60.1696 105.303 60.3096 105.238 60.4626 105.12C60.6256 105.263 60.8376 105.362 60.9046 105.522C61.1596 106.135 61.5736 106.594 62.1196 106.953C62.1426 106.968 62.1626 106.991 62.1826 107.012C62.3586 107.198 62.3646 107.458 62.1896 107.634C62.1296 107.695 62.0596 107.748 61.9886 107.797C61.4956 108.129 61.1476 108.584 60.8706 109.101C60.8166 109.203 60.7476 109.295 60.6646 109.424C60.5136 109.432 60.3506 109.441 60.2206 109.448C60.1466 109.366 60.0866 109.33 60.0726 109.28C59.8606 108.53 59.4246 107.999 58.6446 107.793C58.5636 107.772 58.4926 107.711 58.4206 107.663C58.3346 107.604 58.3246 107.512 58.3716 107.12ZM60.5356 108.159C60.7706 107.89 61.0546 107.654 61.2626 107.29C61.0006 107.025 60.7456 106.767 60.4706 106.489C60.2046 106.821 59.9746 107.11 59.7556 107.383C60.0206 107.647 60.2586 107.883 60.5356 108.159Z" fill="black"/>
<path d="M76.143 166.558C76.012 166.672 75.893 166.777 75.796 166.863C75.443 166.758 75.373 166.499 75.287 166.253C75.003 165.429 74.715 164.607 74.43 163.784C73.898 162.249 73.366 160.713 72.838 159.176C72.745 158.905 72.67 158.629 72.582 158.34C72.718 158.221 72.821 158.131 72.95 158.018C73.083 158.128 73.208 158.201 73.292 158.307C73.36 158.394 73.382 158.519 73.42 158.628C74.285 161.123 75.15 163.619 76.013 166.115C76.06 166.25 76.094 166.389 76.143 166.558Z" fill="#3C3372"/>
<path opacity="0.1" d="M192.9 228.656C192.9 231.608 179.173 234 162.241 234C145.308 234 131.582 231.608 131.582 228.656C131.582 225.706 145.308 223.314 162.241 223.314C179.173 223.314 192.9 225.706 192.9 228.656Z" fill="black"/>
<path d="M80.2654 91.3895C80.0624 91.4065 79.9124 91.4945 79.7944 91.6095C79.0834 91.9215 78.3414 92.1295 77.5714 92.2395C77.0194 92.3195 76.4484 92.4105 76.1434 92.9435C75.9214 93.3315 75.9314 93.8195 76.1944 94.1755C76.5714 94.6875 77.3344 94.7055 77.9194 94.7075C78.9924 94.7095 80.5534 94.4375 81.2544 93.5195C81.8844 92.6945 81.4294 91.2935 80.2654 91.3895Z" fill="#F5F5F5"/>
<path d="M74.1622 94.3023C74.0022 94.0953 73.7382 94.1153 73.5742 94.2353C72.9892 94.2103 72.4702 94.9483 73.0562 95.4393C73.8072 96.0703 74.7292 95.0363 74.1622 94.3023Z" fill="#F5F5F5"/>
<path d="M99.6873 117.834C99.5243 117.399 99.4003 116.811 99.0273 116.502C98.8883 116.387 98.7173 116.322 98.5413 116.296C98.4333 116.179 98.2653 116.117 98.0843 116.209C97.4693 116.524 96.9403 116.951 96.5063 117.489C96.2973 117.749 96.4293 118.114 96.7753 118.139C97.6233 118.197 98.4723 118.256 99.3213 118.315C99.5533 118.331 99.7713 118.057 99.6873 117.834Z" fill="#F5F5F5"/>
<path d="M52.7311 148.08L52.6351 148.27C52.4131 148.705 53.0691 149.091 53.2921 148.654L53.3881 148.465C53.6101 148.029 52.9541 147.643 52.7311 148.08Z" fill="#F5F5F5"/>
<path d="M97.0646 127.476C96.8196 127.034 96.3536 127.029 96.0226 127.241C95.6536 127.136 95.2236 127.27 95.1076 127.75C94.9316 128.471 94.9276 129.181 95.0826 129.906C95.1936 130.422 95.7856 130.559 96.2006 130.361C97.2616 129.855 97.6176 128.475 97.0646 127.476Z" fill="#F5F5F5"/>
<path d="M47.7353 125.449C47.6623 125.431 47.5893 125.411 47.4993 125.418C45.6103 125.554 44.9483 127.208 43.6163 128.258C43.3063 128.502 43.3353 129.085 43.6163 129.334C44.3683 130 45.1753 129.628 45.8613 129.057C46.8433 128.239 47.7983 127.386 48.7653 126.551C49.4933 125.923 48.4713 124.891 47.7353 125.449Z" fill="#F5F5F5"/>
<path d="M142.781 205.816C142.951 205.718 143.042 205.626 143.138 205.618C143.581 205.585 144.024 205.559 144.467 205.561C157.418 205.67 170.369 205.781 183.321 205.899C183.474 205.899 183.627 205.997 183.762 206.043C184.074 207.208 184.197 212.472 183.978 215.303C181.914 216.76 184.91 225.562 183.321 227.548C181.757 229.501 143.67 227.609 143.67 227.609C143.67 227.609 144.239 216.933 142.661 215.096C142.661 212.272 142.66 209.33 142.667 206.388C142.669 206.178 142.748 205.969 142.781 205.816Z" fill="#4C0B2E"/>
<path d="M140.883 204.155C140.772 203.787 140.674 203.63 140.683 203.477C140.757 202.037 140.848 200.598 140.938 199.082C141.267 199.012 141.577 198.885 141.889 198.89C145.168 198.938 148.449 199.007 151.729 199.069C152.005 199.077 152.284 199.088 152.563 199.088C157.513 199.13 162.464 199.154 167.414 199.217C173.086 199.293 178.756 199.402 184.429 199.501C184.754 199.507 185.075 199.566 185.374 199.595C185.697 200.865 185.708 202.835 185.4 204.319C184.809 204.609 184.133 204.481 183.484 204.476C181.649 204.459 179.814 204.389 177.979 204.38C166.242 204.315 154.505 204.263 142.767 204.204C142.162 204.201 141.555 204.173 140.883 204.155Z" fill="white"/>
<path opacity="0.1" d="M142.065 208.477L184.408 212.468L183.764 206.043L142.767 204.205L142.065 208.477Z" fill="black"/>
<path d="M141.281 206.585C141.287 206.318 141.23 206.048 141.2 205.729C140.624 205.607 140.102 205.496 139.614 205.393C139.205 204.195 139.17 202.301 139.474 199.219C139.544 198.506 139.544 198.506 140.063 197.598C140.436 197.565 140.872 197.486 141.307 197.489C148.151 197.554 154.999 197.615 161.845 197.703C169.188 197.798 176.532 197.919 183.879 198.026C184.82 198.039 185.767 198.004 186.765 198.338C186.845 198.689 186.996 199.055 186.998 199.422C187.007 201.369 186.98 203.317 186.957 205.264C186.957 205.364 186.873 205.463 186.789 205.651C186.442 205.771 186.035 205.91 185.634 206.047C185.44 206.324 183.484 228.849 183.484 228.849H142.667C142.667 228.849 141.266 207.356 141.281 206.585ZM142.782 205.816C142.749 205.969 142.669 206.178 142.667 206.388C142.664 207.797 144.467 227.281 144.467 227.281H181.585C181.585 227.281 183.943 206.718 183.762 206.043C183.628 205.997 183.474 205.899 183.321 205.899C170.369 205.781 157.419 205.67 144.467 205.561C144.024 205.559 143.581 205.585 143.138 205.618C143.042 205.626 142.952 205.718 142.782 205.816ZM140.883 204.155C141.555 204.173 142.162 204.201 142.767 204.204C154.505 204.263 166.242 204.315 177.979 204.38C179.814 204.389 181.649 204.459 183.484 204.476C184.133 204.481 184.809 204.609 185.4 204.319C185.708 202.835 185.697 200.865 185.374 199.595C185.075 199.566 184.754 199.507 184.429 199.501C178.756 199.402 173.086 199.293 167.414 199.217C162.464 199.154 157.513 199.13 152.563 199.088C152.284 199.088 152.005 199.077 151.728 199.069C148.449 199.007 145.168 198.938 141.889 198.89C141.577 198.885 141.267 199.012 140.938 199.082C140.848 200.598 140.757 202.037 140.683 203.477C140.674 203.63 140.772 203.787 140.883 204.155Z" fill="black"/>
<path d="M132.781 175.817C132.951 175.719 133.042 175.627 133.138 175.619C133.581 175.586 134.024 175.56 134.467 175.562C147.418 175.671 160.369 175.782 173.321 175.9C173.474 175.9 173.627 175.998 173.762 176.044C174.074 177.209 174.197 182.473 173.978 185.304C171.914 186.761 174.91 195.563 173.321 197.549C171.757 199.502 133.67 197.61 133.67 197.61C133.67 197.61 134.239 186.934 132.661 185.097C132.661 182.273 132.66 179.331 132.667 176.389C132.669 176.179 132.748 175.97 132.781 175.817Z" fill="#4C0B2E"/>
<path d="M130.883 174.155C130.772 173.788 130.674 173.631 130.683 173.478C130.757 172.038 130.848 170.599 130.938 169.083C131.267 169.013 131.577 168.886 131.889 168.891C135.168 168.939 138.449 169.008 141.729 169.07C142.005 169.078 142.284 169.089 142.563 169.089C147.513 169.131 152.464 169.155 157.414 169.218C163.086 169.294 168.756 169.403 174.429 169.502C174.754 169.508 175.075 169.567 175.374 169.596C175.697 170.866 175.708 172.836 175.4 174.32C174.809 174.61 174.133 174.482 173.484 174.477C171.649 174.46 169.814 174.39 167.979 174.381C156.242 174.316 144.505 174.264 132.767 174.205C132.162 174.202 131.555 174.174 130.883 174.155Z" fill="white"/>
<path opacity="0.1" d="M132.065 178.478L174.408 182.469L173.764 176.044L132.767 174.206L132.065 178.478Z" fill="black"/>
<path d="M131.281 176.586C131.287 176.319 131.23 176.049 131.2 175.73C130.624 175.608 130.102 175.497 129.614 175.394C129.205 174.196 129.17 172.302 129.474 169.22C129.544 168.507 129.544 168.507 130.063 167.599C130.436 167.566 130.872 167.487 131.307 167.49C138.151 167.555 144.999 167.616 151.845 167.704C159.188 167.799 166.532 167.92 173.879 168.027C174.82 168.04 175.767 168.005 176.765 168.339C176.845 168.69 176.996 169.056 176.998 169.423C177.007 171.37 176.98 173.318 176.957 175.265C176.957 175.365 176.873 175.464 176.789 175.652C176.442 175.772 176.035 175.911 175.634 176.047C175.44 176.325 173.484 198.85 173.484 198.85H132.667C132.667 198.85 131.266 177.357 131.281 176.586ZM132.782 175.817C132.749 175.97 132.669 176.179 132.667 176.389C132.664 177.798 134.467 197.282 134.467 197.282H171.585C171.585 197.282 173.943 176.719 173.762 176.044C173.628 175.998 173.474 175.9 173.321 175.9C160.369 175.782 147.419 175.671 134.467 175.562C134.024 175.56 133.581 175.586 133.138 175.619C133.042 175.627 132.952 175.719 132.782 175.817ZM130.883 174.156C131.555 174.174 132.162 174.202 132.767 174.205C144.505 174.264 156.242 174.316 167.979 174.381C169.814 174.39 171.649 174.46 173.484 174.477C174.133 174.482 174.809 174.61 175.4 174.32C175.708 172.836 175.697 170.866 175.374 169.596C175.075 169.567 174.754 169.508 174.429 169.502C168.756 169.403 163.086 169.294 157.414 169.218C152.464 169.155 147.513 169.131 142.563 169.089C142.284 169.089 142.005 169.078 141.728 169.07C138.449 169.008 135.168 168.939 131.889 168.891C131.577 168.886 131.267 169.013 130.938 169.083C130.848 170.599 130.757 172.038 130.683 173.478C130.674 173.631 130.772 173.788 130.883 174.156Z" fill="black"/>
</svg>
