<svg width="210" height="234" viewBox="0 0 210 234" fill="none" xmlns="http://www.w3.org/2000/svg">
<path opacity="0.15" d="M0 105C0 47.0101 47.0101 0 105 0C162.99 0 210 47.0101 210 105C210 162.99 162.99 210 105 210C47.0101 210 0 162.99 0 105Z" fill="#4C0B2E"/>
<circle opacity="0.4" cx="48.5" cy="59.5" r="3.5" fill="#B1B1B1"/>
<circle opacity="0.8" cx="181" cy="111" r="4" fill="#4C0B2E"/>
<path opacity="0.1" d="M166.394 228.656C166.394 231.608 152.667 234 135.734 234C118.802 234 105.076 231.608 105.076 228.656C105.076 225.706 118.802 223.314 135.734 223.314C152.667 223.314 166.394 225.706 166.394 228.656Z" fill="black"/>
<path d="M162.47 93.0575H104.941C101.335 93.0575 98.4121 90.1355 98.4121 86.5295C98.4121 82.9235 101.335 80.0005 104.941 80.0005H162.47C166.076 80.0005 168.999 82.9235 168.999 86.5295C168.999 90.1355 166.076 93.0575 162.47 93.0575Z" fill="white"/>
<path d="M110.048 86.5293C110.048 89.3133 107.791 91.5713 105.007 91.5713C102.222 91.5713 99.9648 89.3133 99.9648 86.5293C99.9648 83.7443 102.222 81.4873 105.007 81.4873C107.791 81.4873 110.048 83.7443 110.048 86.5293Z" fill="#4C0B2E"/>
<path d="M105.868 86.9055C106.014 86.8675 106.121 86.8424 106.227 86.8105C106.415 86.7535 106.596 86.7745 106.76 86.8744C107.45 87.2935 108.137 87.7165 108.823 88.1425C108.856 88.1634 108.866 88.2205 108.909 88.3045C108.748 88.7774 108.489 89.2185 108.106 89.5735C107.644 89.3955 106.112 88.4134 105.628 87.9885C105.608 87.8625 105.584 87.7145 105.55 87.5055C105.355 87.7145 105.21 87.8915 105.044 88.0445C104.344 88.6934 103.54 88.9324 102.621 88.5924C101.898 88.3245 101.438 87.7794 101.23 87.0585C100.967 86.1455 101.104 85.2724 101.678 84.4944C102.283 83.6735 103.283 83.3075 104.178 83.5675C105.098 83.8355 105.772 84.6465 105.863 85.6415C105.898 86.0275 105.868 86.4205 105.868 86.9055ZM101.698 86.2155C101.697 86.7385 101.855 87.2044 102.153 87.5585C102.614 88.1055 103.371 88.2924 104.035 88.0234C105.358 87.4855 105.749 85.5275 104.719 84.5425C104.274 84.1165 103.748 83.9645 103.13 84.1474C102.241 84.4095 101.65 85.4105 101.698 86.2155ZM107.948 88.8365C108.029 88.6625 108.081 88.5514 108.129 88.4495C107.342 87.8525 106.595 87.4205 106.406 87.4905C106.377 87.5505 106.331 87.6415 106.27 87.7635C106.81 88.1345 107.327 88.4694 107.948 88.8365Z" fill="#24232B"/>
<path d="M101.698 86.2156C101.65 85.4106 102.241 84.4096 103.13 84.1476C103.748 83.9646 104.274 84.1166 104.719 84.5426C105.749 85.5276 105.358 87.4856 104.035 88.0236C103.371 88.2926 102.614 88.1056 102.153 87.5586C101.855 87.2046 101.697 86.7386 101.698 86.2156Z" fill="white"/>
<path d="M107.948 88.8363C107.327 88.4693 106.81 88.1343 106.27 87.7633C106.331 87.6414 106.377 87.5503 106.406 87.4904C106.595 87.4203 107.342 87.8524 108.129 88.4494C108.081 88.5513 108.029 88.6623 107.948 88.8363Z" fill="white"/>
<path d="M98.4121 105.418C98.4121 100.769 102.181 97.001 106.829 97.001H122.574C127.222 97.001 130.991 100.769 130.991 105.418V121.163C130.991 125.811 127.222 129.58 122.574 129.58H106.829C102.181 129.58 98.4121 125.811 98.4121 121.163V105.418Z" fill="#4C0B2E"/>
<path d="M136.42 105.418C136.42 100.769 140.188 97.001 144.837 97.001H160.581C165.23 97.001 168.998 100.769 168.998 105.418V121.163C168.998 125.811 165.23 129.58 160.581 129.58H144.837C140.188 129.58 136.42 125.811 136.42 121.163V105.418Z" fill="white"/>
<path d="M98.4121 141.874C98.4121 137.226 102.18 133.458 106.829 133.458H122.574C127.222 133.458 130.991 137.226 130.991 141.875V157.62C130.991 162.268 127.222 166.036 122.574 166.036H106.829C102.181 166.036 98.4121 162.268 98.4121 157.619V141.874Z" fill="white"/>
<path d="M136.42 141.874C136.42 137.226 140.188 133.458 144.836 133.458H160.581C165.23 133.458 168.998 137.226 168.998 141.875V157.62C168.998 162.268 165.23 166.036 160.582 166.036H144.837C140.188 166.036 136.42 162.268 136.42 157.619V141.874Z" fill="white"/>
<path d="M144.998 120.027V121H153.265L153.59 120.514L153.265 120.027L149.132 119.703L144.998 120.027Z" fill="#3D4566"/>
<path d="M160.998 120.027L156.864 119.703L152.73 120.027V121H160.998V120.027Z" fill="#2E3754"/>
<path d="M149.375 106.945L148.348 107.269L147.43 106.945V105H149.375V106.945Z" fill="#FFF4F4"/>
<path d="M150.348 108.891L148.262 109.215L146.457 108.891V106.945H150.348V108.891Z" fill="#495979"/>
<path d="M158.566 106.945V105H156.621V106.945L157.594 107.269L158.566 106.945Z" fill="#EEE6F2"/>
<path d="M155.648 108.891L157.594 109.215L159.539 108.891V106.945H155.648V108.891Z" fill="#3D4566"/>
<path d="M144.998 109.329V118.569L149.132 118.893L153.265 118.569L153.59 113.949L153.265 109.329L149.132 109.004L144.998 109.329Z" fill="#FFE665"/>
<path d="M160.998 109.329L156.998 109.004L152.998 109.329V118.568L156.998 118.893L160.998 118.568V109.329ZM144.998 108.356V109.329H152.998L153.312 108.842L152.998 108.356H144.998Z" fill="#FFCC67"/>
<path d="M152.73 108.757H160.998V109.729H152.73V108.757Z" fill="#FF9A32"/>
<path d="M144.998 118.568V120.027H153.265L153.59 119.298L153.265 118.568H144.998Z" fill="#495979"/>
<path d="M152.73 118.568H160.998V120.027H152.73V118.568Z" fill="#3D4566"/>
<path d="M152.964 113.881L153.028 113.785L153.352 112.908L153.028 112.032L151.146 114.854H153.028V113.881H152.964ZM151.65 117.016L152.46 117.555L153.028 116.703L153.352 115.826L153.028 114.95L151.65 117.016Z" fill="#FF637B"/>
<path d="M154.34 111.761L153.531 111.221L152.963 112.073V113.827L154.34 111.761ZM152.963 113.923V114.895H153.027L152.963 114.991V116.744L154.844 113.923H152.963Z" fill="#E63950"/>
<path d="M149.861 112.046H148.889V111.074H147.916V112.046H146.943V113.019H147.916V113.992H148.889V113.019H149.861V112.046Z" fill="#495979"/>
<path d="M156.135 112.044H159.053V113.017H156.135V112.044Z" fill="#3D4566"/>
<path d="M110.872 142.434L109.741 141.242C109.594 141.087 109.391 141 109.178 141H106.155C106.07 141 106 141.07 106 141.155V142.235C106 142.32 106.07 142.39 106.155 142.39H108.692C108.734 142.39 108.775 142.407 108.805 142.438L109.395 143.06L110.872 142.434Z" fill="#939598"/>
<path d="M110.552 142.077L109.074 142.702L109.414 143.06L110.891 142.434L110.552 142.077Z" fill="#808285"/>
<path d="M112.924 143.221L111.302 142.41C111.2 142.359 111.082 142.355 110.977 142.399L109.362 143.083C109.218 143.144 109.125 143.285 109.125 143.441V144.664L112.924 143.221Z" fill="#58595B"/>
<path d="M112.315 142.917L109.125 144.128V144.664L112.924 143.221L112.315 142.917Z" fill="#414042"/>
<path d="M119.245 145.06V145.59H121.108V144.089C121.108 143.34 120.498 142.718 119.749 142.718L114.314 142.729V144.284H118.468C118.897 144.284 119.245 144.631 119.245 145.06Z" fill="#58595B"/>
<path d="M120.492 142.943C120.641 143.168 120.721 143.432 120.721 143.701V144.814C120.721 145.029 120.547 145.202 120.333 145.202H119.246V145.591H121.109V144.09C121.109 143.614 120.863 143.19 120.492 142.943Z" fill="#414042"/>
<path d="M121.219 145.46H115.047C114.615 145.46 114.266 145.128 114.266 144.719V142.718L108.598 144.76C108.294 144.869 108.094 145.145 108.094 145.453V158.259C108.094 158.668 108.444 159 108.875 159H121.219C121.651 159 122 158.668 122 158.259V146.201C122 145.792 121.651 145.46 121.219 145.46Z" fill="#478CF7"/>
<path d="M108.56 154.136C108.474 154.136 108.404 154.066 108.404 153.98V147.769C108.404 147.683 108.474 147.614 108.56 147.614C108.645 147.614 108.715 147.683 108.715 147.769V153.98C108.715 154.066 108.645 154.136 108.56 154.136ZM108.56 147.303C108.474 147.303 108.404 147.234 108.404 147.148V147.08C108.404 146.994 108.474 146.925 108.56 146.925C108.645 146.925 108.715 146.994 108.715 147.08V147.148C108.715 147.234 108.645 147.303 108.56 147.303Z" fill="#5E9CF7"/>
<path d="M121.219 144.817V157.447C121.219 157.876 120.869 158.224 120.437 158.224H108.094C108.094 158.653 108.444 159 108.875 159H121.219C121.651 159 122 158.653 122 158.224V145.593C122 145.164 121.651 144.817 121.219 144.817Z" fill="#377DE2"/>
<path d="M121.539 144.886C121.585 144.986 121.609 145.095 121.609 145.205V157.835C121.609 158.264 121.259 158.612 120.827 158.612H108.483C108.372 158.612 108.263 158.588 108.162 158.543C108.284 158.812 108.557 159 108.874 159H121.218C121.65 159 122 158.652 122 158.223V145.593C121.999 145.278 121.81 145.007 121.539 144.886Z" fill="#2266D3"/>
<path d="M119.4 157.085H110.782C110.353 157.085 110.006 156.738 110.006 156.309V147.507C110.006 147.079 110.353 146.731 110.782 146.731H119.4C119.829 146.731 120.177 147.079 120.177 147.507V156.309C120.177 156.738 119.829 157.085 119.4 157.085Z" fill="#FFC91D"/>
<path d="M113.605 156.357H116.503C116.932 156.357 117.28 156.009 117.28 155.58V149.257C117.28 148.828 116.932 148.48 116.503 148.48H113.605C113.176 148.48 112.828 148.828 112.828 149.257V155.58C112.828 156.009 113.176 156.357 113.605 156.357Z" fill="white"/>
<path d="M116.824 148.548C116.869 148.649 116.893 148.757 116.893 148.867V155.191C116.893 155.62 116.545 155.967 116.117 155.967H113.218C113.107 155.967 112.999 155.944 112.898 155.898C113.02 156.168 113.291 156.355 113.606 156.355H116.505C116.934 156.355 117.281 156.008 117.281 155.579V149.256C117.281 148.941 117.093 148.67 116.824 148.548Z" fill="#F1F2F2"/>
<path d="M114.586 147.91H115.522C115.736 147.91 115.91 148.084 115.91 148.298V148.527H114.198V148.298C114.198 148.084 114.372 147.91 114.586 147.91ZM113.73 150.264H116.378C116.592 150.264 116.766 150.09 116.766 149.876V149.575C116.766 149.36 116.592 149.186 116.378 149.186H113.73C113.516 149.186 113.342 149.36 113.342 149.575V149.876C113.342 150.09 113.516 150.264 113.73 150.264ZM113.73 155.743H116.378C116.592 155.743 116.766 155.569 116.766 155.355V155.054C116.766 154.839 116.592 154.666 116.378 154.666H113.73C113.516 154.666 113.342 154.839 113.342 155.054V155.355C113.342 155.569 113.516 155.743 113.73 155.743ZM113.73 154.373H116.378C116.592 154.373 116.766 154.199 116.766 153.985V153.684C116.766 153.47 116.592 153.296 116.378 153.296H113.73C113.516 153.296 113.342 153.47 113.342 153.684V153.985C113.342 154.199 113.516 154.373 113.73 154.373ZM113.73 153.003H116.378C116.592 153.003 116.766 152.83 116.766 152.615V152.314C116.766 152.1 116.592 151.926 116.378 151.926H113.73C113.516 151.926 113.342 152.1 113.342 152.314V152.615C113.342 152.83 113.516 153.003 113.73 153.003ZM113.73 151.634H116.378C116.592 151.634 116.766 151.46 116.766 151.245V150.944C116.766 150.73 116.592 150.556 116.378 150.556H113.73C113.516 150.556 113.342 150.73 113.342 150.944V151.245C113.342 151.46 113.516 151.634 113.73 151.634Z" fill="#939598"/>
<path d="M119.721 146.8C119.766 146.901 119.79 147.009 119.79 147.119V155.921C119.79 156.35 119.442 156.697 119.013 156.697H110.395C110.285 156.697 110.176 156.674 110.076 156.628C110.198 156.898 110.468 157.086 110.783 157.086H119.402C119.83 157.086 120.178 156.738 120.178 156.309V147.508C120.178 147.193 119.99 146.922 119.721 146.8Z" fill="#FFA91A"/>
<path d="M147.835 147.203H147.261C146.944 147.203 146.688 146.946 146.688 146.629C146.688 146.312 146.944 146.056 147.261 146.056H147.835C148.152 146.056 148.409 146.312 148.409 146.629C148.409 146.946 148.152 147.203 147.835 147.203Z" fill="#AAAAAA"/>
<path d="M149.555 143.582C149.559 143.582 149.555 143.439 149.555 149.892C148.607 149.892 147.834 149.124 147.834 148.171V145.303C147.834 144.352 148.605 143.582 149.555 143.582Z" fill="#999999"/>
<path d="M158.452 147.203H157.878C157.562 147.203 157.305 146.946 157.305 146.629C157.305 146.312 157.562 146.056 157.878 146.056H158.452C158.769 146.056 159.026 146.312 159.026 146.629C159.026 146.946 158.769 147.203 158.452 147.203Z" fill="#AAAAAA"/>
<path d="M156.158 149.892C156.154 149.892 156.158 150.035 156.158 143.582C157.106 143.582 157.879 144.349 157.879 145.303V148.171C157.879 149.122 157.108 149.892 156.158 149.892Z" fill="#999999"/>
<path d="M151.958 156.131H153.758C155.084 156.131 156.159 157.159 156.159 158.426C156.159 158.43 156.308 158.426 149.557 158.426C149.557 157.162 150.628 156.131 151.958 156.131Z" fill="#B2B2B2"/>
<path d="M152.853 156.705C152.536 156.705 152.279 156.448 152.279 156.131V150.968C152.279 150.651 152.536 150.395 152.853 150.395C153.17 150.395 153.427 150.651 153.427 150.968V156.131C153.427 156.448 153.17 156.705 152.853 156.705Z" fill="#999999"/>
<path d="M154.926 151.9H150.789C149.793 151.9 148.982 151.12 148.982 150.162V142.738C148.982 141.78 149.793 141 150.789 141H154.926C155.922 141 156.732 141.78 156.732 142.738V150.162C156.732 151.12 155.922 151.9 154.926 151.9ZM150.789 142.147C150.45 142.147 150.175 142.412 150.175 142.738V150.162C150.175 150.488 150.45 150.753 150.789 150.753H154.926C155.265 150.753 155.54 150.488 155.54 150.162V142.738C155.54 142.412 155.265 142.147 154.926 142.147H150.789Z" fill="#B2B2B2"/>
<path d="M156.159 142.738V150.162C156.159 150.805 155.614 151.326 154.941 151.326H150.775C150.102 151.326 149.557 150.805 149.557 150.162V142.738C149.557 142.095 150.102 141.574 150.775 141.574H154.941C155.614 141.574 156.159 142.095 156.159 142.738Z" fill="#68EAEA"/>
<path d="M154.546 141.574V148.728C154.546 149.371 154.025 149.892 153.382 149.892H149.67V142.738C149.67 142.095 150.191 141.574 150.835 141.574H154.546Z" fill="#74F7F9"/>
<path d="M153.965 141.574V143.868C153.965 146.245 152.038 148.171 149.662 148.171C149.658 148.171 149.662 142.732 149.662 142.738C149.662 142.095 150.184 141.574 150.827 141.574H153.965Z" fill="#8DFFFF"/>
<path d="M159.014 159H146.987C146.663 159 146.4 158.743 146.4 158.426C146.4 158.109 146.663 157.853 146.987 157.853H159.014C159.338 157.853 159.6 158.109 159.6 158.426C159.6 158.743 159.338 159 159.014 159Z" fill="#999999"/>
<path d="M153.14 150.012H152.566C152.249 150.012 151.992 149.755 151.992 149.438C151.992 149.122 152.249 148.865 152.566 148.865H153.14C153.456 148.865 153.713 149.122 153.713 149.438C153.713 149.755 153.456 150.012 153.14 150.012Z" fill="#B2B2B2"/>
<path d="M115.674 112.08C115.527 112.08 115.408 111.961 115.408 111.814V109.704C115.408 109.557 115.527 109.438 115.674 109.438C115.82 109.438 115.939 109.557 115.939 109.704V111.814C115.939 111.961 115.82 112.08 115.674 112.08Z" fill="#EE5253"/>
<path d="M115.939 109.871V109.697C115.939 109.551 115.82 109.432 115.674 109.432C115.527 109.432 115.408 109.551 115.408 109.697V110.063C115.579 109.983 115.757 109.919 115.939 109.871Z" fill="#D83941"/>
<path d="M119.164 113.004C119.164 113.151 119.045 113.27 118.898 113.27H116.788C116.641 113.27 116.522 113.151 116.522 113.004C116.522 112.858 116.641 112.739 116.788 112.739H118.898C119.045 112.739 119.164 112.858 119.164 113.004ZM114.835 113.004C114.835 113.151 114.716 113.27 114.569 113.27H112.459C112.312 113.27 112.193 113.151 112.193 113.004C112.193 112.858 112.312 112.739 112.459 112.739H114.569C114.716 112.739 114.835 112.858 114.835 113.004Z" fill="#EE5253"/>
<path d="M112.477 112.739C112.33 112.739 112.211 112.858 112.211 113.004C112.211 113.151 112.33 113.27 112.477 113.27H113.514V113.045C113.515 112.942 113.523 112.84 113.537 112.739H112.477Z" fill="#D83941"/>
<path d="M114.886 112.104L113.831 110.276C113.757 110.149 113.801 109.987 113.928 109.914C114.055 109.84 114.217 109.884 114.291 110.011L115.346 111.838C115.419 111.965 115.375 112.128 115.249 112.201C115.122 112.274 114.959 112.231 114.886 112.104Z" fill="#EE5253"/>
<path d="M114.292 110.006C114.219 109.879 114.057 109.836 113.93 109.909C113.803 109.983 113.759 110.145 113.832 110.272L114.26 111.013C114.372 110.864 114.498 110.725 114.634 110.599L114.292 110.006Z" fill="#D83941"/>
<path d="M114.574 112.629L112.746 111.574C112.619 111.5 112.576 111.338 112.649 111.211C112.722 111.084 112.885 111.04 113.012 111.114L114.839 112.169C114.966 112.242 115.01 112.405 114.936 112.532C114.863 112.659 114.701 112.702 114.574 112.629Z" fill="#EE5253"/>
<path d="M113.014 111.111C112.887 111.037 112.724 111.081 112.651 111.208C112.578 111.335 112.621 111.498 112.748 111.571L113.706 112.124C113.712 112.111 113.718 112.097 113.724 112.084L113.751 112.026L113.772 111.966C113.81 111.85 113.855 111.737 113.906 111.626L113.014 111.111Z" fill="#D83941"/>
<path d="M116.094 112.203C115.967 112.13 115.923 111.967 115.997 111.84L117.052 110.013C117.125 109.886 117.288 109.842 117.415 109.916C117.542 109.989 117.585 110.151 117.512 110.278L116.456 112.106C116.383 112.233 116.221 112.276 116.094 112.203ZM116.409 112.518C116.335 112.391 116.379 112.229 116.506 112.155L118.333 111.1C118.46 111.027 118.623 111.07 118.696 111.197C118.77 111.324 118.726 111.487 118.599 111.56L116.772 112.615C116.644 112.689 116.482 112.645 116.409 112.518Z" fill="#EE5253"/>
<path d="M115.643 106C111.842 106 108.76 109.188 108.76 112.99H111.451C111.451 112.955 111.45 112.919 111.45 112.883C111.45 110.568 113.328 108.69 115.643 108.69C117.959 108.69 119.837 110.568 119.837 112.883C119.837 114.033 119.374 115.074 118.625 115.832V117.115C118.625 117.646 118.085 118.08 117.555 118.08C118.085 118.08 118.661 118.513 118.661 119.044V119.054C120.931 117.929 122.527 115.589 122.527 112.883C122.527 109.082 119.445 106 115.643 106Z" fill="#3E4B5A"/>
<path d="M116.237 106.021C116.056 106.007 115.874 106 115.692 106C111.89 106 108.809 109.188 108.809 112.99H109.891C109.891 109.369 112.686 106.305 116.237 106.021Z" fill="#374451"/>
<path d="M115.666 108.719C113.23 108.719 111.438 110.702 111.438 113.018H112.432V113.017C112.432 111.231 113.88 109.747 115.667 109.747C117.454 109.747 118.867 111.16 118.867 112.946C118.867 113.313 118.805 113.677 118.683 114.023V115.857C119.418 115.178 119.895 114.06 119.895 112.947C119.895 110.632 118.091 108.719 115.666 108.719Z" fill="#FF6B6B"/>
<path d="M112.762 111.604C113.265 110.1 114.559 108.944 116.227 108.738C116.046 108.716 115.864 108.705 115.682 108.705C113.246 108.705 111.453 110.689 111.453 113.005H112.448V113.003C112.448 112.519 112.555 112.041 112.762 111.604Z" fill="#EE5253"/>
<path d="M115.673 111.845C115.038 111.845 114.523 112.36 114.523 112.995H116.822C116.822 112.36 116.308 111.845 115.673 111.845Z" fill="#3E4B5A"/>
<path d="M116.216 111.98C116.049 111.891 115.863 111.845 115.675 111.845C115.04 111.845 114.525 112.36 114.525 112.995H115.607C115.607 112.555 115.854 112.174 116.216 111.98Z" fill="#374451"/>
<path d="M117.809 113.023H105.97C105.44 113.023 105.006 113.457 105.006 113.988V117.255C105.006 117.786 105.44 118.22 105.97 118.22H117.809C118.339 118.22 118.773 117.786 118.773 117.255V113.988C118.773 113.457 118.339 113.023 117.809 113.023Z" fill="#576574"/>
<path d="M106.088 117.255V113.988C106.088 113.457 106.522 113.023 107.052 113.023H105.97C105.44 113.023 105.006 113.457 105.006 113.988V117.255C105.006 117.786 105.44 118.22 105.97 118.22H107.052C106.522 118.22 106.088 117.786 106.088 117.255Z" fill="#3E4B5A"/>
<path d="M117.809 118.284H105.97C105.44 118.284 105.006 118.721 105.006 119.255V122.549C105.006 123.084 105.44 123.521 105.97 123.521H117.809C118.339 123.521 118.773 123.084 118.773 122.549V119.255C118.773 118.721 118.339 118.284 117.809 118.284Z" fill="#576574"/>
<path d="M106.088 122.549V119.256C106.088 118.721 106.522 118.284 107.052 118.284H105.97C105.44 118.284 105.006 118.721 105.006 119.256V122.549C105.006 123.084 105.44 123.521 105.97 123.521H107.052C106.522 123.521 106.088 123.084 106.088 122.549ZM105.006 115.014H118.773V115.546H105.006V115.014ZM105.006 116.802H118.773V117.333H105.006V116.802ZM105.006 115.908H118.773V116.439H105.006V115.908ZM105.006 114.121H118.773V114.652H105.006V114.121Z" fill="#3E4B5A"/>
<path d="M105.006 121.104H118.773V121.635H105.006V121.104ZM105.006 120.211H118.773V120.742H105.006V120.211ZM105.006 121.998H118.773V122.529H105.006V121.998ZM105.006 119.317H118.773V119.848H105.006V119.317Z" fill="#3E4B5A"/>
<path d="M105.006 115.014H106.06V115.546H105.006V115.014ZM105.006 116.802H106.06V117.333H105.006V116.802ZM105.006 115.908H106.06V116.439H105.006V115.908ZM105.006 114.121H106.06V114.652H105.006V114.121ZM105.006 121.104H106.06V121.635H105.006V121.104ZM105.006 120.21H106.06V120.742H105.006V120.21ZM105.006 121.998H106.06V122.529H105.006V121.998ZM105.006 119.317H106.06V119.848H105.006V119.317Z" fill="#374451"/>
<path d="M106.096 116.583C105.797 116.583 105.495 116.556 105.2 116.504C103.516 116.207 102.364 115.223 101.777 113.583C101.196 111.959 101.501 110.367 102.659 108.98C103.592 107.862 104.815 107.288 106.294 107.277L106.356 107.276C107.95 107.276 109.402 108.082 110.242 109.433C111.096 110.806 111.157 112.464 110.41 113.98C109.618 115.586 107.965 116.583 106.096 116.583Z" fill="#4DC985"/>
<path d="M104.058 111.48C104.702 111.616 105.017 112.187 105.611 112.422C105.715 112.335 105.857 112.243 105.967 112.122C106.605 111.412 107.234 110.694 107.869 109.982C108.021 109.81 108.183 109.646 108.306 109.514C108.589 109.424 108.755 109.491 108.839 109.706C108.839 109.777 108.856 109.842 108.836 109.889C108.79 109.994 108.739 110.102 108.664 110.186C107.824 111.141 106.981 112.095 106.13 113.041C106.019 113.163 105.858 113.241 105.736 113.327C105.614 113.304 105.511 113.314 105.449 113.268C104.941 112.888 104.435 112.506 103.943 112.107C103.77 111.966 103.806 111.82 104.058 111.48Z" fill="white"/>
<path opacity="0.1" d="M102.902 228.656C102.902 231.608 89.175 234 72.243 234C55.31 234 41.584 231.608 41.584 228.656C41.584 225.706 55.31 223.314 72.243 223.314C89.175 223.314 102.902 225.706 102.902 228.656Z" fill="black"/>
<path d="M58.9994 227.062C57.8954 227.106 56.8524 227.082 55.8104 227.057C52.7414 226.981 49.6674 227.039 46.6494 226.84C46.5814 226.775 46.5534 226.758 46.5414 226.735C46.5304 226.71 46.5294 226.677 46.5334 226.649C46.8234 224.903 47.1144 223.157 47.4084 221.412C47.4174 221.36 47.4674 221.314 47.5354 221.207C47.8064 221.178 48.1204 221.121 48.4354 221.113C50.0614 221.071 51.6874 221.028 53.3134 221.014C53.6824 221.011 54.0634 221.089 54.4214 221.19C55.4644 221.486 56.4244 221.958 57.2794 222.631C57.8334 223.068 58.3074 223.577 58.6464 224.196C59.1214 225.066 59.3074 225.978 58.9994 227.062Z" fill="#858585"/>
<path d="M82.3835 226.859C82.2435 225.3 82.2925 223.85 82.1855 222.371C82.3035 222.334 82.4075 222.27 82.5105 222.272C84.5125 222.328 86.4465 221.996 88.3455 221.248C90.4735 221.609 92.4605 222.358 94.1845 223.737C94.7815 224.215 95.2645 224.795 95.6865 225.425C95.9445 225.81 96.1675 226.221 96.1455 226.773C95.9155 226.794 95.6925 226.833 95.4695 226.833C93.6665 226.838 91.8635 226.834 90.0595 226.838C87.8205 226.842 85.5805 226.852 83.3415 226.859C83.0525 226.86 82.7645 226.859 82.3835 226.859Z" fill="#858585"/>
<path d="M98.9054 115.819C98.8084 116.011 98.8514 116.175 99.0094 116.287C99.1494 116.388 99.3184 116.446 99.4644 116.539C100.051 116.913 100.642 117.282 101.216 117.676C101.502 117.873 101.766 118.109 101.841 118.532C101.755 118.932 101.516 119.3 101.226 119.621C100.74 120.159 100.226 120.672 99.7124 121.184C99.5074 121.387 99.2834 121.577 99.0474 121.744C98.4554 122.162 98.1824 122.707 98.1814 123.446C98.1794 123.989 98.1994 124.551 98.0084 125.076C97.4314 125.18 94.9574 125.171 94.2344 125.055C94.2704 124.751 94.3014 124.442 94.3424 124.133C94.5014 122.954 94.6594 121.775 94.8254 120.596C94.9514 119.705 95.0984 118.817 95.2214 117.926C95.3054 117.323 95.5884 116.83 96.0114 116.411C96.2374 116.185 96.4764 115.972 96.7234 115.77C98.2854 114.496 100.028 113.51 101.807 112.581C102.087 112.434 102.398 112.343 102.702 112.249C102.796 112.22 102.913 112.265 103.028 112.278C102.954 112.629 102.707 112.804 102.494 112.992C101.579 113.799 100.662 114.604 99.7254 115.384C99.4904 115.579 99.1764 115.679 98.9054 115.819Z" fill="#FFC9B5"/>
<path d="M99.2709 126.874C99.2679 126.696 99.2549 126.518 99.2419 126.334L99.2239 126.077C99.2159 125.938 99.1279 125.815 98.9979 125.762C98.5669 125.588 98.1469 125.585 97.7759 125.583C97.6219 125.583 97.4679 125.583 97.3169 125.568C96.8509 125.524 96.3819 125.519 95.9279 125.516L95.6319 125.513C95.6319 125.513 95.2779 125.508 95.1829 125.508C94.8069 125.508 94.3639 125.534 93.9309 125.732C93.8259 125.779 93.7499 125.873 93.7259 125.986L93.6929 126.129C93.6659 126.241 93.6419 126.346 93.6269 126.453C93.5649 126.908 93.5049 127.364 93.4449 127.818L93.2939 128.959C93.2449 129.328 93.1929 129.698 93.1419 130.067C93.0659 130.619 92.9899 131.171 92.9179 131.723C92.7609 132.934 92.6099 134.145 92.4609 135.357C92.4379 135.542 92.4129 135.725 92.3869 135.911C92.2809 136.682 92.1719 137.481 92.2419 138.321C92.2449 138.361 92.2549 138.4 92.2719 138.437C91.4159 137.093 90.5629 135.746 89.7119 134.4C89.4689 134.016 89.2309 133.629 88.9799 133.222L88.6199 132.64C88.5519 132.529 88.4329 132.468 88.3109 132.468C88.2459 132.468 88.1799 132.485 88.1209 132.521C88.0689 132.554 88.0249 132.578 87.9889 132.598C87.9019 132.645 87.8209 132.69 87.7459 132.771C86.5609 134.043 85.1779 135.288 83.5179 136.579C83.4139 136.661 83.3349 136.757 83.2649 136.841C83.2379 136.873 83.2109 136.907 83.1819 136.94C83.0799 137.053 83.0589 137.217 83.1289 137.352L83.2169 137.523C83.2789 137.647 83.3359 137.759 83.4009 137.865L83.8679 138.626C84.6239 139.86 85.3799 141.094 86.1439 142.322C86.8649 143.481 87.7779 144.589 88.8579 145.616C89.7899 146.501 90.7879 147.088 91.9089 147.409C92.2409 147.503 92.5669 147.551 92.8769 147.551C93.2849 147.551 93.6759 147.469 94.0359 147.305C95.2049 146.776 95.9959 145.981 96.3859 144.942C96.5579 144.485 96.6979 144.022 96.8229 143.591C97.2949 141.967 97.6759 140.223 98.0229 138.102C98.3989 135.805 98.7299 133.508 99.0069 131.275C99.2169 129.587 99.3009 128.189 99.2709 126.874Z" fill="#B1B1B1"/>
<path d="M53.1273 140.209C51.5633 137.465 49.9463 134.631 48.1853 131.858L48.6573 131.555C49.2043 131.205 49.7213 130.873 50.2343 130.535C50.4783 130.374 50.7253 130.216 50.9723 130.06C51.4803 129.736 52.0063 129.401 52.5203 129.026C52.6763 128.912 52.7163 128.696 52.6103 128.534C52.4253 128.249 52.2393 127.97 52.0563 127.693C51.6433 127.073 51.2543 126.486 50.8893 125.875C50.5123 125.246 50.1693 124.61 49.8063 123.935C49.6473 123.64 49.4863 123.342 49.3223 123.043C49.2553 122.923 49.1313 122.854 49.0023 122.854C48.9493 122.854 48.8943 122.866 48.8433 122.891C48.7973 122.914 48.7523 122.934 48.7093 122.953C48.6083 122.998 48.5043 123.045 48.4033 123.11L47.2683 123.841C46.0303 124.637 44.7493 125.461 43.5033 126.293C43.0153 126.62 42.5173 127.031 41.9793 127.552C40.9793 128.521 40.7393 129.679 41.2863 130.9L41.3623 131.071C41.6203 131.648 41.8863 132.245 42.2043 132.812L42.7003 133.7C43.4873 135.108 44.3003 136.564 45.1713 137.957C46.3493 139.842 47.5873 141.731 48.7843 143.558C49.2243 144.228 49.6633 144.898 50.1013 145.57C50.1913 145.707 50.2973 145.823 50.3913 145.925C50.4273 145.964 50.4633 146.003 50.4963 146.041C50.5663 146.123 50.6673 146.168 50.7723 146.168C50.8053 146.168 50.8393 146.164 50.8713 146.154C51.9633 145.844 53.9413 144.562 54.7913 143.612C54.8953 143.495 54.9133 143.324 54.8343 143.187C54.2623 142.198 53.6953 141.205 53.1273 140.209Z" fill="#B1B1B1"/>
<path d="M55.9228 214.797C53.1218 214.831 50.3948 214.621 47.6638 214.595C47.5848 214.594 47.5068 214.535 47.4378 214.507C47.4188 214.436 47.3838 214.378 47.3918 214.326C50.6528 194.564 53.9158 174.803 57.1668 155.111C57.4108 154.841 57.6518 154.915 57.8768 154.932C59.8188 155.078 61.7608 155.232 63.7028 155.375C65.3558 155.498 67.0088 155.63 68.6628 155.72C70.7248 155.832 72.7888 155.903 74.8508 155.994C75.0808 156.004 75.3088 156.036 75.5758 156.061C75.6788 156.314 75.7818 156.549 75.8698 156.79C76.8878 159.579 77.6868 162.435 78.4108 165.311C79.5738 169.935 80.7188 174.562 81.8388 179.196C82.9188 183.662 83.8508 188.16 84.5998 192.693C85.1268 195.877 85.6508 199.062 86.0908 202.258C86.4718 205.022 86.7328 207.803 87.0438 210.576C87.1348 211.386 87.2298 212.194 87.3018 213.005C87.3298 213.318 87.4118 213.636 87.3158 213.943C87.1178 214.151 86.8718 214.083 86.6478 214.087C85.2818 214.115 83.9138 214.125 82.5468 214.163C81.6178 214.189 80.6888 214.255 79.7588 214.298C79.5588 214.308 79.3578 214.3 79.1158 214.3C79.0728 214.116 79.0088 213.957 79.0028 213.796C78.9168 211.554 78.5768 209.341 78.3088 207.118C77.7568 202.553 76.9508 198.034 76.0308 193.532C75.2848 189.885 74.4668 186.255 73.3828 182.693C72.7828 180.72 72.1298 178.758 71.4088 176.825C70.1178 173.366 68.7638 169.932 67.4248 166.491C67.1398 165.76 66.8128 165.045 66.4898 164.33C66.3828 164.093 66.2448 163.866 66.0918 163.656C65.9398 163.447 65.7188 163.395 65.4058 163.526C65.3518 163.662 65.2488 163.838 65.2138 164.027C64.8528 165.971 64.5028 167.917 64.1498 169.862C63.5438 173.209 62.9378 176.556 62.3288 179.903C61.7778 182.934 61.2228 185.966 60.6708 188.997C60.0448 192.429 59.4198 195.861 58.7968 199.294C58.1908 202.641 57.5878 205.989 56.9828 209.337C56.6828 210.995 56.3828 212.655 56.0788 214.313C56.0528 214.454 55.9918 214.588 55.9228 214.797Z" fill="black"/>
<path d="M88.4927 130.31C87.9427 129.387 87.3987 128.458 86.8307 127.544C85.0507 124.68 83.3117 121.789 81.2297 119.124C79.9007 117.423 78.4447 115.849 76.8367 114.407C75.7157 113.402 74.3827 112.883 72.9577 112.535C72.3277 112.382 71.6907 112.365 71.0507 112.443C69.8627 112.588 68.7117 112.882 67.5907 113.302C64.9457 114.292 62.4067 115.518 59.9037 116.812C58.2787 117.653 56.7007 118.585 55.1137 119.499C53.4767 120.441 51.8527 121.407 50.2287 122.373C50.0137 122.501 49.7427 122.583 49.6387 122.926C51.0417 125.911 52.8277 128.667 55.2867 130.995C56.5607 130.157 57.7937 129.344 59.0487 128.517L59.0667 128.455C59.1557 128.478 59.2467 128.49 59.3377 128.5C59.3967 128.713 59.4897 128.914 59.6177 129.091L59.5877 129.225C59.0387 131.752 58.5297 134.288 58.0387 136.826C57.6197 138.994 57.2447 141.171 56.8627 143.346C56.7477 144.002 56.6737 144.665 56.5857 145.286C56.7667 145.621 56.9077 145.908 57.0717 146.181C57.9897 147.707 57.4307 149.484 56.2797 150.322C56.1397 150.424 56.0097 150.539 55.8417 150.676C55.7137 151.578 55.5707 152.495 55.5207 153.422C55.5117 153.585 55.5357 153.749 55.5457 153.935C55.8547 153.97 56.1117 154.007 56.3707 154.025C58.7767 154.2 61.1827 154.372 63.5887 154.543C65.1837 154.656 66.7777 154.773 68.3727 154.877C69.6197 154.958 70.8677 155.039 72.1167 155.087C73.8267 155.154 75.5387 155.193 77.2497 155.234C77.4097 155.239 77.5717 155.171 77.7217 155.139C77.7467 155.003 77.7747 154.92 77.7767 154.835C77.8307 152.597 77.8867 150.36 77.9347 148.121C77.9817 145.97 78.0197 143.82 78.0627 141.67C78.0837 140.652 78.1017 139.635 78.1347 138.617C78.1357 138.577 78.1337 138.537 78.1317 138.497C78.2147 138.346 78.2747 138.185 78.3147 138.016L78.3187 137.994C78.3817 137.714 78.3857 137.42 78.3297 137.138C78.3187 137.017 78.3087 136.896 78.2967 136.775C78.5607 137.351 78.8197 137.928 79.0667 138.512C79.1287 138.658 79.2517 138.778 79.3447 138.908C79.5027 138.84 79.6147 138.805 79.7147 138.747C82.6737 137.022 85.3597 134.955 87.6697 132.417C88.0797 131.966 88.4697 131.495 88.7957 130.885C88.6807 130.666 88.5957 130.483 88.4927 130.31Z" fill="#4C0B2E"/>
<path d="M74.0847 105.248C73.6337 106.36 73.1437 107.405 72.4607 108.341C72.1157 108.21 72.1457 107.896 72.0307 107.674C71.9117 107.443 71.8487 107.182 71.6187 107.029C71.3877 106.931 71.2057 107.016 71.0817 107.196C70.8347 107.556 70.6137 107.932 70.3717 108.294C70.2147 108.53 70.1427 108.832 69.8807 108.981C69.6987 108.983 69.7127 108.837 69.6807 108.743C69.3067 107.629 68.7357 106.622 68.0357 105.683C67.1227 104.455 66.4787 103.096 66.0967 101.615C65.5727 99.5817 66.5357 97.4137 68.4487 96.5057C69.0547 96.2187 69.3407 95.9297 69.3027 95.2097C69.2487 94.1877 69.8737 93.3827 70.8767 93.0487C71.4517 92.8567 72.0577 92.7337 72.6597 92.6497C74.2837 92.4257 75.8367 91.9507 77.3587 91.3677C78.2597 91.0237 79.0837 90.5337 79.8377 89.9267C80.2007 89.6357 80.5707 89.3467 80.9727 89.1177C81.2947 88.9347 81.6627 88.8207 82.0227 88.7197C82.2187 88.6647 82.4347 88.7287 82.5627 88.9187C82.6947 89.1137 82.6427 89.3087 82.5237 89.4887C82.4167 89.6517 82.2997 89.8087 82.2057 89.9417C82.2867 90.2107 82.4607 90.2267 82.6407 90.2177C83.0757 90.1947 83.5107 90.1447 83.9457 90.1497C84.2617 90.1537 84.5887 90.1897 84.8907 90.2807C85.7017 90.5237 85.9397 91.1087 85.5057 91.8247C85.2977 92.1687 84.9917 92.4527 84.7487 92.7777C84.6547 92.9047 84.6147 93.0707 84.5617 93.1907C84.7827 93.4977 85.0597 93.4467 85.3147 93.4577C85.6687 93.4717 86.0157 93.4977 86.3017 93.8507C86.2757 93.9757 86.2767 94.1547 86.2037 94.2947C85.9687 94.7517 85.5667 95.0427 85.1297 95.2867C84.4407 95.6697 83.7117 95.9587 82.9517 96.1657C81.2147 96.6387 79.4737 97.0997 77.7337 97.5647C77.4807 97.6327 77.2207 97.6767 76.9747 97.7617C76.8467 97.8057 76.7427 97.9147 76.6447 97.9837C76.8067 99.3747 76.8207 100.128 76.6867 100.636C76.3407 102.914 75.8297 104.674 74.0847 105.248Z" fill="black"/>
<path d="M75.6998 109.279C75.2078 110.218 75.2978 111.342 74.9118 112.371C74.2128 112.186 73.5588 111.956 72.8858 111.851C72.2068 111.744 71.5098 111.759 70.8138 111.721C70.7918 111.681 70.7358 111.629 70.7428 111.586C70.8898 110.551 71.2248 109.562 71.4888 108.504C71.8718 108.688 71.7968 109.251 72.2498 109.288C72.5838 109.3 72.7778 109.078 72.9268 108.825C73.3418 108.127 73.7458 107.423 74.1388 106.712C74.3208 106.383 74.4658 106.034 74.6358 105.675H75.3608C75.4078 105.549 75.4528 105.426 75.4878 105.331C75.4198 105.241 75.3948 105.179 75.3488 105.152C75.2508 105.094 75.1438 105.046 75.0368 105.005C74.4188 104.77 74.1548 104.279 74.0798 103.664C73.9818 102.863 74.1358 102.1 74.4828 101.378C74.5678 101.2 74.7028 101.034 74.8438 100.893C75.1848 100.551 75.5588 100.551 75.9218 100.885C76.3608 101.29 76.4688 101.829 76.4808 102.392C76.4858 102.62 76.4408 102.848 76.4218 103.03C76.5618 103.315 76.7418 103.328 77.0158 103.202C77.0688 103.062 77.1668 102.883 77.2048 102.693C77.3878 101.778 77.4468 100.853 77.4198 99.9205C77.4058 99.4045 77.3088 98.8855 77.4318 98.3185C78.3898 98.0765 79.3378 97.8365 80.3368 97.5845C80.3968 97.6765 80.4508 97.7455 80.4908 97.8225C81.7448 100.238 82.1298 102.763 81.4258 105.417C81.1928 106.295 80.8058 107.106 80.2228 107.814C79.5308 108.654 78.6668 109.204 77.5678 109.323C77.2848 109.354 76.9918 109.327 76.7048 109.304C76.3908 109.278 76.0818 109.164 75.6998 109.279Z" fill="#FFC9B5"/>
<path d="M87.785 220.486C87.472 220.826 87.182 220.879 86.907 220.966C85.68 221.354 84.41 221.466 83.136 221.555C82.815 221.577 82.506 221.503 82.18 221.374C81.969 219.27 81.757 217.171 81.541 215.021C82.493 214.802 83.481 214.938 84.451 214.832C85.401 214.727 86.358 214.791 87.341 214.796C87.657 215.764 87.52 216.731 87.632 217.669C87.746 218.613 87.741 219.571 87.785 220.486Z" fill="#FFC9B5"/>
<path d="M52.6399 145.817C53.3499 145.299 54.0269 144.803 54.7079 144.313C54.7749 144.265 54.8659 144.252 54.9949 144.205C55.6299 145.173 56.2669 146.14 56.6939 147.225C57.0219 148.058 56.6699 148.756 56.1879 149.403C56.0529 149.585 55.8579 149.735 55.6649 149.858C54.6839 150.483 53.6769 151.064 52.5809 151.462C52.2049 151.599 51.7959 151.657 51.3979 151.723C51.0989 151.773 50.8149 151.666 50.5759 151.495C49.9979 151.08 49.7159 150.49 49.6509 149.795C49.6309 149.576 49.7329 149.401 49.9389 149.295C50.2019 149.232 50.3729 149.385 50.5419 149.553C50.7249 149.736 50.8969 149.939 51.1099 150.079C51.3219 150.22 51.5529 150.197 51.7199 149.882C51.6679 149.756 51.6109 149.599 51.5379 149.45C51.1469 148.643 51.5189 147.773 52.3789 147.511C52.5979 147.443 52.8259 147.407 53.0679 147.353C53.1449 147.187 53.2159 147.034 53.2979 146.858C53.1989 146.676 53.1109 146.497 53.0049 146.329C52.9009 146.163 52.7779 146.007 52.6399 145.817Z" fill="#FFC9B5"/>
<path d="M53.4401 215.535C53.3931 216.351 53.3091 217.094 53.2131 217.837C53.1161 218.585 53.0381 219.335 52.9481 220.117C52.8121 220.166 52.6831 220.248 52.5511 220.253C51.0121 220.302 49.4731 220.341 47.9331 220.378C47.8521 220.38 47.7691 220.345 47.6901 220.328C47.6691 219.615 48.1961 216.345 48.4811 215.43C49.0111 215.276 49.5601 215.449 50.1041 215.427C50.6551 215.403 51.2091 215.433 51.7601 215.461C52.3021 215.488 52.8531 215.439 53.4401 215.535Z" fill="#FFC9B5"/>
<path opacity="0.1" d="M66.0918 163.656C66.0918 163.656 74.2178 176.543 77.6448 193.931C81.0698 211.319 80.8118 214.772 80.8118 214.772H78.7428C78.7428 214.772 77.5518 188.455 66.0918 163.656Z" fill="black"/>
<path opacity="0.1" d="M80.8125 214.772L87.785 214.421V215.714L81.5402 218.165L80.8125 214.772Z" fill="black"/>
<path opacity="0.1" d="M75.705 155.761L60.147 154.682L61.196 121.808L57.712 126.34C56.555 127.845 54.44 128.215 52.841 127.192L50.889 125.943L49.171 123.118L50.011 130.681L52.79 128.709L55.408 131.489L59.448 128.709L56.475 144.513L56.055 144.933C56.055 144.933 57.412 146.236 55.99 148.026C53.986 150.988 50.308 151.324 50.308 151.324C51.554 153.493 55.344 150.428 55.344 150.428V154.452L56.779 154.709L53.744 173.505L46.957 214.801H48.169L47.689 217.525L53.89 216.215L53.938 215.1L48.848 214.801L58.533 162.384C59.05 159.583 61.427 157.507 64.272 157.372L75.705 156.828L76.143 156.731L75.705 155.761Z" fill="black"/>
<path opacity="0.1" d="M89.348 133.823C89.348 133.823 87.74 137.632 84.583 139.101L82.832 137.177C82.832 137.177 86.565 134.705 88.359 132.232L89.348 133.823Z" fill="black"/>
<path d="M56.3558 99.8557C55.3998 98.4117 54.1328 97.4348 52.5508 96.7377C52.9598 96.3927 53.3138 96.1397 53.6098 95.8327C53.8898 95.5427 54.1378 95.2117 54.3478 94.8667C54.5718 94.4987 54.7348 94.0927 54.9268 93.6978C55.5998 94.1877 56.2418 94.6807 56.9098 95.1328C57.5798 95.5878 58.3718 95.7937 59.1948 96.1237C58.8888 96.4507 58.6308 96.7117 58.3898 96.9897C58.1238 97.2968 57.8628 97.6107 57.6208 97.9357C57.3948 98.2388 57.1978 98.5627 56.9858 98.8747C56.7788 99.1787 56.6668 99.5497 56.3558 99.8557Z" fill="#4C0B2E"/>
<path d="M60.7441 88.5487C61.0121 88.1697 61.2821 87.8297 61.5061 87.4617C61.7291 87.0957 61.9061 86.7017 62.1111 86.3047C62.5861 86.6187 63.0231 86.9537 63.5021 87.2127C63.9581 87.4597 64.4571 87.6257 64.9811 87.8467C64.7851 88.3097 64.3921 88.6307 64.1641 89.0567C63.9361 89.4827 63.7011 89.9047 63.4401 90.3817C63.1551 90.0837 62.9391 89.8117 62.6771 89.5957C62.3881 89.3567 62.0701 89.1467 61.7401 88.9677C61.4381 88.8027 61.1041 88.6967 60.7441 88.5487Z" fill="#4C0B2E"/>
<path d="M60.5359 108.159C60.2589 107.883 60.0209 107.647 59.7559 107.383C59.9749 107.11 60.2049 106.821 60.4709 106.489C60.7459 106.767 61.0009 107.025 61.2629 107.29C61.0549 107.654 60.7709 107.89 60.5359 108.159Z" fill="#4C0B2E"/>
<path d="M60.7071 95.8985C60.5971 96.0195 60.5021 96.1685 60.3681 96.2625C58.5931 97.5065 57.4171 99.1845 56.7421 101.23C56.7071 101.34 56.6791 101.459 56.6151 101.552C56.5531 101.64 56.4531 101.752 56.3631 101.759C56.2401 101.767 56.1111 101.684 55.9601 101.632C56.0421 100.472 55.4131 99.6875 54.6601 98.9725C53.7581 98.1185 52.7051 97.5285 51.5051 97.2025C51.3421 97.1575 51.1831 97.0915 51.0281 97.0215C50.9821 97.0005 50.9581 96.9315 50.9221 96.8825C50.8731 96.6465 51.0111 96.4945 51.1811 96.3785C51.2981 96.2985 51.4421 96.2535 51.5801 96.2085C53.2321 95.6665 54.0221 94.4435 54.2731 92.7975C54.3121 92.5415 54.3201 92.2825 54.3451 91.9865C54.5211 91.9525 54.6761 91.9225 54.8181 91.8945C54.8871 91.9745 54.9431 92.0105 54.9611 92.0605C55.2741 92.9125 55.8711 93.5325 56.5931 94.0455C57.6501 94.7955 58.8001 95.3155 60.1061 95.4545C60.2681 95.4715 60.4311 95.5565 60.5771 95.6395C60.6371 95.6745 60.6531 95.7855 60.7071 95.8985ZM56.3561 99.8555C56.6671 99.5495 56.7791 99.1785 56.9861 98.8745C57.1981 98.5625 57.3951 98.2385 57.6211 97.9355C57.8631 97.6105 58.1241 97.2965 58.3901 96.9895C58.6311 96.7115 58.8891 96.4505 59.1951 96.1235C58.3721 95.7935 57.5801 95.5875 56.9101 95.1325C56.2421 94.6805 55.6001 94.1875 54.9271 93.6975C54.7351 94.0925 54.5721 94.4985 54.3481 94.8665C54.1381 95.2115 53.8901 95.5425 53.6101 95.8325C53.3141 96.1395 52.9601 96.3925 52.5511 96.7375C54.1331 97.4345 55.4001 98.4115 56.3561 99.8555Z" fill="black"/>
<path d="M63.8305 92.0427C63.7275 92.1047 63.6305 92.1637 63.5535 92.2107C63.2905 92.1777 63.1715 92.0337 63.1115 91.8197C63.0485 91.5977 63.0055 91.3647 62.9095 91.1577C62.4045 90.0667 61.5215 89.4837 60.3515 89.3117C60.1225 89.2777 59.8865 89.2937 59.6585 89.2557C59.4455 89.2197 59.2905 89.0937 59.2715 88.8517C59.2955 88.5827 59.5125 88.4727 59.7015 88.3437C60.3175 87.9237 60.7615 87.3587 61.0875 86.6997C61.3345 86.2027 61.5095 85.6847 61.4225 85.1087C61.4035 84.9797 61.4715 84.8367 61.4935 84.7307C61.7355 84.5747 61.9175 84.6147 62.0825 84.7717C62.1245 84.8107 62.1625 84.8577 62.1875 84.9087C62.8255 86.2457 64.0205 86.7727 65.3575 87.0957C65.6375 87.1627 65.9165 87.2317 66.2255 87.3067C66.2675 87.4757 66.3085 87.6347 66.3545 87.8177C64.8715 88.8557 64.1425 90.3257 63.8305 92.0427ZM60.7445 88.5487C61.1045 88.6967 61.4385 88.8027 61.7405 88.9677C62.0705 89.1467 62.3885 89.3567 62.6775 89.5957C62.9395 89.8117 63.1555 90.0837 63.4405 90.3817C63.7015 89.9046 63.9365 89.4827 64.1645 89.0567C64.3925 88.6307 64.7855 88.3097 64.9815 87.8467C64.4575 87.6257 63.9585 87.4597 63.5025 87.2127C63.0235 86.9537 62.5865 86.6187 62.1115 86.3047C61.9065 86.7017 61.7295 87.0957 61.5065 87.4617C61.2825 87.8297 61.0125 88.1697 60.7445 88.5487Z" fill="black"/>
<path d="M58.3716 107.12C58.5476 107.056 58.6806 107.004 58.8156 106.958C59.3146 106.786 59.6366 106.437 59.8346 105.958C59.9116 105.772 59.9836 105.578 60.0946 105.414C60.1696 105.303 60.3096 105.238 60.4626 105.12C60.6256 105.263 60.8376 105.362 60.9046 105.522C61.1596 106.135 61.5736 106.594 62.1196 106.953C62.1426 106.968 62.1626 106.991 62.1826 107.012C62.3586 107.198 62.3646 107.458 62.1896 107.634C62.1296 107.695 62.0596 107.748 61.9886 107.797C61.4956 108.129 61.1476 108.584 60.8706 109.101C60.8166 109.203 60.7476 109.295 60.6646 109.424C60.5136 109.432 60.3506 109.441 60.2206 109.448C60.1466 109.366 60.0866 109.33 60.0726 109.28C59.8606 108.53 59.4246 107.999 58.6446 107.793C58.5636 107.772 58.4926 107.711 58.4206 107.663C58.3346 107.604 58.3246 107.512 58.3716 107.12ZM60.5356 108.159C60.7706 107.89 61.0546 107.654 61.2626 107.29C61.0006 107.025 60.7456 106.767 60.4706 106.489C60.2046 106.821 59.9746 107.11 59.7556 107.383C60.0206 107.647 60.2586 107.883 60.5356 108.159Z" fill="black"/>
<path d="M76.143 166.558C76.012 166.672 75.893 166.777 75.796 166.863C75.443 166.758 75.373 166.499 75.287 166.253C75.003 165.429 74.715 164.607 74.43 163.784C73.898 162.249 73.366 160.713 72.838 159.176C72.745 158.905 72.67 158.629 72.582 158.34C72.718 158.221 72.821 158.131 72.95 158.018C73.083 158.128 73.208 158.201 73.292 158.307C73.36 158.394 73.382 158.519 73.42 158.628C74.285 161.123 75.15 163.619 76.013 166.115C76.06 166.25 76.094 166.389 76.143 166.558Z" fill="#3C3372"/>
<path d="M153.877 230.012C152.788 230.008 151.97 229.511 151.456 228.574C150.782 227.344 150.843 226.106 151.632 224.948C152.25 224.04 153.134 223.583 154.249 223.703C155.326 223.819 156.063 224.437 156.507 225.4C157.113 226.714 156.801 228.289 155.771 229.255C155.238 229.754 154.61 230.013 153.877 230.012ZM156.033 226.853C156.08 226.208 155.875 225.648 155.471 225.159C155.05 224.652 154.237 224.179 153.275 224.57C152.359 224.943 151.878 225.673 151.792 226.645C151.701 227.685 152.051 228.538 152.995 229.058C153.595 229.388 154.227 229.361 154.822 229.015C155.647 228.534 156.009 227.784 156.033 226.853Z" fill="black"/>
<path d="M124.989 230.36C123.855 230.366 123.066 229.89 122.519 229.012C121.773 227.816 121.896 226.183 122.792 225.093C124.087 223.518 126.405 223.725 127.403 225.504C128.148 226.833 127.892 228.565 126.798 229.595C126.267 230.095 125.642 230.363 124.989 230.36ZM127.069 226.844C127.093 226.487 126.864 225.876 126.366 225.382C125.778 224.799 125.067 224.609 124.291 224.922C123.373 225.292 122.895 226.026 122.81 226.998C122.719 228.037 123.07 228.89 124.015 229.409C124.617 229.738 125.248 229.71 125.842 229.363C126.665 228.881 127.031 228.132 127.069 226.844Z" fill="black"/>
<path d="M122.976 182.324C122.916 181.244 123.237 175.674 123.397 174.963C123.894 174.928 124.409 174.872 124.926 174.859C126.902 174.813 128.879 174.786 130.855 174.741C133.122 174.688 135.387 174.625 137.654 174.561C139.455 174.509 141.255 174.443 143.057 174.392C145.293 174.327 147.53 174.274 149.767 174.207C150.29 174.192 150.811 174.137 151.333 174.114C151.499 174.106 151.667 174.14 151.839 174.156C151.849 174.288 151.874 174.376 151.859 174.455C151.63 175.683 151.584 176.938 151.284 178.156C151.013 179.258 150.894 180.386 150.78 181.513C150.76 181.712 150.71 181.908 150.676 182.088C150.354 182.292 150.024 182.222 149.713 182.224C147.503 182.238 145.294 182.236 143.084 182.245C136.717 182.27 130.349 182.298 123.982 182.324C123.665 182.325 123.349 182.324 122.976 182.324Z" fill="#4C0B2E"/>
<path d="M152.412 176.728C154.851 176.551 157.309 176.513 159.707 176.561C159.911 176.723 159.882 176.878 159.847 177.011C159.445 178.586 159.175 180.195 158.634 181.735C158.596 181.843 158.549 181.948 158.512 182.039C157.929 182.199 155.447 182.266 152.237 182.21C152.015 182.206 151.793 182.163 151.578 182.137C151.581 180.876 152.013 178.081 152.412 176.728Z" fill="#4C0B2E"/>
<path d="M109.5 176.346C109.244 176.419 108.999 176.514 108.746 176.556C107.514 176.759 106.278 176.908 105.029 176.983C103.843 177.055 102.663 177.22 101.479 177.33C100.439 177.426 99.3985 177.52 98.3565 177.578C98.0175 177.596 97.6685 177.512 97.3305 177.44C97.0875 177.389 96.9515 177.186 96.8585 176.965C96.7615 176.734 96.8275 176.492 97.0305 176.348C97.1015 176.297 97.1745 176.248 97.2545 176.216C98.5485 175.694 99.8504 175.209 101.26 175.096C101.751 175.057 102.237 174.957 102.728 174.909C103.449 174.84 104.172 174.76 104.895 174.748C105.969 174.728 107.044 174.765 108.117 174.778C108.606 174.784 109.025 174.963 109.364 175.313C109.624 175.583 109.758 175.886 109.5 176.346Z" fill="#4C0B2E"/>
<path opacity="0.1" d="M155.725 176.161L155.046 182.324L151.578 182.136L152.412 176.727L155.725 176.161Z" fill="black"/>
<path opacity="0.1" d="M123.071 179.11L151.864 178.218L151.174 182.946L122.025 182.314L123.071 179.11Z" fill="black"/>
<path d="M156.034 226.853C156.01 227.784 155.648 228.534 154.823 229.015C154.228 229.361 153.596 229.388 152.996 229.058C152.052 228.538 151.702 227.685 151.793 226.645C151.879 225.673 152.36 224.943 153.276 224.57C154.238 224.179 155.051 224.652 155.472 225.159C155.876 225.648 156.081 226.208 156.034 226.853ZM154.607 226.756C154.61 226.411 154.444 226.187 154.19 226.157C153.861 226.118 153.546 226.309 153.438 226.611C153.316 226.955 153.506 227.332 153.855 227.438C154.143 227.525 154.49 227.307 154.576 226.978C154.597 226.896 154.6 226.809 154.607 226.756Z" fill="#4C0B2E"/>
<path d="M127.07 226.845C127.032 228.133 126.666 228.882 125.843 229.364C125.249 229.711 124.618 229.739 124.016 229.41C123.071 228.891 122.72 228.038 122.811 226.999C122.896 226.027 123.374 225.293 124.292 224.923C125.068 224.61 125.779 224.8 126.367 225.383C126.865 225.877 127.094 226.488 127.07 226.845ZM125.596 227.169C125.626 226.857 125.314 226.475 124.988 226.423C124.622 226.365 124.274 226.684 124.247 227.103C124.225 227.452 124.462 227.766 124.771 227.796C125.136 227.83 125.564 227.506 125.596 227.169Z" fill="#4C0B2E"/>
<path d="M123.385 223.098C123.143 222.856 123.1 222.532 123.024 222.224C122.324 219.373 121.638 216.519 120.928 213.669C119.916 209.608 118.993 205.524 117.839 201.498C117.479 200.241 117.205 198.959 116.862 197.697C116.289 195.594 115.69 193.498 115.106 191.397C114.421 188.932 113.74 186.466 113.057 184.001C112.545 182.152 112.036 180.302 111.517 178.455C111.407 178.064 111.274 177.677 111.12 177.301C110.989 176.986 110.866 176.647 110.533 176.487C110.483 176.501 110.444 176.498 110.429 176.516C109.895 177.145 109.148 177.277 108.394 177.376C107.098 177.546 105.8 177.707 104.49 177.763C103.708 177.797 102.93 177.93 102.15 178.014C100.762 178.162 99.3743 178.325 97.9742 178.288C97.6603 178.278 97.3423 178.214 97.0373 178.132C96.7173 178.047 96.4872 177.817 96.3123 177.537C95.8393 176.78 96.0672 175.926 96.8833 175.57C97.5483 175.281 98.2323 175.025 98.9263 174.817C99.5363 174.635 100.167 174.498 100.798 174.415C102.094 174.245 103.394 174.076 104.698 173.998C105.77 173.934 106.85 173.987 107.926 174.012C108.575 174.028 109.211 174.146 109.701 174.619C109.969 174.878 110.185 175.188 110.511 175.579C111.27 175.833 111.693 176.553 111.947 177.383C112.322 178.605 112.659 179.839 113.01 181.069C113.082 181.32 113.133 181.578 113.212 181.827C113.353 182.275 113.477 182.372 113.97 182.38C114.581 182.389 115.192 182.372 115.803 182.369C117.462 182.359 119.12 182.351 120.779 182.34C121.183 182.338 121.588 182.324 122.024 182.314C122.075 182.113 122.142 181.953 122.153 181.79C122.28 179.875 122.394 177.96 122.524 176.044C122.558 175.555 122.637 175.067 122.687 174.65C122.898 174.332 123.157 174.307 123.423 174.295C124.644 174.238 125.863 174.165 127.084 174.124C129.38 174.048 131.678 173.998 133.975 173.923C136.592 173.838 139.207 173.73 141.824 173.643C144.412 173.557 146.999 173.487 149.587 173.407C150.343 173.383 151.099 173.346 151.855 173.318C152.118 173.308 152.383 173.302 152.578 173.574C152.512 174.331 152.445 175.105 152.374 175.928C152.561 175.961 152.727 176.031 152.882 176.012C154.417 175.819 155.962 175.88 157.502 175.824C158.17 175.8 158.839 175.775 159.508 175.759C159.886 175.749 160.264 175.765 160.605 175.91C160.794 176.063 160.859 176.241 160.806 176.462C160.423 178.042 160.043 179.624 159.657 181.204C159.589 181.484 159.5 181.758 159.406 182.088C159.619 182.117 159.784 182.159 159.949 182.159C160.793 182.162 161.637 182.155 162.48 182.151C162.721 182.15 162.951 182.171 163.088 182.47C163.018 182.86 162.888 183.267 162.706 183.663C159.625 190.377 156.55 197.092 153.472 203.806C153.328 204.12 153.165 204.425 153.006 204.742C152.768 204.767 152.57 204.801 152.37 204.805C151.032 204.828 149.694 204.841 148.356 204.865C145.883 204.91 143.411 204.958 140.939 205.008C137.595 205.076 134.25 205.149 130.905 205.218C128.113 205.275 125.321 205.328 122.529 205.388C121.773 205.404 121.017 205.437 120.262 205.468C120.12 205.474 119.98 205.507 119.786 205.536C119.755 205.846 119.852 206.116 119.918 206.386C120.44 208.533 120.967 210.678 121.489 212.825C122.175 215.649 122.856 218.475 123.544 221.299C123.633 221.664 123.75 222.023 123.845 222.355C124.159 222.533 124.456 222.475 124.74 222.469C127.125 222.422 129.509 222.362 131.894 222.315C133.116 222.291 134.338 222.291 135.56 222.268C138.468 222.214 141.376 222.152 144.285 222.094C147.193 222.035 150.101 221.976 153.01 221.92C153.242 221.915 153.479 221.903 153.705 221.943C153.826 221.966 153.929 222.094 154.019 222.16C154.008 222.45 153.874 222.582 153.645 222.612C153.472 222.634 153.297 222.635 153.122 222.638C150.389 222.694 147.655 222.753 144.921 222.805C143.787 222.827 142.652 222.832 141.517 222.854C138.638 222.91 135.759 222.969 132.879 223.028C130 223.086 127.121 223.144 124.242 223.201C123.953 223.205 123.658 223.244 123.385 223.098ZM122.975 182.323C123.348 182.323 123.664 182.324 123.981 182.323C130.348 182.297 136.716 182.269 143.083 182.244C145.293 182.235 147.502 182.237 149.712 182.223C150.023 182.221 150.353 182.291 150.675 182.087C150.709 181.907 150.759 181.711 150.779 181.512C150.893 180.385 151.012 179.257 151.283 178.155C151.583 176.937 151.629 175.682 151.858 174.454C151.873 174.375 151.848 174.287 151.838 174.155C151.666 174.139 151.498 174.105 151.332 174.113C150.81 174.136 150.289 174.191 149.766 174.206C147.529 174.273 145.292 174.326 143.056 174.391C141.254 174.442 139.454 174.508 137.653 174.56C135.386 174.624 133.121 174.687 130.854 174.74C128.878 174.785 126.901 174.812 124.925 174.858C124.408 174.871 123.893 174.927 123.396 174.962C123.236 175.673 122.915 181.243 122.975 182.323ZM157.55 193.135C159.045 189.867 160.556 186.565 162.063 183.261C162.096 183.19 162.085 183.098 162.095 183.018C161.862 182.802 161.589 182.876 161.34 182.878C159.8 182.89 158.259 182.917 156.719 182.933C155.846 182.941 154.973 182.933 154.101 182.941C153.937 182.943 153.773 182.986 153.57 183.015C153.422 186.313 153.367 189.562 153.329 192.813C153.327 192.922 153.373 193.033 153.395 193.132C154.098 193.277 156.753 193.283 157.55 193.135ZM141.905 193.149C142.546 193.249 145.588 193.298 146.66 193.228C146.77 193.221 146.876 193.168 147.042 193.12C147.072 191.981 147.101 190.853 147.11 189.725C147.118 188.62 147.143 187.515 147.126 186.41C147.11 185.286 147.209 184.16 147.13 182.97C146.476 182.961 145.87 182.969 145.265 182.973C144.684 182.975 144.102 182.963 143.521 182.982C142.922 183.002 142.313 182.904 141.734 183.058C141.6 184.077 141.739 192.239 141.905 193.149ZM124.705 194.068C124.594 194.031 124.541 193.998 124.487 193.998C123.005 193.993 121.522 193.99 120.04 193.995C119.936 193.995 119.833 194.063 119.69 194.114C119.69 194.424 119.689 194.712 119.69 195C119.699 196.773 119.712 198.546 119.718 200.319C119.722 201.541 119.717 202.762 119.722 203.983C119.723 204.209 119.678 204.452 119.905 204.694C120.667 204.745 121.477 204.677 122.286 204.663C123.09 204.649 123.9 204.742 124.731 204.576C124.75 204.343 124.778 204.146 124.782 203.949C124.858 199.596 124.823 194.93 124.705 194.068ZM146.921 204.072C146.931 203.568 146.944 203.106 146.948 202.645C146.964 200.872 146.973 199.099 146.995 197.325C147.005 196.425 147.042 195.524 147.053 194.622C147.056 194.428 147.002 194.234 146.967 193.987C146.088 193.985 145.248 193.97 144.407 193.985C143.575 194 142.737 193.911 141.877 194.053C141.859 194.235 141.831 194.374 141.833 194.515C141.88 197.624 141.929 200.734 141.983 203.844C141.986 203.977 142.048 204.108 142.078 204.221C142.832 204.301 146.198 204.204 146.921 204.072ZM141.149 204.24C141.168 203.999 141.197 203.801 141.196 203.603C141.172 200.701 141.146 197.798 141.114 194.896C141.11 194.611 141.136 194.314 140.955 194.029C140.827 194.014 140.685 193.984 140.543 193.985C139.179 193.988 137.815 193.996 136.451 194.007C136.402 194.008 136.353 194.058 136.304 194.086C136.28 194.136 136.237 194.186 136.236 194.237C136.184 197.312 136.135 200.389 136.088 203.464C136.084 203.696 136.1 203.928 136.11 204.16C136.111 204.184 136.135 204.209 136.15 204.233C136.167 204.257 136.186 204.279 136.204 204.301C136.76 204.39 140.182 204.355 141.149 204.24ZM124.768 193.106C124.774 192.834 124.784 192.546 124.786 192.259C124.794 191.182 124.803 190.106 124.806 189.029C124.812 187.225 124.815 185.422 124.812 183.618C124.812 183.453 124.76 183.29 124.726 183.087C124.142 183.006 123.591 183.051 123.045 183.048C122.492 183.044 121.936 183.022 121.387 183.07C120.845 183.117 120.291 183.044 119.763 183.167C119.722 183.299 119.675 183.379 119.675 183.46C119.68 186.602 119.688 189.744 119.7 192.886C119.7 192.968 119.746 193.048 119.777 193.15C119.887 193.177 119.997 193.228 120.108 193.228C121.563 193.229 123.017 193.226 124.471 193.217C124.551 193.217 124.631 193.159 124.768 193.106ZM135.325 204.266C135.338 204.03 135.363 203.773 135.366 203.518C135.375 202.762 135.375 202.006 135.381 201.25C135.397 199.011 135.417 196.772 135.429 194.533C135.43 194.369 135.38 194.207 135.346 194.002C134.552 193.965 133.799 193.97 133.048 193.987C132.275 194.003 131.493 193.892 130.698 194.067C130.681 194.273 130.659 194.443 130.656 194.613C130.622 196.27 130.582 197.927 130.561 199.584C130.544 200.98 130.547 202.376 130.547 203.772C130.547 203.998 130.498 204.242 130.689 204.43C131.918 204.575 134.539 204.489 135.325 204.266ZM130.675 193.139C131.654 193.293 134.749 193.273 135.43 193.117C135.461 192.297 135.503 191.46 135.522 190.623C135.541 189.781 135.537 188.94 135.542 188.098C135.546 187.257 135.548 186.414 135.553 185.573C135.559 184.743 135.656 183.909 135.51 183.039C134.954 182.977 134.434 183.009 133.918 183.004C133.395 183 132.872 182.994 132.35 183.008C131.839 183.022 131.318 182.943 130.77 183.081C130.655 184.335 130.722 185.551 130.702 186.762C130.667 188.877 130.628 190.992 130.675 193.139ZM147.803 193.152C148.419 193.298 148.942 193.229 149.459 193.24C149.952 193.252 150.446 193.259 150.939 193.239C151.451 193.217 151.978 193.342 152.504 193.12C152.762 189.842 152.631 186.561 152.799 183.289C152.804 183.211 152.75 183.129 152.712 183.013C152.209 182.87 151.687 182.958 151.173 182.946C150.622 182.932 150.07 182.928 149.519 182.95C149.011 182.971 148.487 182.848 147.969 183.062C147.844 186.423 147.808 189.752 147.803 193.152ZM136.414 183.028C136.25 183.934 136.183 192.226 136.319 193.144C136.418 193.171 136.527 193.228 136.635 193.228C138.001 193.23 139.367 193.226 140.732 193.217C140.811 193.217 140.89 193.159 140.958 193.133C140.984 193.062 141.021 193.008 141.021 192.954C140.996 189.816 140.971 186.677 140.937 183.539C140.936 183.373 140.87 183.209 140.831 183.028H136.414ZM147.793 194.078C147.784 194.41 147.772 194.698 147.767 194.984C147.732 197.016 147.696 199.048 147.666 201.08C147.654 201.922 147.651 202.763 147.658 203.606C147.66 203.768 147.725 203.931 147.77 204.139C149.164 204.141 150.525 204.166 151.886 204.068C152.02 204.059 152.149 203.987 152.301 203.937C152.316 203.618 152.336 203.33 152.343 203.042C152.371 201.707 152.393 200.372 152.423 199.037C152.458 197.527 152.502 196.019 152.532 194.51C152.535 194.349 152.472 194.187 152.443 194.041C151.466 193.944 148.553 193.961 147.793 194.078ZM129.865 193.194C129.898 192.908 129.936 192.71 129.942 192.511C129.954 192.076 129.949 191.64 129.952 191.204C129.971 188.763 129.992 186.323 130.004 183.883C130.005 183.606 130.104 183.3 129.816 183.014C128.522 183.012 127.19 182.997 125.857 183.064C125.784 183.068 125.713 183.144 125.651 183.18C125.541 184.153 125.536 192.427 125.644 193.113C125.692 193.143 125.74 193.2 125.788 193.201C126.892 193.218 127.994 193.233 129.097 193.24C129.326 193.242 129.554 193.213 129.865 193.194ZM129.762 204.485C129.789 204.265 129.813 204.153 129.814 204.041C129.838 200.845 129.86 197.649 129.878 194.453C129.879 194.319 129.835 194.184 129.805 194.007C129.067 193.958 128.374 193.973 127.682 193.987C126.997 194 126.302 193.892 125.627 194.07C125.603 194.193 125.573 194.277 125.573 194.36C125.56 197.644 125.548 200.927 125.544 204.209C125.544 204.338 125.619 204.467 125.661 204.606C127.036 204.55 128.368 204.605 129.762 204.485ZM152.412 176.727C152.013 178.08 151.581 180.875 151.578 182.136C151.793 182.162 152.015 182.205 152.237 182.209C155.447 182.265 157.929 182.198 158.512 182.038C158.549 181.947 158.596 181.842 158.634 181.734C159.175 180.194 159.445 178.585 159.847 177.01C159.882 176.877 159.911 176.722 159.707 176.56C157.309 176.512 154.851 176.55 152.412 176.727ZM113.666 183.209C113.711 183.466 113.732 183.695 113.792 183.913C114.587 186.769 115.385 189.624 116.187 192.476C116.256 192.72 116.364 192.953 116.442 193.162C117.586 193.31 118.36 193.282 118.92 193.071C118.933 192.882 118.957 192.681 118.959 192.48C118.964 191.898 118.961 191.317 118.961 190.735C118.959 188.495 118.962 186.256 118.953 184.016C118.953 183.735 119.034 183.431 118.817 183.189C118.245 183.103 115.066 183.056 114.022 183.122C113.913 183.13 113.806 183.173 113.666 183.209ZM109.501 176.346C109.759 175.886 109.625 175.583 109.365 175.313C109.026 174.963 108.607 174.784 108.118 174.778C107.045 174.765 105.97 174.728 104.896 174.748C104.173 174.76 103.45 174.84 102.729 174.909C102.238 174.957 101.752 175.057 101.261 175.096C99.8512 175.209 98.5493 175.694 97.2553 176.216C97.1753 176.248 97.1023 176.297 97.0313 176.348C96.8283 176.492 96.7623 176.734 96.8593 176.965C96.9523 177.186 97.0883 177.389 97.3313 177.44C97.6693 177.512 98.0183 177.596 98.3573 177.578C99.3992 177.52 100.44 177.426 101.48 177.33C102.664 177.22 103.844 177.055 105.03 176.983C106.279 176.908 107.515 176.759 108.747 176.556C109 176.514 109.245 176.419 109.501 176.346ZM153.099 202.389C153.154 202.396 153.208 202.403 153.263 202.41C153.378 202.183 153.501 201.96 153.607 201.728C154.673 199.41 155.739 197.091 156.796 194.768C156.898 194.546 157.079 194.332 156.996 194.056C156.156 193.937 153.991 193.95 153.36 194.076C153.333 194.127 153.284 194.176 153.283 194.227C153.211 196.779 153.143 199.33 153.077 201.882C153.072 202.051 153.091 202.22 153.099 202.389ZM116.688 194.048C116.738 194.314 116.758 194.484 116.801 194.648C117.158 195.994 117.522 197.336 117.878 198.681C118.138 199.663 118.382 200.647 118.649 201.627C118.7 201.813 118.692 202.059 119.012 202.149C118.99 199.52 118.969 196.91 118.943 194.301C118.942 194.222 118.886 194.143 118.844 194.035C118.16 193.949 117.478 193.949 116.688 194.048Z" fill="black"/>
<path d="M154.606 226.756C154.599 226.809 154.596 226.896 154.575 226.978C154.489 227.307 154.142 227.525 153.854 227.438C153.505 227.332 153.315 226.955 153.437 226.611C153.545 226.309 153.86 226.118 154.189 226.157C154.443 226.187 154.609 226.411 154.606 226.756Z" fill="white"/>
<path d="M125.595 227.168C125.563 227.505 125.135 227.829 124.77 227.795C124.461 227.765 124.224 227.451 124.246 227.102C124.273 226.683 124.621 226.364 124.987 226.422C125.313 226.474 125.625 226.856 125.595 227.168Z" fill="white"/>
<path d="M80.2654 91.3895C80.0624 91.4065 79.9124 91.4945 79.7944 91.6095C79.0834 91.9215 78.3414 92.1295 77.5714 92.2395C77.0194 92.3195 76.4484 92.4105 76.1434 92.9435C75.9214 93.3315 75.9314 93.8195 76.1944 94.1755C76.5714 94.6875 77.3344 94.7055 77.9194 94.7075C78.9924 94.7095 80.5534 94.4375 81.2544 93.5195C81.8844 92.6945 81.4294 91.2935 80.2654 91.3895Z" fill="#F5F5F5"/>
<path d="M74.1622 94.3023C74.0022 94.0953 73.7382 94.1153 73.5742 94.2353C72.9892 94.2103 72.4702 94.9483 73.0562 95.4393C73.8072 96.0703 74.7292 95.0363 74.1622 94.3023Z" fill="#F5F5F5"/>
<path d="M99.6873 117.834C99.5243 117.399 99.4003 116.811 99.0273 116.502C98.8883 116.387 98.7173 116.322 98.5413 116.296C98.4333 116.179 98.2653 116.117 98.0843 116.209C97.4693 116.524 96.9403 116.951 96.5063 117.489C96.2973 117.749 96.4293 118.114 96.7753 118.139C97.6233 118.197 98.4723 118.256 99.3213 118.315C99.5533 118.331 99.7713 118.057 99.6873 117.834Z" fill="#F5F5F5"/>
<path d="M52.7311 148.08L52.6351 148.27C52.4131 148.705 53.0691 149.091 53.2921 148.654L53.3881 148.465C53.6101 148.029 52.9541 147.643 52.7311 148.08Z" fill="#F5F5F5"/>
<path d="M97.0646 127.476C96.8196 127.034 96.3536 127.029 96.0226 127.241C95.6536 127.136 95.2236 127.27 95.1076 127.75C94.9316 128.471 94.9276 129.181 95.0826 129.906C95.1936 130.422 95.7856 130.559 96.2006 130.361C97.2616 129.855 97.6176 128.475 97.0646 127.476Z" fill="#F5F5F5"/>
<path d="M47.7353 125.449C47.6623 125.431 47.5893 125.411 47.4993 125.418C45.6103 125.554 44.9483 127.208 43.6163 128.258C43.3063 128.502 43.3353 129.085 43.6163 129.334C44.3683 130 45.1753 129.628 45.8613 129.057C46.8433 128.239 47.7983 127.386 48.7653 126.551C49.4933 125.923 48.4713 124.891 47.7353 125.449Z" fill="#F5F5F5"/>
</svg>
