<svg width="14" height="14" viewBox="0 0 14 14" fill="none" xmlns="http://www.w3.org/2000/svg">
<path d="M6.99992 6.76297C6.56198 6.77821 6.12568 6.70186 5.71896 6.53879C5.31223 6.37572 4.94403 6.12953 4.63792 5.81598C4.04576 5.14303 3.71911 4.27737 3.71911 3.38098C3.71911 2.4846 4.04576 1.61893 4.63792 0.945984C5.27434 0.338297 6.12046 -0.000793457 7.00042 -0.000793457C7.88038 -0.000793457 8.7265 0.338297 9.36292 0.945984C9.95508 1.61893 10.2817 2.4846 10.2817 3.38098C10.2817 4.27737 9.95508 5.14303 9.36292 5.81598C9.05669 6.12966 8.68832 6.3759 8.28141 6.53897C7.8745 6.70204 7.43802 6.77835 6.99992 6.76297ZM-8.35536e-05 14V11.881C-0.0147814 11.3616 0.130435 10.8501 0.415917 10.416C0.68437 10.0178 1.05452 9.69877 1.48792 9.49197C2.39147 9.06731 3.3325 8.7275 4.29891 8.47696C5.18154 8.25344 6.08842 8.13993 6.99891 8.13898C7.90717 8.13933 8.81161 8.25663 9.68992 8.48798C10.6496 8.74586 11.5861 9.08302 12.4899 9.49597C12.9344 9.6973 13.3149 10.017 13.5899 10.42C13.8741 10.8535 14.0183 11.3638 14.0029 11.882V14H-8.35536e-05Z" fill="#4C0B2E"/>
</svg>
