<svg width="14" height="14" viewBox="0 0 14 14" fill="none" xmlns="http://www.w3.org/2000/svg">
<path d="M6.5625 3.11325C6.5625 2.90617 6.454 2.71892 6.32858 2.55383C6.19798 2.38663 6.1264 2.18091 6.125 1.96875C6.125 1.36442 6.71242 0.875 7.4375 0.875C8.16258 0.875 8.75 1.365 8.75 1.96875C8.75 2.184 8.67533 2.38467 8.54642 2.55383C8.421 2.71892 8.3125 2.90617 8.3125 3.11325C8.3125 3.30692 8.47467 3.46208 8.66833 3.45042C9.7825 3.38392 10.8792 3.25092 11.9537 3.05608C12.0122 3.04547 12.0723 3.04691 12.1302 3.0603C12.1882 3.0737 12.2428 3.09877 12.2907 3.13398C12.3387 3.1692 12.3789 3.21382 12.409 3.26511C12.4391 3.31641 12.4585 3.37331 12.4658 3.43233C12.5978 4.48756 12.6711 5.54931 12.6852 6.61267C12.6857 6.66349 12.6761 6.71391 12.657 6.76099C12.6379 6.80808 12.6096 6.85089 12.5738 6.88693C12.5379 6.92298 12.4953 6.95154 12.4483 6.97095C12.4013 6.99036 12.351 7.00023 12.3002 7C12.0937 7 11.9064 6.8915 11.7413 6.76608C11.5741 6.63548 11.3684 6.5639 11.1562 6.5625C10.5525 6.5625 10.0625 7.14992 10.0625 7.875C10.0625 8.60008 10.5525 9.1875 11.1562 9.1875C11.3715 9.1875 11.5722 9.11283 11.7413 8.98392C11.9064 8.8585 12.0937 8.75 12.3007 8.75C12.4816 8.75 12.6257 8.90283 12.6122 9.08308C12.5438 10.0304 12.428 10.9736 12.2652 11.9093C12.2497 11.9981 12.2072 12.0798 12.1435 12.1435C12.0798 12.2072 11.9981 12.2497 11.9093 12.2652C10.8477 12.4501 9.76675 12.5761 8.66892 12.6397C8.62294 12.6421 8.57694 12.6352 8.53374 12.6192C8.49055 12.6033 8.45106 12.5787 8.41769 12.547C8.38432 12.5153 8.35778 12.4771 8.3397 12.4347C8.32161 12.3924 8.31235 12.3468 8.3125 12.3007C8.3125 12.0937 8.421 11.9064 8.54642 11.7413C8.67533 11.5722 8.75 11.3715 8.75 11.1562C8.75 10.5525 8.16258 10.0625 7.4375 10.0625C6.71242 10.0625 6.125 10.5525 6.125 11.1562C6.125 11.3715 6.19967 11.5722 6.32858 11.7413C6.454 11.9064 6.5625 12.0937 6.5625 12.3007C6.56267 12.3508 6.5528 12.4004 6.53346 12.4465C6.51412 12.4927 6.48571 12.5345 6.44992 12.5695C6.41412 12.6045 6.37167 12.6319 6.32508 12.6502C6.27848 12.6684 6.2287 12.6772 6.17867 12.6758C5.26039 12.6499 4.34388 12.5798 3.43233 12.4658C3.37331 12.4585 3.31641 12.4391 3.26511 12.409C3.21382 12.3789 3.1692 12.3387 3.13398 12.2907C3.09877 12.2428 3.0737 12.1882 3.0603 12.1302C3.04691 12.0723 3.04547 12.0122 3.05608 11.9537C3.227 11.0122 3.35008 10.0538 3.423 9.08133C3.42605 9.03886 3.4203 8.99621 3.4061 8.95606C3.3919 8.91592 3.36956 8.87914 3.34048 8.84803C3.31139 8.81692 3.2762 8.79216 3.2371 8.77529C3.198 8.75842 3.15583 8.74981 3.11325 8.75C2.90617 8.75 2.71892 8.8585 2.55383 8.98392C2.38467 9.11283 2.184 9.1875 1.96875 9.1875C1.36442 9.1875 0.875 8.60008 0.875 7.875C0.875 7.14992 1.365 6.5625 1.96875 6.5625C2.184 6.5625 2.38467 6.63717 2.55383 6.76608C2.71892 6.8915 2.90617 7 3.11325 7C3.16399 7.00023 3.21428 6.99037 3.26118 6.97099C3.30808 6.95161 3.35065 6.92309 3.38643 6.8871C3.4222 6.85111 3.45046 6.80837 3.46955 6.76135C3.48865 6.71434 3.49821 6.66399 3.49767 6.61325C3.48491 5.67358 3.42455 4.73515 3.31683 3.80158C3.3092 3.73611 3.31646 3.66975 3.33808 3.60747C3.35969 3.5452 3.3951 3.48861 3.44166 3.44194C3.48822 3.39527 3.54472 3.35973 3.60694 3.33796C3.66917 3.3162 3.7355 3.30877 3.801 3.31625C4.58442 3.40667 5.37775 3.46442 6.17925 3.48775C6.2292 3.48908 6.27891 3.48036 6.32544 3.46212C6.37196 3.44388 6.41435 3.41649 6.45009 3.38157C6.48583 3.34664 6.5142 3.3049 6.5335 3.25881C6.55281 3.21272 6.56267 3.16322 6.5625 3.11325Z" fill="#8A184F"/>
</svg>
