<svg width="13" height="14" viewBox="0 0 13 14" fill="none" xmlns="http://www.w3.org/2000/svg">
<g clip-path="url(#clip0_1597_3371)">
<path d="M7.79508 12.4024C7.57155 12.8981 7.42379 13.4359 7.36719 14L12.0975 12.9945C12.321 12.4989 12.4687 11.9609 12.5254 11.3969L7.79508 12.4024Z" fill="black"/>
<path d="M12.0984 9.98193C12.322 9.4864 12.4697 8.94842 12.5263 8.38436L8.84155 9.16805V7.66151L12.0983 6.96941C12.3219 6.47388 12.4696 5.9359 12.5262 5.37184L8.84144 6.15486V0.736889C8.27682 1.05391 7.77539 1.4759 7.36778 1.97365V6.4682L5.89411 6.78143V0C5.32949 0.316908 4.82806 0.739006 4.42044 1.23677V7.09455L1.12311 7.79522C0.899577 8.29075 0.751709 8.82874 0.694991 9.3928L4.42044 8.60109V10.4983L0.427893 11.3467C0.204363 11.8423 0.0566066 12.3802 0 12.9443L4.17908 12.0562C4.51928 11.9854 4.81167 11.7843 5.00177 11.5075L5.76819 10.3713V10.371C5.84775 10.2535 5.89411 10.1117 5.89411 9.95909V8.28786L7.36778 7.97463V10.9877L12.0983 9.98171L12.0984 9.98193Z" fill="black"/>
</g>
<defs>
<clipPath id="clip0_1597_3371">
<rect width="12.5263" height="14" fill="white"/>
</clipPath>
</defs>
</svg>
