<svg width="15" height="15" viewBox="0 0 15 15" fill="none" xmlns="http://www.w3.org/2000/svg">
<path d="M14.3723 0.386806C13.8698 -0.0335108 13.171 -0.118936 12.5838 0.168176L0.9608 5.76369C0.345211 6.05562 -0.0338458 6.69577 0.00238581 7.38226C0.0196061 8.0468 0.428363 8.63645 1.04032 8.87952L3.83953 10.3775L7.1305 7.05079C7.33663 6.85659 7.65784 6.86232 7.85707 7.06375C8.05629 7.26518 8.06196 7.58995 7.86989 7.79836L4.75958 10.9438L9.36959 14.4271C9.82288 14.7995 10.4268 14.9263 10.9893 14.767C11.5507 14.5903 11.9805 14.1306 12.1235 13.554L14.9485 2.12809C15.11 1.48389 14.8848 0.802951 14.3723 0.386806ZM7.24908 14.1379L6.86544 14.5329C6.41557 14.9902 5.73645 15.1262 5.14813 14.8768C4.55981 14.6274 4.17969 14.0424 4.1869 13.3974L4.1869 11.8317L7.24908 14.1379Z" fill="white"/>
</svg>
