<svg width="12" height="12" viewBox="0 0 12 12" fill="none" xmlns="http://www.w3.org/2000/svg">
<g clip-path="url(#clip0_1597_3361)">
<path d="M10.7544 1.24757C9.94975 0.443199 8.88031 0 7.74243 0C6.60478 0 5.53511 0.443199 4.73074 1.24757C4.72652 1.25178 4.72232 1.25603 4.71813 1.26027L0.104925 5.87343C-0.0323708 6.01072 -0.0323708 6.23331 0.104925 6.3706C0.173573 6.43925 0.263548 6.47359 0.3535 6.47359C0.443453 6.47359 0.533452 6.43927 0.602076 6.3706L3.57186 3.40082C3.45256 3.98483 3.45634 4.58921 3.5832 5.17193L2.35502 6.40011C2.21772 6.53741 2.21772 6.75999 2.35502 6.89728C2.42367 6.96593 2.51364 7.00027 2.6036 7.00027C2.69355 7.00027 2.78355 6.96596 2.85217 6.89728L3.82285 5.92661C3.98651 6.31271 4.20963 6.67936 4.49226 7.01248L0.118636 11.3862C-0.01866 11.5234 -0.01866 11.746 0.118636 11.8833C0.187283 11.952 0.277259 11.9863 0.367211 11.9863C0.457163 11.9863 0.547163 11.952 0.615787 11.8833L4.98937 7.50977C5.31116 7.78331 5.66746 8.0047 6.04782 8.16965L5.87077 8.34671C5.73348 8.48401 5.73348 8.70659 5.87077 8.84389C5.93942 8.91254 6.0294 8.94685 6.11935 8.94685C6.2093 8.94685 6.2993 8.91254 6.36793 8.84387L6.7976 8.41419C7.10411 8.48326 7.42054 8.51874 7.7424 8.51874C8.03312 8.51874 8.31936 8.48982 8.59787 8.43334L5.63136 11.3998C5.49407 11.5371 5.49407 11.7597 5.63136 11.897C5.70001 11.9657 5.78999 12 5.87994 12C5.96989 12 6.05989 11.9657 6.12851 11.897L10.7543 7.27125C10.7555 7.27003 10.7567 7.26881 10.7579 7.26757C12.4151 5.60673 12.4139 2.90714 10.7544 1.24757ZM5.56276 6.43916C4.3609 5.23729 4.3609 3.28169 5.56276 2.07982C6.76462 0.877726 8.72046 0.877726 9.92233 2.07982C11.1242 3.28169 11.1242 5.23729 9.92233 6.43916C9.33991 7.02134 8.56601 7.34196 7.74243 7.34196C6.91905 7.34196 6.14494 7.02134 5.56276 6.43916Z" fill="#8A184F"/>
<path d="M9.42414 2.57693C8.96032 2.1131 8.35095 1.88107 7.74158 1.88107C7.13244 1.88107 6.52307 2.1131 6.05902 2.57693C5.13137 3.50457 5.13137 5.01417 6.05902 5.94205C6.50854 6.39134 7.10619 6.63884 7.74158 6.63884C8.3772 6.63884 8.97485 6.39134 9.42414 5.94205C10.352 5.01417 10.352 3.50457 9.42414 2.57693ZM5.75386 4.25925C5.75386 4.06519 5.91113 3.90769 6.10542 3.90769H6.49753C6.69159 3.90769 6.84909 4.06519 6.84909 4.25925C6.84909 4.45355 6.69159 4.61081 6.49753 4.61081H6.10542C5.9111 4.61081 5.75386 4.45355 5.75386 4.25925ZM7.10994 5.3887L6.83268 5.66596C6.76401 5.73463 6.67401 5.76908 6.58401 5.76908C6.49401 5.76908 6.40401 5.73463 6.33534 5.66596C6.19823 5.52862 6.19823 5.3062 6.33534 5.16885L6.61284 4.89159C6.75018 4.75425 6.9726 4.75425 7.10994 4.89159C7.24729 5.0287 7.24729 5.25135 7.10994 5.3887ZM7.11109 3.63043C7.04242 3.6991 6.95242 3.73332 6.86242 3.73332C6.77242 3.73332 6.68243 3.6991 6.61399 3.63043L6.33649 3.35293C6.19915 3.21559 6.19915 2.99317 6.33649 2.85583C6.47383 2.71849 6.69649 2.71849 6.83383 2.85583L7.11109 3.13309C7.24846 3.27043 7.24846 3.49309 7.11109 3.63043ZM8.09314 5.89728C8.09314 6.09134 7.93587 6.24884 7.74158 6.24884C7.54752 6.24884 7.39002 6.09134 7.39002 5.89728V5.50518C7.39002 5.31088 7.54752 5.15362 7.74158 5.15362C7.93587 5.15362 8.09314 5.31088 8.09314 5.50518V5.89728ZM8.09314 3.01684C8.09314 3.2109 7.93587 3.3684 7.74158 3.3684C7.54752 3.3684 7.39002 3.2109 7.39002 3.01684V2.6245C7.39002 2.43044 7.54752 2.27294 7.74158 2.27294C7.93587 2.27294 8.09314 2.43044 8.09314 2.6245V3.01684ZM8.37228 3.13215L8.64954 2.85466C8.78688 2.71731 9.00953 2.71731 9.14688 2.85466C9.28399 2.992 9.28399 3.21465 9.14688 3.35176L8.86938 3.62926C8.80071 3.69793 8.71094 3.73215 8.62094 3.73215C8.53095 3.73215 8.44095 3.69793 8.37228 3.62926C8.23493 3.49192 8.23493 3.26926 8.37228 3.13215ZM9.14781 5.66713C9.07914 5.7358 8.98938 5.77002 8.89938 5.77002C8.80938 5.77002 8.71938 5.7358 8.65071 5.66713L8.37345 5.38987C8.2361 5.25252 8.2361 5.02987 8.37345 4.89253C8.51079 4.75542 8.73321 4.75542 8.87055 4.89253L9.14781 5.17003C9.28516 5.30737 9.28516 5.52979 9.14781 5.66713ZM9.37797 4.61081H8.98586C8.79157 4.61081 8.6343 4.45355 8.6343 4.25925C8.6343 4.06519 8.79157 3.90769 8.98586 3.90769H9.37797C9.57226 3.90769 9.72953 4.06519 9.72953 4.25925C9.72953 4.45355 9.57226 4.61081 9.37797 4.61081Z" fill="#8A184F"/>
<path d="M1.61773 8.13149L2.11686 7.63237C2.25415 7.49507 2.25415 7.27249 2.11686 7.13519C1.97958 6.99792 1.75697 6.99789 1.61968 7.13519L1.12055 7.63432C0.983254 7.77161 0.983254 7.9942 1.12055 8.13149C1.1892 8.20014 1.27918 8.23446 1.36913 8.23446C1.45908 8.23446 1.54908 8.20014 1.61773 8.13149Z" fill="#8A184F"/>
<path d="M5.65263 9.06275C5.51536 8.92545 5.29275 8.92545 5.15545 9.06275L3.31586 10.9023C3.17857 11.0396 3.17857 11.2622 3.31586 11.3995C3.38451 11.4682 3.47449 11.5025 3.56444 11.5025C3.65439 11.5025 3.74439 11.4682 3.81301 11.3995L5.65261 9.55992C5.78992 9.42263 5.78992 9.20004 5.65263 9.06275Z" fill="#8A184F"/>
</g>
<defs>
<clipPath id="clip0_1597_3361">
<rect width="12" height="12" fill="white"/>
</clipPath>
</defs>
</svg>
