<svg width="22" height="22" viewBox="0 0 22 22" fill="none" xmlns="http://www.w3.org/2000/svg">
<g clip-path="url(#clip0_1633_8991)">
<path d="M18.8354 10.9354L15.6908 10.4782C15.5914 10.4641 15.5048 10.4012 15.4711 10.3366C15.4677 10.328 15.457 10.3022 15.4529 10.294L14.0525 7.45943C13.8847 7.11671 13.5434 6.90393 13.1618 6.90393C12.7802 6.90393 12.4389 7.11671 12.2715 7.4584L10.8645 10.3098C10.8188 10.4012 10.7322 10.4641 10.6318 10.4786L7.48787 10.9354C7.1094 10.9904 6.8014 11.25 6.68384 11.6126C6.56662 11.9739 6.66287 12.3634 6.93546 12.6287L9.21281 14.8483C9.28431 14.9181 9.31799 15.0212 9.30012 15.1199L8.76215 18.2552C8.69959 18.631 8.85256 19.0026 9.16056 19.2253C9.46821 19.4481 9.86903 19.4759 10.2052 19.2992L13.0192 17.8211C13.1102 17.774 13.2144 17.774 13.3038 17.8204L16.1191 19.2992C16.2659 19.3762 16.4247 19.4144 16.5828 19.4144C16.787 19.4144 16.9902 19.3508 17.1634 19.2253C17.4714 19.0026 17.6244 18.631 17.5618 18.2528L17.0235 15.1175C17.0063 15.0212 17.04 14.9178 17.1115 14.848L19.3885 12.6287C19.6611 12.3634 19.7573 11.9739 19.6401 11.6126C19.5226 11.25 19.2142 10.9908 18.8361 10.9358L18.8354 10.9354ZM18.9083 12.1361L16.6309 14.3561C16.3958 14.5864 16.2892 14.9161 16.346 15.2357L16.8836 18.3673C16.9032 18.4856 16.8571 18.598 16.7605 18.6681C16.7145 18.7018 16.5911 18.7709 16.4384 18.6904L13.6214 17.2106C13.4781 17.136 13.3203 17.0989 13.1625 17.0989C13.0047 17.0989 12.8459 17.1363 12.7012 17.2116L9.88587 18.6904C9.73428 18.7698 9.60984 18.7014 9.56343 18.6681C9.46684 18.5983 9.42078 18.4859 9.44003 18.3694L9.97765 15.2378C10.0351 14.9157 9.92849 14.5861 9.69303 14.3561L7.41568 12.1361C7.29331 12.0169 7.32081 11.8787 7.33799 11.8247C7.37478 11.7113 7.46793 11.6332 7.58721 11.6161L10.7301 11.1592C11.0529 11.1132 11.3331 10.9103 11.4905 10.592L12.8885 7.76193C12.9662 7.60381 13.1175 7.59143 13.1622 7.59143C13.2068 7.59143 13.3581 7.60381 13.4358 7.76296L14.8252 10.5731C14.829 10.5824 14.8397 10.6085 14.8441 10.6171C14.9906 10.9107 15.2711 11.1132 15.5928 11.1592L18.7367 11.6161C18.856 11.6332 18.9492 11.7113 18.986 11.8247C19.0035 11.8787 19.0307 12.0169 18.9083 12.1361Z" fill="#8A184F"/>
<path d="M20.8043 2.73487L19.2165 2.50422C19.2165 2.50422 19.2159 2.50284 19.2155 2.50216L18.5053 1.06425C18.3915 0.831875 18.1602 0.6875 17.9014 0.6875C17.6425 0.6875 17.4108 0.831875 17.2977 1.06322L16.593 2.50319L14.9977 2.73487C14.7416 2.772 14.5326 2.948 14.4532 3.19378C14.3738 3.43888 14.4388 3.70287 14.6237 3.883L15.7749 4.99709L15.502 6.589C15.4597 6.84337 15.5632 7.09534 15.7718 7.24625C15.9801 7.39681 16.2514 7.41641 16.48 7.29644L17.8948 6.54603L19.3235 7.29644C19.4231 7.34869 19.5307 7.37447 19.6376 7.37447C19.7762 7.37447 19.9137 7.3315 20.0312 7.24625C20.2399 7.09569 20.3437 6.84372 20.3011 6.58728L20.0292 5.00397L21.1794 3.88334C21.3643 3.70322 21.4296 3.43922 21.3499 3.19412C21.2701 2.94834 21.0615 2.77234 20.805 2.73522L20.8043 2.73487ZM19.5431 4.51688C19.3836 4.67328 19.3114 4.89672 19.3499 5.11294L19.4788 5.86369L19.6425 6.68766L18.2121 5.93656C18.0179 5.83584 17.7848 5.8355 17.5885 5.93725L16.1792 6.70347L16.4518 5.11534C16.4906 4.89706 16.4188 4.67328 16.2589 4.51688L15.0964 3.41516L16.6907 3.18347C16.9093 3.15253 17.099 3.01537 17.2046 2.80328L17.888 1.36778L18.5871 2.78025C18.5909 2.78988 18.5985 2.80809 18.6033 2.81703C18.7026 3.01537 18.8924 3.15253 19.1103 3.18347L20.6991 3.39041L19.5431 4.51688Z" fill="#8A184F"/>
<path d="M7.69241 3.86131C7.624 3.65059 7.44491 3.49968 7.22525 3.46771L6.15 3.31131L5.66875 2.33677C5.57113 2.1374 5.37278 2.01331 5.15072 2.01331C4.92866 2.01331 4.72997 2.13706 4.63303 2.33574L4.15178 3.31131L3.07585 3.46771C2.85619 3.49968 2.6771 3.65059 2.60869 3.86165C2.54028 4.07202 2.59666 4.29856 2.75513 4.4529L3.53372 5.2119L3.34947 6.28612C3.31338 6.5044 3.40206 6.72027 3.58116 6.84987C3.68188 6.92274 3.80013 6.95987 3.91872 6.95987C4.01085 6.95987 4.10297 6.93787 4.18822 6.89284L5.15072 6.38718L6.11322 6.89284C6.30881 6.99562 6.54153 6.97946 6.72028 6.84987C6.89938 6.72062 6.98841 6.50474 6.95197 6.28406L6.76772 5.2119L7.54631 4.45324C7.70478 4.2989 7.76116 4.07237 7.69275 3.86165L7.69241 3.86131ZM6.24591 4.75952L6.24488 4.76021C6.10875 4.89427 6.04688 5.08574 6.08022 5.27102L6.23628 6.18024L5.41644 5.74987C5.33325 5.7069 5.24216 5.68524 5.15072 5.68524C5.0586 5.68524 4.96647 5.7069 4.88191 5.75056L4.06413 6.1799L4.21985 5.27274C4.25319 5.0854 4.19166 4.89324 4.0545 4.75918L3.39416 4.11568L4.30544 3.98334C4.49313 3.95652 4.65606 3.83931 4.74544 3.65884L5.15038 2.83968L5.55944 3.66881C5.64469 3.83931 5.80763 3.95687 5.99428 3.98368L6.9066 4.11637L6.24625 4.75987L6.24591 4.75952Z" fill="#8A184F"/>
<path d="M1.87709 21.1926C2.07234 21.3335 2.32569 21.3511 2.53847 21.2393L3.74847 20.6037L4.95847 21.2393C5.05128 21.2882 5.152 21.3122 5.25203 21.3122C5.38128 21.3122 5.50984 21.2717 5.61984 21.1922C5.81475 21.0513 5.91169 20.8158 5.87181 20.5762L5.64047 19.2291L6.61913 18.2752C6.79169 18.1071 6.85288 17.8599 6.77863 17.631C6.70403 17.4014 6.50913 17.2371 6.26953 17.202L4.91825 17.0057L4.31291 15.7806C4.20634 15.5633 3.99013 15.4286 3.74813 15.4286C3.50613 15.4286 3.28991 15.5637 3.18403 15.7796L2.57869 17.0061L1.22672 17.2023C0.987126 17.2374 0.79222 17.4017 0.717626 17.6313C0.643376 17.8606 0.70422 18.1071 0.877126 18.2755L1.85578 19.2294L1.62409 20.579C1.58491 20.8169 1.6815 21.052 1.87675 21.1929L1.87709 21.1926ZM1.44259 17.8658L2.70725 17.6819C2.91178 17.6527 3.08881 17.5244 3.18678 17.3271L3.74881 16.1897L4.31566 17.3385C4.40847 17.5241 4.58584 17.6523 4.78969 17.6815L6.05469 17.8654L5.13894 18.7582C4.99009 18.9036 4.92272 19.1126 4.95881 19.315L5.17503 20.5756L4.03963 19.9792C3.85709 19.8846 3.64019 19.885 3.45697 19.9802L2.32328 20.5756L2.53916 19.3171C2.57559 19.1129 2.50856 18.9039 2.35903 18.7578L1.44328 17.8651L1.44259 17.8658Z" fill="#8A184F"/>
</g>
<defs>
<clipPath id="clip0_1633_8991">
<rect width="22" height="22" fill="white"/>
</clipPath>
</defs>
</svg>
