<svg width="22" height="22" viewBox="0 0 22 22" fill="none" xmlns="http://www.w3.org/2000/svg">
<g clip-path="url(#clip0_1633_8971)">
<path d="M22 2.0625C22 1.30434 21.3832 0.6875 20.625 0.6875H9.625C8.86684 0.6875 8.25 1.30434 8.25 2.0625V5.56529C8.25 5.75513 8.40392 5.90904 8.59375 5.90904C8.78358 5.90904 8.9375 5.75513 8.9375 5.56529V5.15625H21.3125V6.1875C21.3125 6.56667 21.0042 6.875 20.625 6.875H19.8923L20.2235 6.37817C20.3288 6.22023 20.2861 6.00673 20.1282 5.90149C19.9699 5.79575 19.7569 5.83888 19.6515 5.99683L19.066 6.875H17.1423L17.4735 6.37817C17.5788 6.22023 17.5361 6.00673 17.3782 5.90149C17.2199 5.79575 17.0069 5.83888 16.9015 5.99683L16.316 6.875H14.3923L14.7235 6.37817C14.8288 6.22023 14.7861 6.00673 14.6282 5.90149C14.4699 5.79575 14.2567 5.83888 14.1515 5.99683L13.566 6.875H12.595C12.4052 6.875 12.2513 7.02892 12.2513 7.21875C12.2513 7.40858 12.4052 7.5625 12.595 7.5625H13.566L14.1515 8.44067C14.2178 8.54004 14.3267 8.59375 14.4378 8.59375C14.5033 8.59375 14.5696 8.57512 14.6282 8.53601C14.7861 8.43077 14.8288 8.21727 14.7235 8.05933L14.3923 7.5625H16.316L16.9015 8.44067C16.9678 8.54004 17.0767 8.59375 17.1878 8.59375C17.2533 8.59375 17.3196 8.57512 17.3782 8.53601C17.5361 8.43077 17.5788 8.21727 17.4735 8.05933L17.1423 7.5625H19.066L19.6515 8.44067C19.7178 8.54004 19.8267 8.59375 19.9378 8.59375C20.0033 8.59375 20.0696 8.57512 20.1282 8.53601C20.2861 8.43077 20.3288 8.21727 20.2235 8.05933L19.8923 7.5625H20.625C21.0042 7.5625 21.3125 7.87083 21.3125 8.25V9.28125H14.7022C14.5124 9.28125 14.3584 9.43517 14.3584 9.625C14.3584 9.81483 14.5124 9.96875 14.7022 9.96875H21.3125V10.6562H15.3382C15.1483 10.6562 14.9944 10.8102 14.9944 11C14.9944 11.1898 15.1483 11.3438 15.3382 11.3438H21.3125V12.375C21.3125 12.7542 21.0042 13.0625 20.625 13.0625H19.8923L20.2235 12.5657C20.3288 12.4077 20.2861 12.1942 20.1282 12.089C19.9699 11.9831 19.7569 12.0264 19.6515 12.1843L19.066 13.0625H17.1423L17.4735 12.5657C17.5788 12.4077 17.5361 12.1942 17.3782 12.089C17.2199 11.9831 17.0069 12.0264 16.9015 12.1843L16.316 13.0625H15.8056C15.6158 13.0625 15.4619 13.2164 15.4619 13.4062C15.4619 13.5961 15.6158 13.75 15.8056 13.75H20.625C21.3832 13.75 22 13.1332 22 12.375V8.25C22 7.83739 21.8135 7.47098 21.5248 7.21875C21.8135 6.96652 22 6.60011 22 6.1875V2.0625ZM21.3125 4.46875H8.9375V3.78125H21.3125V4.46875ZM21.3125 3.09375H8.9375V2.0625C8.9375 1.68333 9.24583 1.375 9.625 1.375H10.816L11.4015 2.25317C11.4678 2.35254 11.5767 2.40625 11.6878 2.40625C11.7533 2.40625 11.8196 2.38762 11.8782 2.34851C12.0361 2.24327 12.0788 2.02977 11.9735 1.87183L11.6423 1.375H13.566L14.1515 2.25317C14.2178 2.35254 14.3267 2.40625 14.4378 2.40625C14.5033 2.40625 14.5696 2.38762 14.6282 2.34851C14.7861 2.24327 14.8288 2.02977 14.7235 1.87183L14.3923 1.375H16.316L16.9015 2.25317C16.9678 2.35254 17.0767 2.40625 17.1878 2.40625C17.2533 2.40625 17.3196 2.38762 17.3782 2.34851C17.5361 2.24327 17.5788 2.02977 17.4735 1.87183L17.1423 1.375H19.066L19.6515 2.25317C19.7178 2.35254 19.8267 2.40625 19.9378 2.40625C20.0033 2.40625 20.0696 2.38762 20.1282 2.34851C20.2861 2.24327 20.3288 2.02977 20.2235 1.87183L19.8923 1.375H20.625C21.0042 1.375 21.3125 1.68333 21.3125 2.0625V3.09375Z" fill="#8A184F"/>
<path d="M7.5625 6.1875C3.42062 6.1875 0 9.55735 0 13.75C0 17.9158 3.39667 21.3125 7.5625 21.3125C11.7037 21.3125 15.125 17.9418 15.125 13.75C15.125 9.58389 11.7286 6.1875 7.5625 6.1875ZM13.75 14.0938H14.4201C14.3703 15.0941 14.1093 16.0383 13.6751 16.8821L13.0929 16.546C12.9281 16.451 12.7184 16.5074 12.6232 16.6719C12.5284 16.8364 12.5846 17.0465 12.7491 17.1415L13.3309 17.4774C12.8018 18.2934 12.1059 18.9893 11.2899 19.5184L10.954 18.9366C10.859 18.7723 10.649 18.7157 10.4844 18.8107C10.3199 18.9057 10.2637 19.1159 10.3585 19.2804L10.6946 19.8626C9.85075 20.2968 8.90664 20.5578 7.90625 20.6076V19.9375C7.90625 19.7477 7.75233 19.5938 7.5625 19.5938C7.37267 19.5938 7.21875 19.7477 7.21875 19.9375V20.6076C6.21836 20.5578 5.27425 20.2968 4.43038 19.8626L4.76651 19.2804C4.86134 19.1159 4.80511 18.9057 4.64062 18.8107C4.4758 18.7157 4.26582 18.7723 4.17099 18.9366L3.83511 19.5184C3.01944 18.9895 2.32277 18.2926 1.79311 17.478L2.37587 17.1415C2.54036 17.0465 2.59659 16.8364 2.50175 16.6719C2.40659 16.5074 2.19661 16.451 2.03212 16.546L1.44944 16.8824C1.01409 16.0387 0.748219 15.0947 0.698011 14.0938H1.375C1.56483 14.0938 1.71875 13.9398 1.71875 13.75C1.71875 13.5602 1.56483 13.4062 1.375 13.4062H0.698011C0.748219 12.4053 1.01409 11.4613 1.44944 10.6176L2.03212 10.954C2.08633 10.9852 2.14542 11 2.20366 11C2.32249 11 2.43797 10.9384 2.50175 10.8281C2.59659 10.6636 2.54036 10.4535 2.37587 10.3585L1.79311 10.022C2.32277 9.20736 3.01944 8.5105 3.83511 7.98157L4.17099 8.56337C4.23477 8.67365 4.35025 8.73524 4.46909 8.73524C4.52733 8.73524 4.58641 8.72047 4.64062 8.68925C4.80511 8.59425 4.86134 8.38411 4.76651 8.21962L4.43038 7.6374C5.27425 7.2032 6.21836 6.94224 7.21875 6.89241V7.5625C7.21875 7.75233 7.37267 7.90625 7.5625 7.90625C7.75233 7.90625 7.90625 7.75233 7.90625 7.5625V6.89241C8.90664 6.94224 9.85075 7.2032 10.6946 7.6374L10.3585 8.21962C10.2637 8.38411 10.3199 8.59425 10.4844 8.68925C10.5386 8.72047 10.5977 8.73524 10.6559 8.73524C10.7747 8.73524 10.8902 8.67365 10.954 8.56337L11.2899 7.98157C12.1059 8.51069 12.8018 9.20664 13.3309 10.0226L12.7491 10.3585C12.5846 10.4535 12.5284 10.6636 12.6232 10.8281C12.687 10.9384 12.8025 11 12.9213 11C12.9796 11 13.0387 10.9852 13.0929 10.954L13.6751 10.6179C14.1093 11.4617 14.3703 12.4059 14.4201 13.4062H13.75C13.5602 13.4062 13.4062 13.5602 13.4062 13.75C13.4062 13.9398 13.5602 14.0938 13.75 14.0938Z" fill="#8A184F"/>
<path d="M7.5625 9.28125C5.09834 9.28125 3.09375 11.2858 3.09375 13.75C3.09375 16.2105 5.10204 18.2188 7.5625 18.2188C10.2278 18.2188 12.0312 16.0245 12.0312 13.75C12.0312 11.2858 10.0267 9.28125 7.5625 9.28125ZM8.9375 10.2314C9.5451 10.4697 10.0778 10.858 10.4854 11.3545L9.83749 11.565C9.62634 11.6338 9.40126 11.5984 9.22083 11.4673C9.04073 11.3365 8.9375 11.1338 8.9375 10.9112V10.2314ZM6.1875 10.2314V10.9112C6.1875 11.1338 6.08427 11.3365 5.90417 11.4673C5.72391 11.5984 5.49916 11.6338 5.28751 11.565L4.63955 11.3545C5.04723 10.858 5.5799 10.4697 6.1875 10.2314ZM4.38233 15.7877C4.04131 15.2574 3.83121 14.6373 3.79243 13.9708L4.4377 14.1805C4.64952 14.2493 4.81032 14.4101 4.87914 14.622C4.94795 14.8336 4.91237 15.0584 4.78145 15.2385L4.38233 15.7877ZM7.5625 17.5312C7.23195 17.5312 6.91289 17.4843 6.6071 17.4042L7.00626 16.8548C7.2681 16.4946 7.8569 16.4946 8.11874 16.8548L8.5179 17.4042C8.21211 17.4843 7.89305 17.5312 7.5625 17.5312ZM10.7427 15.7877L10.3436 15.2385C10.2126 15.0584 10.177 14.8336 10.2459 14.622C10.3147 14.4101 10.4755 14.2493 10.6873 14.1805L11.3326 13.9708C11.2938 14.6373 11.0837 15.2574 10.7427 15.7877ZM11.3077 13.2559L10.4748 13.5266C10.0513 13.6642 9.72957 13.986 9.59193 14.4095C9.45447 14.8329 9.52563 15.2824 9.78731 15.6426L10.3011 16.3498C9.98453 16.6831 9.60824 16.9574 9.18912 17.1583L8.67499 16.4507C8.41315 16.0905 8.0078 15.8838 7.5625 15.8838C7.1172 15.8838 6.71185 16.0905 6.45001 16.4507L5.93588 17.1583C5.51676 16.9574 5.14047 16.6831 4.82387 16.3498L5.33769 15.6426C5.59937 15.2824 5.67053 14.8329 5.53307 14.4095C5.39543 13.986 5.07367 13.6642 4.65019 13.5266L3.81734 13.2559C3.87881 12.788 4.02247 12.3456 4.23932 11.9474L5.07501 12.2189C5.21667 12.2649 5.36119 12.2876 5.50436 12.2876C5.7892 12.2876 6.0685 12.1978 6.30818 12.0235C6.66838 11.7619 6.875 11.3565 6.875 10.9112V10.0344C7.0983 9.99319 7.32745 9.96875 7.5625 9.96875C7.79755 9.96875 8.0267 9.99319 8.25 10.0344V10.9112C8.25 11.3565 8.45662 11.7619 8.81682 12.0235C9.0565 12.1978 9.3358 12.2876 9.62064 12.2876C9.76381 12.2876 9.90833 12.2649 10.05 12.2189L10.8857 11.9474C11.1025 12.3456 11.2462 12.788 11.3077 13.2559Z" fill="#8A184F"/>
<path d="M7.5625 12.375C6.80434 12.375 6.1875 12.9918 6.1875 13.75C6.1875 14.5082 6.80434 15.125 7.5625 15.125C8.32066 15.125 8.9375 14.5082 8.9375 13.75C8.9375 12.9918 8.32066 12.375 7.5625 12.375ZM7.5625 14.4375C7.18333 14.4375 6.875 14.1292 6.875 13.75C6.875 13.3708 7.18333 13.0625 7.5625 13.0625C7.94167 13.0625 8.25 13.3708 8.25 13.75C8.25 14.1292 7.94167 14.4375 7.5625 14.4375Z" fill="#8A184F"/>
</g>
<defs>
<clipPath id="clip0_1633_8971">
<rect width="22" height="22" fill="white"/>
</clipPath>
</defs>
</svg>
