<svg width="130" height="130" viewBox="0 0 130 130" fill="none" xmlns="http://www.w3.org/2000/svg">
<path opacity="0.15" d="M65 0.5C100.622 0.5 129.5 29.3776 129.5 65C129.5 100.622 100.622 129.5 65 129.5C29.3776 129.5 0.5 100.622 0.5 65C0.5 29.3776 29.3776 0.5 65 0.5Z" fill="#4C0B2E" stroke="#4C0B2E"/>
<circle opacity="0.4" cx="32" cy="39" r="2" fill="#B1B1B1"/>
<circle opacity="0.8" cx="99.5" cy="87.5" r="2.5" fill="#4C0B2E"/>
<path d="M91.117 44.3038C91.0447 43.9147 90.8015 43.5916 90.4694 43.4434L64.8919 32.0795C64.6387 31.9735 64.3594 31.9735 64.1062 32.0795L38.5287 43.4411C38.1966 43.5893 37.9534 43.9123 37.8811 44.3014C33.6343 66.401 45.1007 89.6556 64.4991 98C83.8964 89.6674 95.3638 66.4022 91.117 44.3014V44.3038ZM64.4991 92.1071C48.5629 85.355 39.1445 66.2136 42.6173 48.0859C42.6928 47.6984 42.9349 47.3768 43.265 47.2255L64.1062 37.9736C64.3594 37.8676 64.6387 37.8676 64.8919 37.9736L85.7331 47.2255C86.0632 47.3768 86.3053 47.6984 86.3808 48.0859C89.8547 66.2136 80.4352 85.355 64.4991 92.1083V92.1071ZM84.406 49.1808C87.3703 65.2708 78.9276 82.9625 64.4991 89.6333C50.1342 82.8317 41.6926 65.8247 44.5921 49.1819C44.5921 49.1819 64.1062 40.5194 64.4884 40.3426C64.5203 40.3426 83.9919 49.0052 84.406 49.1819V49.1808Z" fill="white" stroke="#4C0B2E"/>
<path d="M84.5296 49.0188C87.5123 65.2741 79.0171 83.1476 64.4987 89.8869C50.0445 83.0154 41.5503 65.8337 44.4679 49.02C44.4679 49.02 64.1034 40.2684 64.488 40.0898C64.5201 40.0898 84.1129 48.8414 84.5296 49.02V49.0188Z" fill="#4C0B2E"/>
<path d="M78.5678 53.4551C80.7383 65.2066 74.5565 78.1279 63.9918 83C53.4737 78.0324 47.2927 65.6112 49.4158 53.4559C49.4158 53.4559 63.7042 47.1291 63.984 47C64.0074 47 78.2647 53.3268 78.5678 53.4559V53.4551Z" fill="white"/>
<circle cx="84.5" cy="42.5" r="12.5" fill="#4DC985"/>
<path d="M83.4409 46L80 42.6638L80.6605 42.0234L83.4409 44.7191L89.3395 39L90 39.6404L83.4409 46Z" fill="#4C0B2E" stroke="white" stroke-linecap="round"/>
</svg>
